<svg xmlns="http://www.w3.org/2000/svg" width="256px" height="22px"><rect width="2%" height="100%" x="0%" fill="#000000"></rect><rect width="2%" height="100%" x="0%" fill="#040000"></rect><rect width="2%" height="100%" x="1%" fill="#080000"></rect><rect width="2%" height="100%" x="2%" fill="#0c0000"></rect><rect width="2%" height="100%" x="3%" fill="#100000"></rect><rect width="2%" height="100%" x="3%" fill="#140000"></rect><rect width="2%" height="100%" x="4%" fill="#180000"></rect><rect width="2%" height="100%" x="5%" fill="#1c0000"></rect><rect width="2%" height="100%" x="6%" fill="#200000"></rect><rect width="2%" height="100%" x="7%" fill="#240000"></rect><rect width="2%" height="100%" x="7%" fill="#280000"></rect><rect width="2%" height="100%" x="8%" fill="#2c0000"></rect><rect width="2%" height="100%" x="9%" fill="#300000"></rect><rect width="2%" height="100%" x="10%" fill="#340000"></rect><rect width="2%" height="100%" x="11%" fill="#380000"></rect><rect width="2%" height="100%" x="11%" fill="#3c0000"></rect><rect width="2%" height="100%" x="12%" fill="#400000"></rect><rect width="2%" height="100%" x="13%" fill="#440000"></rect><rect width="2%" height="100%" x="14%" fill="#480000"></rect><rect width="2%" height="100%" x="14%" fill="#4c0000"></rect><rect width="2%" height="100%" x="15%" fill="#500000"></rect><rect width="2%" height="100%" x="16%" fill="#540000"></rect><rect width="2%" height="100%" x="17%" fill="#580000"></rect><rect width="2%" height="100%" x="18%" fill="#5c0000"></rect><rect width="2%" height="100%" x="18%" fill="#600000"></rect><rect width="2%" height="100%" x="19%" fill="#640000"></rect><rect width="2%" height="100%" x="20%" fill="#680000"></rect><rect width="2%" height="100%" x="21%" fill="#6c0000"></rect><rect width="2%" height="100%" x="22%" fill="#700000"></rect><rect width="2%" height="100%" x="22%" fill="#740000"></rect><rect width="2%" height="100%" x="23%" fill="#780000"></rect><rect width="2%" height="100%" x="24%" fill="#7c0000"></rect><rect width="2%" height="100%" x="25%" fill="#810000"></rect><rect width="2%" height="100%" x="25%" fill="#850000"></rect><rect width="2%" height="100%" x="26%" fill="#890000"></rect><rect width="2%" height="100%" x="27%" fill="#8d0000"></rect><rect width="2%" height="100%" x="28%" fill="#910000"></rect><rect width="2%" height="100%" x="29%" fill="#950000"></rect><rect width="2%" height="100%" x="29%" fill="#990000"></rect><rect width="2%" height="100%" x="30%" fill="#9d0000"></rect><rect width="2%" height="100%" x="31%" fill="#a10000"></rect><rect width="2%" height="100%" x="32%" fill="#a50000"></rect><rect width="2%" height="100%" x="33%" fill="#a90000"></rect><rect width="2%" height="100%" x="33%" fill="#ad0000"></rect><rect width="2%" height="100%" x="34%" fill="#b10000"></rect><rect width="2%" height="100%" x="35%" fill="#b50000"></rect><rect width="2%" height="100%" x="36%" fill="#b90000"></rect><rect width="2%" height="100%" x="37%" fill="#bd0000"></rect><rect width="2%" height="100%" x="37%" fill="#c10000"></rect><rect width="2%" height="100%" x="38%" fill="#c50000"></rect><rect width="2%" height="100%" x="39%" fill="#c90000"></rect><rect width="2%" height="100%" x="40%" fill="#cd0000"></rect><rect width="2%" height="100%" x="40%" fill="#d10000"></rect><rect width="2%" height="100%" x="41%" fill="#d50000"></rect><rect width="2%" height="100%" x="42%" fill="#d90000"></rect><rect width="2%" height="100%" x="43%" fill="#dd0000"></rect><rect width="2%" height="100%" x="44%" fill="#e10000"></rect><rect width="2%" height="100%" x="44%" fill="#e50000"></rect><rect width="2%" height="100%" x="45%" fill="#e90000"></rect><rect width="2%" height="100%" x="46%" fill="#ed0000"></rect><rect width="2%" height="100%" x="47%" fill="#f10000"></rect><rect width="2%" height="100%" x="48%" fill="#f50000"></rect><rect width="2%" height="100%" x="48%" fill="#f90000"></rect><rect width="2%" height="100%" x="49%" fill="#fd0000"></rect><rect width="2%" height="100%" x="50%" fill="#ff0200"></rect><rect width="2%" height="100%" x="51%" fill="#ff0500"></rect><rect width="2%" height="100%" x="51%" fill="#ff0800"></rect><rect width="2%" height="100%" x="52%" fill="#ff0c00"></rect><rect width="2%" height="100%" x="53%" fill="#ff0f00"></rect><rect width="2%" height="100%" x="54%" fill="#ff1300"></rect><rect width="2%" height="100%" x="55%" fill="#ff1600"></rect><rect width="2%" height="100%" x="55%" fill="#ff1900"></rect><rect width="2%" height="100%" x="56%" fill="#ff1d00"></rect><rect width="2%" height="100%" x="57%" fill="#ff2000"></rect><rect width="2%" height="100%" x="58%" fill="#ff2400"></rect><rect width="2%" height="100%" x="59%" fill="#ff2700"></rect><rect width="2%" height="100%" x="59%" fill="#ff2a00"></rect><rect width="2%" height="100%" x="60%" fill="#ff2e00"></rect><rect width="2%" height="100%" x="61%" fill="#ff3100"></rect><rect width="2%" height="100%" x="62%" fill="#ff3400"></rect><rect width="2%" height="100%" x="62%" fill="#ff3800"></rect><rect width="2%" height="100%" x="63%" fill="#ff3b00"></rect><rect width="2%" height="100%" x="64%" fill="#ff3f00"></rect><rect width="2%" height="100%" x="65%" fill="#ff4200"></rect><rect width="2%" height="100%" x="66%" fill="#ff4500"></rect><rect width="2%" height="100%" x="66%" fill="#ff4900"></rect><rect width="2%" height="100%" x="67%" fill="#ff4c00"></rect><rect width="2%" height="100%" x="68%" fill="#ff5000"></rect><rect width="2%" height="100%" x="69%" fill="#ff5300"></rect><rect width="2%" height="100%" x="70%" fill="#ff5600"></rect><rect width="2%" height="100%" x="70%" fill="#ff5a00"></rect><rect width="2%" height="100%" x="71%" fill="#ff5d00"></rect><rect width="2%" height="100%" x="72%" fill="#ff6000"></rect><rect width="2%" height="100%" x="73%" fill="#ff6400"></rect><rect width="2%" height="100%" x="74%" fill="#ff6700"></rect><rect width="2%" height="100%" x="74%" fill="#ff6b00"></rect><rect width="2%" height="100%" x="75%" fill="#ff6e00"></rect><rect width="2%" height="100%" x="76%" fill="#ff7100"></rect><rect width="2%" height="100%" x="77%" fill="#ff7500"></rect><rect width="2%" height="100%" x="77%" fill="#ff7800"></rect><rect width="2%" height="100%" x="78%" fill="#ff7c00"></rect><rect width="2%" height="100%" x="79%" fill="#ff7f00"></rect><rect width="2%" height="100%" x="80%" fill="#ff8200"></rect><rect width="2%" height="100%" x="81%" fill="#ff8600"></rect><rect width="2%" height="100%" x="81%" fill="#ff8900"></rect><rect width="2%" height="100%" x="82%" fill="#ff8d00"></rect><rect width="2%" height="100%" x="83%" fill="#ff9000"></rect><rect width="2%" height="100%" x="84%" fill="#ff9300"></rect><rect width="2%" height="100%" x="85%" fill="#ff9700"></rect><rect width="2%" height="100%" x="85%" fill="#ff9a00"></rect><rect width="2%" height="100%" x="86%" fill="#ff9d00"></rect><rect width="2%" height="100%" x="87%" fill="#ffa100"></rect><rect width="2%" height="100%" x="88%" fill="#ffa400"></rect><rect width="2%" height="100%" x="88%" fill="#ffa800"></rect><rect width="2%" height="100%" x="89%" fill="#ffab00"></rect><rect width="2%" height="100%" x="90%" fill="#ffae00"></rect><rect width="2%" height="100%" x="91%" fill="#ffb200"></rect><rect width="2%" height="100%" x="92%" fill="#ffb500"></rect><rect width="2%" height="100%" x="92%" fill="#ffb900"></rect><rect width="2%" height="100%" x="93%" fill="#ffbc00"></rect><rect width="2%" height="100%" x="94%" fill="#ffbf00"></rect><rect width="2%" height="100%" x="95%" fill="#ffc300"></rect><rect width="2%" height="100%" x="96%" fill="#ffc600"></rect><rect width="2%" height="100%" x="96%" fill="#ffc900"></rect><rect width="2%" height="100%" x="97%" fill="#ffcd00"></rect><rect width="2%" height="100%" x="98%" fill="#ffd000"></rect><rect width="2%" height="100%" x="99%" fill="#ffd400"></rect><rect width="2%" height="100%" x="100%" fill="#ffd700"></rect><text x="0%" y="95%" fill="rgb(255,255,255)" text-anchor="start" style="font-family:monospace;font-size:smaller">0</text><text x="50%" y="95%" fill="rgb(255,255,255)" text-anchor="middle" style="font-family:monospace;font-size:smaller">0.5</text><text x="100%" y="95%" fill="rgb(0,0,0)" text-anchor="end" style="font-family:monospace;font-size:smaller">1</text></svg>