<svg xmlns="http://www.w3.org/2000/svg" width="256px" height="22px"><rect width="2%" height="100%" x="0%" fill="#fff7ec"></rect><rect width="2%" height="100%" x="0%" fill="#fff6ea"></rect><rect width="2%" height="100%" x="1%" fill="#fff5e7"></rect><rect width="2%" height="100%" x="2%" fill="#fff4e5"></rect><rect width="2%" height="100%" x="3%" fill="#fff3e3"></rect><rect width="2%" height="100%" x="3%" fill="#fff2e1"></rect><rect width="2%" height="100%" x="4%" fill="#fff1de"></rect><rect width="2%" height="100%" x="5%" fill="#fff0dc"></rect><rect width="2%" height="100%" x="6%" fill="#feefda"></rect><rect width="2%" height="100%" x="7%" fill="#feeed8"></rect><rect width="2%" height="100%" x="7%" fill="#feeed5"></rect><rect width="2%" height="100%" x="8%" fill="#feedd3"></rect><rect width="2%" height="100%" x="9%" fill="#feecd1"></rect><rect width="2%" height="100%" x="10%" fill="#feebcf"></rect><rect width="2%" height="100%" x="11%" fill="#feeacc"></rect><rect width="2%" height="100%" x="11%" fill="#fee9ca"></rect><rect width="2%" height="100%" x="12%" fill="#fee8c8"></rect><rect width="2%" height="100%" x="13%" fill="#fee7c5"></rect><rect width="2%" height="100%" x="14%" fill="#fee5c2"></rect><rect width="2%" height="100%" x="14%" fill="#fee4c0"></rect><rect width="2%" height="100%" x="15%" fill="#fee3bd"></rect><rect width="2%" height="100%" x="16%" fill="#fee2ba"></rect><rect width="2%" height="100%" x="17%" fill="#fee0b8"></rect><rect width="2%" height="100%" x="18%" fill="#fedfb5"></rect><rect width="2%" height="100%" x="18%" fill="#fddeb3"></rect><rect width="2%" height="100%" x="19%" fill="#fdddb0"></rect><rect width="2%" height="100%" x="20%" fill="#fddbad"></rect><rect width="2%" height="100%" x="21%" fill="#fddaab"></rect><rect width="2%" height="100%" x="22%" fill="#fdd9a8"></rect><rect width="2%" height="100%" x="22%" fill="#fdd7a5"></rect><rect width="2%" height="100%" x="23%" fill="#fdd6a3"></rect><rect width="2%" height="100%" x="24%" fill="#fdd5a0"></rect><rect width="2%" height="100%" x="25%" fill="#fdd49e"></rect><rect width="2%" height="100%" x="25%" fill="#fdd29c"></rect><rect width="2%" height="100%" x="26%" fill="#fdd09a"></rect><rect width="2%" height="100%" x="27%" fill="#fdcf99"></rect><rect width="2%" height="100%" x="28%" fill="#fdcd97"></rect><rect width="2%" height="100%" x="29%" fill="#fdcc95"></rect><rect width="2%" height="100%" x="29%" fill="#fdca94"></rect><rect width="2%" height="100%" x="30%" fill="#fdc992"></rect><rect width="2%" height="100%" x="31%" fill="#fdc790"></rect><rect width="2%" height="100%" x="32%" fill="#fdc58f"></rect><rect width="2%" height="100%" x="33%" fill="#fdc48d"></rect><rect width="2%" height="100%" x="33%" fill="#fdc28c"></rect><rect width="2%" height="100%" x="34%" fill="#fdc18a"></rect><rect width="2%" height="100%" x="35%" fill="#fdbf88"></rect><rect width="2%" height="100%" x="36%" fill="#fdbe87"></rect><rect width="2%" height="100%" x="37%" fill="#fdbc85"></rect><rect width="2%" height="100%" x="37%" fill="#fdba83"></rect><rect width="2%" height="100%" x="38%" fill="#fdb780"></rect><rect width="2%" height="100%" x="39%" fill="#fdb47e"></rect><rect width="2%" height="100%" x="40%" fill="#fdb17b"></rect><rect width="2%" height="100%" x="40%" fill="#fdae78"></rect><rect width="2%" height="100%" x="41%" fill="#fdab75"></rect><rect width="2%" height="100%" x="42%" fill="#fda973"></rect><rect width="2%" height="100%" x="43%" fill="#fda670"></rect><rect width="2%" height="100%" x="44%" fill="#fca36d"></rect><rect width="2%" height="100%" x="44%" fill="#fca06b"></rect><rect width="2%" height="100%" x="45%" fill="#fc9d68"></rect><rect width="2%" height="100%" x="46%" fill="#fc9a65"></rect><rect width="2%" height="100%" x="47%" fill="#fc9762"></rect><rect width="2%" height="100%" x="48%" fill="#fc9460"></rect><rect width="2%" height="100%" x="48%" fill="#fc915d"></rect><rect width="2%" height="100%" x="49%" fill="#fc8e5a"></rect><rect width="2%" height="100%" x="50%" fill="#fc8c58"></rect><rect width="2%" height="100%" x="51%" fill="#fb8957"></rect><rect width="2%" height="100%" x="51%" fill="#fa8756"></rect><rect width="2%" height="100%" x="52%" fill="#f98455"></rect><rect width="2%" height="100%" x="53%" fill="#f88254"></rect><rect width="2%" height="100%" x="54%" fill="#f77f53"></rect><rect width="2%" height="100%" x="55%" fill="#f77d52"></rect><rect width="2%" height="100%" x="55%" fill="#f67a51"></rect><rect width="2%" height="100%" x="56%" fill="#f57850"></rect><rect width="2%" height="100%" x="57%" fill="#f4754f"></rect><rect width="2%" height="100%" x="58%" fill="#f3734e"></rect><rect width="2%" height="100%" x="59%" fill="#f3704d"></rect><rect width="2%" height="100%" x="59%" fill="#f26e4c"></rect><rect width="2%" height="100%" x="60%" fill="#f16b4b"></rect><rect width="2%" height="100%" x="61%" fill="#f06849"></rect><rect width="2%" height="100%" x="62%" fill="#ef6648"></rect><rect width="2%" height="100%" x="62%" fill="#ee6346"></rect><rect width="2%" height="100%" x="63%" fill="#ed6044"></rect><rect width="2%" height="100%" x="64%" fill="#eb5c41"></rect><rect width="2%" height="100%" x="65%" fill="#ea593f"></rect><rect width="2%" height="100%" x="66%" fill="#e8563c"></rect><rect width="2%" height="100%" x="66%" fill="#e65239"></rect><rect width="2%" height="100%" x="67%" fill="#e54f37"></rect><rect width="2%" height="100%" x="68%" fill="#e34c34"></rect><rect width="2%" height="100%" x="69%" fill="#e24832"></rect><rect width="2%" height="100%" x="70%" fill="#e0452f"></rect><rect width="2%" height="100%" x="70%" fill="#df422d"></rect><rect width="2%" height="100%" x="71%" fill="#dd3e2a"></rect><rect width="2%" height="100%" x="72%" fill="#dc3b27"></rect><rect width="2%" height="100%" x="73%" fill="#da3825"></rect><rect width="2%" height="100%" x="74%" fill="#d93422"></rect><rect width="2%" height="100%" x="74%" fill="#d73120"></rect><rect width="2%" height="100%" x="75%" fill="#d52e1e"></rect><rect width="2%" height="100%" x="76%" fill="#d32b1c"></rect><rect width="2%" height="100%" x="77%" fill="#d1281a"></rect><rect width="2%" height="100%" x="77%" fill="#ce2518"></rect><rect width="2%" height="100%" x="78%" fill="#cc2216"></rect><rect width="2%" height="100%" x="79%" fill="#ca1f14"></rect><rect width="2%" height="100%" x="80%" fill="#c81c12"></rect><rect width="2%" height="100%" x="81%" fill="#c51910"></rect><rect width="2%" height="100%" x="81%" fill="#c3160e"></rect><rect width="2%" height="100%" x="82%" fill="#c1130c"></rect><rect width="2%" height="100%" x="83%" fill="#bf0f0a"></rect><rect width="2%" height="100%" x="84%" fill="#bc0c08"></rect><rect width="2%" height="100%" x="85%" fill="#ba0906"></rect><rect width="2%" height="100%" x="85%" fill="#b80604"></rect><rect width="2%" height="100%" x="86%" fill="#b60302"></rect><rect width="2%" height="100%" x="87%" fill="#b30000"></rect><rect width="2%" height="100%" x="88%" fill="#b00000"></rect><rect width="2%" height="100%" x="88%" fill="#ad0000"></rect><rect width="2%" height="100%" x="89%" fill="#aa0000"></rect><rect width="2%" height="100%" x="90%" fill="#a60000"></rect><rect width="2%" height="100%" x="91%" fill="#a30000"></rect><rect width="2%" height="100%" x="92%" fill="#a00000"></rect><rect width="2%" height="100%" x="92%" fill="#9c0000"></rect><rect width="2%" height="100%" x="93%" fill="#990000"></rect><rect width="2%" height="100%" x="94%" fill="#960000"></rect><rect width="2%" height="100%" x="95%" fill="#930000"></rect><rect width="2%" height="100%" x="96%" fill="#8f0000"></rect><rect width="2%" height="100%" x="96%" fill="#8c0000"></rect><rect width="2%" height="100%" x="97%" fill="#890000"></rect><rect width="2%" height="100%" x="98%" fill="#860000"></rect><rect width="2%" height="100%" x="99%" fill="#820000"></rect><rect width="2%" height="100%" x="100%" fill="#7f0000"></rect><text x="0%" y="95%" fill="rgb(0,0,0)" text-anchor="start" style="font-family:monospace;font-size:smaller">0</text><text x="12%" y="95%" fill="rgb(0,0,0)" text-anchor="middle" style="font-family:monospace;font-size:smaller">0.13</text><text x="25%" y="95%" fill="rgb(0,0,0)" text-anchor="middle" style="font-family:monospace;font-size:smaller">0.25</text><text x="37%" y="95%" fill="rgb(0,0,0)" text-anchor="middle" style="font-family:monospace;font-size:smaller">0.38</text><text x="50%" y="95%" fill="rgb(255,255,255)" text-anchor="middle" style="font-family:monospace;font-size:smaller">0.5</text><text x="62%" y="95%" fill="rgb(255,255,255)" text-anchor="middle" style="font-family:monospace;font-size:smaller">0.63</text><text x="75%" y="95%" fill="rgb(255,255,255)" text-anchor="middle" style="font-family:monospace;font-size:smaller">0.75</text><text x="87%" y="95%" fill="rgb(255,255,255)" text-anchor="middle" style="font-family:monospace;font-size:smaller">0.88</text><text x="100%" y="95%" fill="rgb(255,255,255)" text-anchor="end" style="font-family:monospace;font-size:smaller">1</text></svg>