<svg xmlns="http://www.w3.org/2000/svg" width="256px" height="22px"><rect width="2%" height="100%" x="0%" fill="#ff0000"></rect><rect width="2%" height="100%" x="0%" fill="#ff0808"></rect><rect width="2%" height="100%" x="1%" fill="#ff1010"></rect><rect width="2%" height="100%" x="2%" fill="#ff1818"></rect><rect width="2%" height="100%" x="3%" fill="#ff2020"></rect><rect width="2%" height="100%" x="3%" fill="#ff2828"></rect><rect width="2%" height="100%" x="4%" fill="#ff3030"></rect><rect width="2%" height="100%" x="5%" fill="#ff3838"></rect><rect width="2%" height="100%" x="6%" fill="#ff4040"></rect><rect width="2%" height="100%" x="7%" fill="#ff4848"></rect><rect width="2%" height="100%" x="7%" fill="#ff5050"></rect><rect width="2%" height="100%" x="8%" fill="#ff5858"></rect><rect width="2%" height="100%" x="9%" fill="#ff6060"></rect><rect width="2%" height="100%" x="10%" fill="#ff6868"></rect><rect width="2%" height="100%" x="11%" fill="#ff7070"></rect><rect width="2%" height="100%" x="11%" fill="#ff7878"></rect><rect width="2%" height="100%" x="12%" fill="#ff8181"></rect><rect width="2%" height="100%" x="13%" fill="#ff8989"></rect><rect width="2%" height="100%" x="14%" fill="#ff9191"></rect><rect width="2%" height="100%" x="14%" fill="#ff9999"></rect><rect width="2%" height="100%" x="15%" fill="#ffa1a1"></rect><rect width="2%" height="100%" x="16%" fill="#ffa9a9"></rect><rect width="2%" height="100%" x="17%" fill="#ffb1b1"></rect><rect width="2%" height="100%" x="18%" fill="#ffb9b9"></rect><rect width="2%" height="100%" x="18%" fill="#ffc1c1"></rect><rect width="2%" height="100%" x="19%" fill="#ffc9c9"></rect><rect width="2%" height="100%" x="20%" fill="#ffd1d1"></rect><rect width="2%" height="100%" x="21%" fill="#ffd9d9"></rect><rect width="2%" height="100%" x="22%" fill="#ffe1e1"></rect><rect width="2%" height="100%" x="22%" fill="#ffe9e9"></rect><rect width="2%" height="100%" x="23%" fill="#fff1f1"></rect><rect width="2%" height="100%" x="24%" fill="#fff9f9"></rect><rect width="2%" height="100%" x="25%" fill="#fefeff"></rect><rect width="2%" height="100%" x="25%" fill="#fcfcff"></rect><rect width="2%" height="100%" x="26%" fill="#f9f9ff"></rect><rect width="2%" height="100%" x="27%" fill="#f6f6ff"></rect><rect width="2%" height="100%" x="28%" fill="#f4f4ff"></rect><rect width="2%" height="100%" x="29%" fill="#f1f1ff"></rect><rect width="2%" height="100%" x="29%" fill="#eeeeff"></rect><rect width="2%" height="100%" x="30%" fill="#ececff"></rect><rect width="2%" height="100%" x="31%" fill="#e9e9ff"></rect><rect width="2%" height="100%" x="32%" fill="#e6e6ff"></rect><rect width="2%" height="100%" x="33%" fill="#e4e4ff"></rect><rect width="2%" height="100%" x="33%" fill="#e1e1ff"></rect><rect width="2%" height="100%" x="34%" fill="#dedeff"></rect><rect width="2%" height="100%" x="35%" fill="#dcdcff"></rect><rect width="2%" height="100%" x="36%" fill="#d9d9ff"></rect><rect width="2%" height="100%" x="37%" fill="#d6d6ff"></rect><rect width="2%" height="100%" x="37%" fill="#d3d3ff"></rect><rect width="2%" height="100%" x="38%" fill="#d1d1ff"></rect><rect width="2%" height="100%" x="39%" fill="#ceceff"></rect><rect width="2%" height="100%" x="40%" fill="#cbcbff"></rect><rect width="2%" height="100%" x="40%" fill="#c9c9ff"></rect><rect width="2%" height="100%" x="41%" fill="#c6c6ff"></rect><rect width="2%" height="100%" x="42%" fill="#c3c3ff"></rect><rect width="2%" height="100%" x="43%" fill="#c1c1ff"></rect><rect width="2%" height="100%" x="44%" fill="#bebeff"></rect><rect width="2%" height="100%" x="44%" fill="#bbbbff"></rect><rect width="2%" height="100%" x="45%" fill="#b9b9ff"></rect><rect width="2%" height="100%" x="46%" fill="#b6b6ff"></rect><rect width="2%" height="100%" x="47%" fill="#b3b3ff"></rect><rect width="2%" height="100%" x="48%" fill="#b1b1ff"></rect><rect width="2%" height="100%" x="48%" fill="#aeaeff"></rect><rect width="2%" height="100%" x="49%" fill="#ababff"></rect><rect width="2%" height="100%" x="50%" fill="#a9a9ff"></rect><rect width="2%" height="100%" x="51%" fill="#a6a6ff"></rect><rect width="2%" height="100%" x="51%" fill="#a3a3ff"></rect><rect width="2%" height="100%" x="52%" fill="#a1a1ff"></rect><rect width="2%" height="100%" x="53%" fill="#9e9eff"></rect><rect width="2%" height="100%" x="54%" fill="#9b9bff"></rect><rect width="2%" height="100%" x="55%" fill="#9999ff"></rect><rect width="2%" height="100%" x="55%" fill="#9696ff"></rect><rect width="2%" height="100%" x="56%" fill="#9393ff"></rect><rect width="2%" height="100%" x="57%" fill="#9191ff"></rect><rect width="2%" height="100%" x="58%" fill="#8e8eff"></rect><rect width="2%" height="100%" x="59%" fill="#8b8bff"></rect><rect width="2%" height="100%" x="59%" fill="#8989ff"></rect><rect width="2%" height="100%" x="60%" fill="#8686ff"></rect><rect width="2%" height="100%" x="61%" fill="#8383ff"></rect><rect width="2%" height="100%" x="62%" fill="#8181ff"></rect><rect width="2%" height="100%" x="62%" fill="#7e7eff"></rect><rect width="2%" height="100%" x="63%" fill="#7b7bff"></rect><rect width="2%" height="100%" x="64%" fill="#7878ff"></rect><rect width="2%" height="100%" x="65%" fill="#7676ff"></rect><rect width="2%" height="100%" x="66%" fill="#7373ff"></rect><rect width="2%" height="100%" x="66%" fill="#7070ff"></rect><rect width="2%" height="100%" x="67%" fill="#6e6eff"></rect><rect width="2%" height="100%" x="68%" fill="#6b6bff"></rect><rect width="2%" height="100%" x="69%" fill="#6868ff"></rect><rect width="2%" height="100%" x="70%" fill="#6666ff"></rect><rect width="2%" height="100%" x="70%" fill="#6363ff"></rect><rect width="2%" height="100%" x="71%" fill="#6060ff"></rect><rect width="2%" height="100%" x="72%" fill="#5e5eff"></rect><rect width="2%" height="100%" x="73%" fill="#5b5bff"></rect><rect width="2%" height="100%" x="74%" fill="#5858ff"></rect><rect width="2%" height="100%" x="74%" fill="#5656ff"></rect><rect width="2%" height="100%" x="75%" fill="#5353ff"></rect><rect width="2%" height="100%" x="76%" fill="#5050ff"></rect><rect width="2%" height="100%" x="77%" fill="#4e4eff"></rect><rect width="2%" height="100%" x="77%" fill="#4b4bff"></rect><rect width="2%" height="100%" x="78%" fill="#4848ff"></rect><rect width="2%" height="100%" x="79%" fill="#4646ff"></rect><rect width="2%" height="100%" x="80%" fill="#4343ff"></rect><rect width="2%" height="100%" x="81%" fill="#4040ff"></rect><rect width="2%" height="100%" x="81%" fill="#3e3eff"></rect><rect width="2%" height="100%" x="82%" fill="#3b3bff"></rect><rect width="2%" height="100%" x="83%" fill="#3838ff"></rect><rect width="2%" height="100%" x="84%" fill="#3636ff"></rect><rect width="2%" height="100%" x="85%" fill="#3333ff"></rect><rect width="2%" height="100%" x="85%" fill="#3030ff"></rect><rect width="2%" height="100%" x="86%" fill="#2e2eff"></rect><rect width="2%" height="100%" x="87%" fill="#2b2bff"></rect><rect width="2%" height="100%" x="88%" fill="#2828ff"></rect><rect width="2%" height="100%" x="88%" fill="#2525ff"></rect><rect width="2%" height="100%" x="89%" fill="#2323ff"></rect><rect width="2%" height="100%" x="90%" fill="#2020ff"></rect><rect width="2%" height="100%" x="91%" fill="#1d1dff"></rect><rect width="2%" height="100%" x="92%" fill="#1b1bff"></rect><rect width="2%" height="100%" x="92%" fill="#1818ff"></rect><rect width="2%" height="100%" x="93%" fill="#1515ff"></rect><rect width="2%" height="100%" x="94%" fill="#1313ff"></rect><rect width="2%" height="100%" x="95%" fill="#1010ff"></rect><rect width="2%" height="100%" x="96%" fill="#0d0dff"></rect><rect width="2%" height="100%" x="96%" fill="#0b0bff"></rect><rect width="2%" height="100%" x="97%" fill="#0808ff"></rect><rect width="2%" height="100%" x="98%" fill="#0505ff"></rect><rect width="2%" height="100%" x="99%" fill="#0303ff"></rect><rect width="2%" height="100%" x="100%" fill="#0000ff"></rect><text x="0%" y="95%" fill="rgb(255,255,255)" text-anchor="start" style="font-family:monospace;font-size:smaller">0</text><text x="25%" y="95%" fill="rgb(0,0,0)" text-anchor="middle" style="font-family:monospace;font-size:smaller">25</text><text x="100%" y="95%" fill="rgb(255,255,255)" text-anchor="end" style="font-family:monospace;font-size:smaller">100</text></svg>