<svg xmlns="http://www.w3.org/2000/svg" width="256px" height="22px"><rect width="2%" height="100%" x="0%" fill="#440154"></rect><rect width="2%" height="100%" x="0%" fill="#440356"></rect><rect width="2%" height="100%" x="1%" fill="#450658"></rect><rect width="2%" height="100%" x="2%" fill="#45085b"></rect><rect width="2%" height="100%" x="3%" fill="#450b5d"></rect><rect width="2%" height="100%" x="3%" fill="#450d5f"></rect><rect width="2%" height="100%" x="4%" fill="#460f61"></rect><rect width="2%" height="100%" x="5%" fill="#461263"></rect><rect width="2%" height="100%" x="6%" fill="#461466"></rect><rect width="2%" height="100%" x="7%" fill="#461768"></rect><rect width="2%" height="100%" x="7%" fill="#47196a"></rect><rect width="2%" height="100%" x="8%" fill="#471b6c"></rect><rect width="2%" height="100%" x="9%" fill="#471e6e"></rect><rect width="2%" height="100%" x="10%" fill="#472071"></rect><rect width="2%" height="100%" x="11%" fill="#482373"></rect><rect width="2%" height="100%" x="11%" fill="#482575"></rect><rect width="2%" height="100%" x="12%" fill="#482777"></rect><rect width="2%" height="100%" x="13%" fill="#472978"></rect><rect width="2%" height="100%" x="14%" fill="#472c7a"></rect><rect width="2%" height="100%" x="14%" fill="#462e7b"></rect><rect width="2%" height="100%" x="15%" fill="#46307c"></rect><rect width="2%" height="100%" x="16%" fill="#45327d"></rect><rect width="2%" height="100%" x="17%" fill="#45357e"></rect><rect width="2%" height="100%" x="18%" fill="#443780"></rect><rect width="2%" height="100%" x="18%" fill="#433981"></rect><rect width="2%" height="100%" x="19%" fill="#433b82"></rect><rect width="2%" height="100%" x="20%" fill="#423d83"></rect><rect width="2%" height="100%" x="21%" fill="#424084"></rect><rect width="2%" height="100%" x="22%" fill="#414286"></rect><rect width="2%" height="100%" x="22%" fill="#414487"></rect><rect width="2%" height="100%" x="23%" fill="#404688"></rect><rect width="2%" height="100%" x="24%" fill="#3f4889"></rect><rect width="2%" height="100%" x="25%" fill="#3f4a8a"></rect><rect width="2%" height="100%" x="25%" fill="#3e4c8a"></rect><rect width="2%" height="100%" x="26%" fill="#3d4e8b"></rect><rect width="2%" height="100%" x="27%" fill="#3c508b"></rect><rect width="2%" height="100%" x="28%" fill="#3b528b"></rect><rect width="2%" height="100%" x="29%" fill="#3a548b"></rect><rect width="2%" height="100%" x="29%" fill="#39558c"></rect><rect width="2%" height="100%" x="30%" fill="#39578c"></rect><rect width="2%" height="100%" x="31%" fill="#38598c"></rect><rect width="2%" height="100%" x="32%" fill="#375b8c"></rect><rect width="2%" height="100%" x="33%" fill="#365d8d"></rect><rect width="2%" height="100%" x="33%" fill="#355f8d"></rect><rect width="2%" height="100%" x="34%" fill="#34608d"></rect><rect width="2%" height="100%" x="35%" fill="#33628d"></rect><rect width="2%" height="100%" x="36%" fill="#32648e"></rect><rect width="2%" height="100%" x="37%" fill="#32668e"></rect><rect width="2%" height="100%" x="37%" fill="#31688e"></rect><rect width="2%" height="100%" x="38%" fill="#30698e"></rect><rect width="2%" height="100%" x="39%" fill="#2f6b8e"></rect><rect width="2%" height="100%" x="40%" fill="#2f6d8e"></rect><rect width="2%" height="100%" x="40%" fill="#2e6f8e"></rect><rect width="2%" height="100%" x="41%" fill="#2d708e"></rect><rect width="2%" height="100%" x="42%" fill="#2d728e"></rect><rect width="2%" height="100%" x="43%" fill="#2c748e"></rect><rect width="2%" height="100%" x="44%" fill="#2b768f"></rect><rect width="2%" height="100%" x="44%" fill="#2b788f"></rect><rect width="2%" height="100%" x="45%" fill="#2a798f"></rect><rect width="2%" height="100%" x="46%" fill="#297b8f"></rect><rect width="2%" height="100%" x="47%" fill="#287d8f"></rect><rect width="2%" height="100%" x="48%" fill="#287f8f"></rect><rect width="2%" height="100%" x="48%" fill="#27808f"></rect><rect width="2%" height="100%" x="49%" fill="#26828f"></rect><rect width="2%" height="100%" x="50%" fill="#26848f"></rect><rect width="2%" height="100%" x="51%" fill="#25858f"></rect><rect width="2%" height="100%" x="51%" fill="#25878e"></rect><rect width="2%" height="100%" x="52%" fill="#24898e"></rect><rect width="2%" height="100%" x="53%" fill="#248a8e"></rect><rect width="2%" height="100%" x="54%" fill="#248c8d"></rect><rect width="2%" height="100%" x="55%" fill="#238e8d"></rect><rect width="2%" height="100%" x="55%" fill="#238f8d"></rect><rect width="2%" height="100%" x="56%" fill="#22918c"></rect><rect width="2%" height="100%" x="57%" fill="#22938c"></rect><rect width="2%" height="100%" x="58%" fill="#21948c"></rect><rect width="2%" height="100%" x="59%" fill="#21968b"></rect><rect width="2%" height="100%" x="59%" fill="#20978b"></rect><rect width="2%" height="100%" x="60%" fill="#20998b"></rect><rect width="2%" height="100%" x="61%" fill="#209b8a"></rect><rect width="2%" height="100%" x="62%" fill="#1f9c8a"></rect><rect width="2%" height="100%" x="62%" fill="#229f88"></rect><rect width="2%" height="100%" x="63%" fill="#27a285"></rect><rect width="2%" height="100%" x="64%" fill="#2ca582"></rect><rect width="2%" height="100%" x="65%" fill="#31a87f"></rect><rect width="2%" height="100%" x="66%" fill="#35ab7c"></rect><rect width="2%" height="100%" x="66%" fill="#3aae79"></rect><rect width="2%" height="100%" x="67%" fill="#3fb176"></rect><rect width="2%" height="100%" x="68%" fill="#44b573"></rect><rect width="2%" height="100%" x="69%" fill="#49b870"></rect><rect width="2%" height="100%" x="70%" fill="#4ebb6d"></rect><rect width="2%" height="100%" x="70%" fill="#53be6a"></rect><rect width="2%" height="100%" x="71%" fill="#57c167"></rect><rect width="2%" height="100%" x="72%" fill="#5cc464"></rect><rect width="2%" height="100%" x="73%" fill="#61c761"></rect><rect width="2%" height="100%" x="74%" fill="#66ca5e"></rect><rect width="2%" height="100%" x="74%" fill="#6bcd5b"></rect><rect width="2%" height="100%" x="75%" fill="#6fcf58"></rect><rect width="2%" height="100%" x="76%" fill="#74d055"></rect><rect width="2%" height="100%" x="77%" fill="#79d152"></rect><rect width="2%" height="100%" x="77%" fill="#7dd24f"></rect><rect width="2%" height="100%" x="78%" fill="#82d34c"></rect><rect width="2%" height="100%" x="79%" fill="#87d449"></rect><rect width="2%" height="100%" x="80%" fill="#8bd546"></rect><rect width="2%" height="100%" x="81%" fill="#90d643"></rect><rect width="2%" height="100%" x="81%" fill="#95d740"></rect><rect width="2%" height="100%" x="82%" fill="#99d83d"></rect><rect width="2%" height="100%" x="83%" fill="#9ed93a"></rect><rect width="2%" height="100%" x="84%" fill="#a3da37"></rect><rect width="2%" height="100%" x="85%" fill="#a7db34"></rect><rect width="2%" height="100%" x="85%" fill="#acdc31"></rect><rect width="2%" height="100%" x="86%" fill="#b1dd2e"></rect><rect width="2%" height="100%" x="87%" fill="#b5de2b"></rect><rect width="2%" height="100%" x="88%" fill="#badf2b"></rect><rect width="2%" height="100%" x="88%" fill="#bfdf2a"></rect><rect width="2%" height="100%" x="89%" fill="#c3e02a"></rect><rect width="2%" height="100%" x="90%" fill="#c8e02a"></rect><rect width="2%" height="100%" x="91%" fill="#cce129"></rect><rect width="2%" height="100%" x="92%" fill="#d1e229"></rect><rect width="2%" height="100%" x="92%" fill="#d5e228"></rect><rect width="2%" height="100%" x="93%" fill="#dae328"></rect><rect width="2%" height="100%" x="94%" fill="#dee428"></rect><rect width="2%" height="100%" x="95%" fill="#e3e427"></rect><rect width="2%" height="100%" x="96%" fill="#e7e527"></rect><rect width="2%" height="100%" x="96%" fill="#ece527"></rect><rect width="2%" height="100%" x="97%" fill="#f0e626"></rect><rect width="2%" height="100%" x="98%" fill="#f5e726"></rect><rect width="2%" height="100%" x="99%" fill="#f9e725"></rect><rect width="2%" height="100%" x="100%" fill="#fee825"></rect><text x="0%" y="95%" fill="rgb(255,255,255)" text-anchor="start" style="font-family:monospace;font-size:smaller">0</text><text x="12%" y="95%" fill="rgb(255,255,255)" text-anchor="middle" style="font-family:monospace;font-size:smaller">0.13</text><text x="25%" y="95%" fill="rgb(255,255,255)" text-anchor="middle" style="font-family:monospace;font-size:smaller">0.25</text><text x="37%" y="95%" fill="rgb(255,255,255)" text-anchor="middle" style="font-family:monospace;font-size:smaller">0.38</text><text x="50%" y="95%" fill="rgb(255,255,255)" text-anchor="middle" style="font-family:monospace;font-size:smaller">0.5</text><text x="62%" y="95%" fill="rgb(255,255,255)" text-anchor="middle" style="font-family:monospace;font-size:smaller">0.63</text><text x="75%" y="95%" fill="rgb(255,255,255)" text-anchor="middle" style="font-family:monospace;font-size:smaller">0.75</text><text x="87%" y="95%" fill="rgb(0,0,0)" text-anchor="middle" style="font-family:monospace;font-size:smaller">0.88</text><text x="100%" y="95%" fill="rgb(0,0,0)" text-anchor="end" style="font-family:monospace;font-size:smaller">1</text></svg>