<svg xmlns="http://www.w3.org/2000/svg" width="256px" height="22px"><rect width="2%" height="100%" x="0%" fill="#3b6c8f"></rect><rect width="2%" height="100%" x="0%" fill="#3b6e8f"></rect><rect width="2%" height="100%" x="1%" fill="#3b708f"></rect><rect width="2%" height="100%" x="2%" fill="#3b718f"></rect><rect width="2%" height="100%" x="3%" fill="#3b738f"></rect><rect width="2%" height="100%" x="3%" fill="#3b7590"></rect><rect width="2%" height="100%" x="4%" fill="#3b7690"></rect><rect width="2%" height="100%" x="5%" fill="#3b7890"></rect><rect width="2%" height="100%" x="6%" fill="#3c7a90"></rect><rect width="2%" height="100%" x="7%" fill="#3c7b8f"></rect><rect width="2%" height="100%" x="7%" fill="#3c7d8f"></rect><rect width="2%" height="100%" x="8%" fill="#3c7f8f"></rect><rect width="2%" height="100%" x="9%" fill="#3c808f"></rect><rect width="2%" height="100%" x="10%" fill="#3c828f"></rect><rect width="2%" height="100%" x="11%" fill="#3d838e"></rect><rect width="2%" height="100%" x="11%" fill="#3d858e"></rect><rect width="2%" height="100%" x="12%" fill="#3d868e"></rect><rect width="2%" height="100%" x="13%" fill="#3e888e"></rect><rect width="2%" height="100%" x="14%" fill="#3e8a8d"></rect><rect width="2%" height="100%" x="14%" fill="#3f8b8d"></rect><rect width="2%" height="100%" x="15%" fill="#3f8d8c"></rect><rect width="2%" height="100%" x="16%" fill="#408e8c"></rect><rect width="2%" height="100%" x="17%" fill="#408f8b"></rect><rect width="2%" height="100%" x="18%" fill="#41918b"></rect><rect width="2%" height="100%" x="18%" fill="#41928a"></rect><rect width="2%" height="100%" x="19%" fill="#42948a"></rect><rect width="2%" height="100%" x="20%" fill="#439589"></rect><rect width="2%" height="100%" x="21%" fill="#439689"></rect><rect width="2%" height="100%" x="22%" fill="#449888"></rect><rect width="2%" height="100%" x="22%" fill="#459988"></rect><rect width="2%" height="100%" x="23%" fill="#469a87"></rect><rect width="2%" height="100%" x="24%" fill="#479c87"></rect><rect width="2%" height="100%" x="25%" fill="#489d86"></rect><rect width="2%" height="100%" x="25%" fill="#499e85"></rect><rect width="2%" height="100%" x="26%" fill="#4a9f85"></rect><rect width="2%" height="100%" x="27%" fill="#4ba084"></rect><rect width="2%" height="100%" x="28%" fill="#4ca284"></rect><rect width="2%" height="100%" x="29%" fill="#4da383"></rect><rect width="2%" height="100%" x="29%" fill="#4ea482"></rect><rect width="2%" height="100%" x="30%" fill="#50a582"></rect><rect width="2%" height="100%" x="31%" fill="#51a681"></rect><rect width="2%" height="100%" x="32%" fill="#52a781"></rect><rect width="2%" height="100%" x="33%" fill="#53a880"></rect><rect width="2%" height="100%" x="33%" fill="#55a97f"></rect><rect width="2%" height="100%" x="34%" fill="#56aa7f"></rect><rect width="2%" height="100%" x="35%" fill="#58ab7e"></rect><rect width="2%" height="100%" x="36%" fill="#59ac7e"></rect><rect width="2%" height="100%" x="37%" fill="#5bad7d"></rect><rect width="2%" height="100%" x="37%" fill="#5cae7d"></rect><rect width="2%" height="100%" x="38%" fill="#5eaf7c"></rect><rect width="2%" height="100%" x="39%" fill="#5faf7c"></rect><rect width="2%" height="100%" x="40%" fill="#61b07b"></rect><rect width="2%" height="100%" x="40%" fill="#63b17b"></rect><rect width="2%" height="100%" x="41%" fill="#64b27b"></rect><rect width="2%" height="100%" x="42%" fill="#66b37a"></rect><rect width="2%" height="100%" x="43%" fill="#68b37a"></rect><rect width="2%" height="100%" x="44%" fill="#6ab479"></rect><rect width="2%" height="100%" x="44%" fill="#6bb579"></rect><rect width="2%" height="100%" x="45%" fill="#6db579"></rect><rect width="2%" height="100%" x="46%" fill="#6fb679"></rect><rect width="2%" height="100%" x="47%" fill="#71b778"></rect><rect width="2%" height="100%" x="48%" fill="#73b778"></rect><rect width="2%" height="100%" x="48%" fill="#75b878"></rect><rect width="2%" height="100%" x="49%" fill="#77b878"></rect><rect width="2%" height="100%" x="50%" fill="#79b978"></rect><rect width="2%" height="100%" x="51%" fill="#7bb978"></rect><rect width="2%" height="100%" x="51%" fill="#7dba78"></rect><rect width="2%" height="100%" x="52%" fill="#7fba78"></rect><rect width="2%" height="100%" x="53%" fill="#81bb78"></rect><rect width="2%" height="100%" x="54%" fill="#83bb78"></rect><rect width="2%" height="100%" x="55%" fill="#85bc78"></rect><rect width="2%" height="100%" x="55%" fill="#87bc78"></rect><rect width="2%" height="100%" x="56%" fill="#89bd79"></rect><rect width="2%" height="100%" x="57%" fill="#8bbd79"></rect><rect width="2%" height="100%" x="58%" fill="#8ebd79"></rect><rect width="2%" height="100%" x="59%" fill="#90be79"></rect><rect width="2%" height="100%" x="59%" fill="#92be7a"></rect><rect width="2%" height="100%" x="60%" fill="#94be7a"></rect><rect width="2%" height="100%" x="61%" fill="#96bf7b"></rect><rect width="2%" height="100%" x="62%" fill="#98bf7b"></rect><rect width="2%" height="100%" x="62%" fill="#9abf7c"></rect><rect width="2%" height="100%" x="63%" fill="#9cc07c"></rect><rect width="2%" height="100%" x="64%" fill="#9fc07d"></rect><rect width="2%" height="100%" x="65%" fill="#a1c07e"></rect><rect width="2%" height="100%" x="66%" fill="#a3c17e"></rect><rect width="2%" height="100%" x="66%" fill="#a5c17f"></rect><rect width="2%" height="100%" x="67%" fill="#a7c180"></rect><rect width="2%" height="100%" x="68%" fill="#a9c181"></rect><rect width="2%" height="100%" x="69%" fill="#abc281"></rect><rect width="2%" height="100%" x="70%" fill="#adc282"></rect><rect width="2%" height="100%" x="70%" fill="#afc283"></rect><rect width="2%" height="100%" x="71%" fill="#b1c284"></rect><rect width="2%" height="100%" x="72%" fill="#b3c385"></rect><rect width="2%" height="100%" x="73%" fill="#b6c386"></rect><rect width="2%" height="100%" x="74%" fill="#b8c387"></rect><rect width="2%" height="100%" x="74%" fill="#bac389"></rect><rect width="2%" height="100%" x="75%" fill="#bbc48a"></rect><rect width="2%" height="100%" x="76%" fill="#bdc48b"></rect><rect width="2%" height="100%" x="77%" fill="#bfc48c"></rect><rect width="2%" height="100%" x="77%" fill="#c1c48d"></rect><rect width="2%" height="100%" x="78%" fill="#c3c58f"></rect><rect width="2%" height="100%" x="79%" fill="#c5c590"></rect><rect width="2%" height="100%" x="80%" fill="#c7c591"></rect><rect width="2%" height="100%" x="81%" fill="#c9c693"></rect><rect width="2%" height="100%" x="81%" fill="#cbc694"></rect><rect width="2%" height="100%" x="82%" fill="#ccc696"></rect><rect width="2%" height="100%" x="83%" fill="#cec697"></rect><rect width="2%" height="100%" x="84%" fill="#d0c799"></rect><rect width="2%" height="100%" x="85%" fill="#d1c79a"></rect><rect width="2%" height="100%" x="85%" fill="#d3c79c"></rect><rect width="2%" height="100%" x="86%" fill="#d5c89d"></rect><rect width="2%" height="100%" x="87%" fill="#d6c89f"></rect><rect width="2%" height="100%" x="88%" fill="#d8c8a1"></rect><rect width="2%" height="100%" x="88%" fill="#d9c9a2"></rect><rect width="2%" height="100%" x="89%" fill="#dbc9a4"></rect><rect width="2%" height="100%" x="90%" fill="#dcc9a6"></rect><rect width="2%" height="100%" x="91%" fill="#decaa7"></rect><rect width="2%" height="100%" x="92%" fill="#dfcaa9"></rect><rect width="2%" height="100%" x="92%" fill="#e1cbab"></rect><rect width="2%" height="100%" x="93%" fill="#e2cbad"></rect><rect width="2%" height="100%" x="94%" fill="#e3ccae"></rect><rect width="2%" height="100%" x="95%" fill="#e4ccb0"></rect><rect width="2%" height="100%" x="96%" fill="#e6ccb2"></rect><rect width="2%" height="100%" x="96%" fill="#e7cdb4"></rect><rect width="2%" height="100%" x="97%" fill="#e8cdb6"></rect><rect width="2%" height="100%" x="98%" fill="#e9ceb7"></rect><rect width="2%" height="100%" x="99%" fill="#eacfb9"></rect><rect width="2%" height="100%" x="100%" fill="#ebcfbb"></rect><text x="0%" y="95%" fill="rgb(255,255,255)" text-anchor="start" style="font-family:monospace;font-size:smaller">0</text><text x="100%" y="95%" fill="rgb(0,0,0)" text-anchor="end" style="font-family:monospace;font-size:smaller">1</text></svg>