<svg xmlns="http://www.w3.org/2000/svg" width="256px" height="22px"><rect width="2%" height="100%" x="0%" fill="#fff7ec"></rect><rect width="2%" height="100%" x="0%" fill="#fff7ec"></rect><rect width="2%" height="100%" x="1%" fill="#fff7ec"></rect><rect width="2%" height="100%" x="2%" fill="#fff7ec"></rect><rect width="2%" height="100%" x="3%" fill="#fff7ec"></rect><rect width="2%" height="100%" x="3%" fill="#fff7ec"></rect><rect width="2%" height="100%" x="4%" fill="#fff7ec"></rect><rect width="2%" height="100%" x="5%" fill="#fff7ec"></rect><rect width="2%" height="100%" x="6%" fill="#fff7ec"></rect><rect width="2%" height="100%" x="7%" fill="#fff7ec"></rect><rect width="2%" height="100%" x="7%" fill="#fff7ec"></rect><rect width="2%" height="100%" x="8%" fill="#fff7ec"></rect><rect width="2%" height="100%" x="9%" fill="#fff7ec"></rect><rect width="2%" height="100%" x="10%" fill="#fff7ec"></rect><rect width="2%" height="100%" x="11%" fill="#fff7ec"></rect><rect width="2%" height="100%" x="11%" fill="#fff7ec"></rect><rect width="2%" height="100%" x="12%" fill="#fff7ec"></rect><rect width="2%" height="100%" x="13%" fill="#fff7ec"></rect><rect width="2%" height="100%" x="14%" fill="#fff7ec"></rect><rect width="2%" height="100%" x="14%" fill="#fff7ec"></rect><rect width="2%" height="100%" x="15%" fill="#fff7ec"></rect><rect width="2%" height="100%" x="16%" fill="#fff7ec"></rect><rect width="2%" height="100%" x="17%" fill="#fff7ec"></rect><rect width="2%" height="100%" x="18%" fill="#fff7ec"></rect><rect width="2%" height="100%" x="18%" fill="#fff7ec"></rect><rect width="2%" height="100%" x="19%" fill="#fff7ec"></rect><rect width="2%" height="100%" x="20%" fill="#fdd49e"></rect><rect width="2%" height="100%" x="21%" fill="#fdd49e"></rect><rect width="2%" height="100%" x="22%" fill="#fdd49e"></rect><rect width="2%" height="100%" x="22%" fill="#fdd49e"></rect><rect width="2%" height="100%" x="23%" fill="#fdd49e"></rect><rect width="2%" height="100%" x="24%" fill="#fdd49e"></rect><rect width="2%" height="100%" x="25%" fill="#fdd49e"></rect><rect width="2%" height="100%" x="25%" fill="#fdd49e"></rect><rect width="2%" height="100%" x="26%" fill="#fdd49e"></rect><rect width="2%" height="100%" x="27%" fill="#fdd49e"></rect><rect width="2%" height="100%" x="28%" fill="#fdd49e"></rect><rect width="2%" height="100%" x="29%" fill="#fdd49e"></rect><rect width="2%" height="100%" x="29%" fill="#fdd49e"></rect><rect width="2%" height="100%" x="30%" fill="#fdd49e"></rect><rect width="2%" height="100%" x="31%" fill="#fdd49e"></rect><rect width="2%" height="100%" x="32%" fill="#fdd49e"></rect><rect width="2%" height="100%" x="33%" fill="#fdd49e"></rect><rect width="2%" height="100%" x="33%" fill="#fdd49e"></rect><rect width="2%" height="100%" x="34%" fill="#fdd49e"></rect><rect width="2%" height="100%" x="35%" fill="#fdd49e"></rect><rect width="2%" height="100%" x="36%" fill="#fdd49e"></rect><rect width="2%" height="100%" x="37%" fill="#fdd49e"></rect><rect width="2%" height="100%" x="37%" fill="#fdd49e"></rect><rect width="2%" height="100%" x="38%" fill="#fdd49e"></rect><rect width="2%" height="100%" x="39%" fill="#fdd49e"></rect><rect width="2%" height="100%" x="40%" fill="#fc8d59"></rect><rect width="2%" height="100%" x="40%" fill="#fc8d59"></rect><rect width="2%" height="100%" x="41%" fill="#fc8d59"></rect><rect width="2%" height="100%" x="42%" fill="#fc8d59"></rect><rect width="2%" height="100%" x="43%" fill="#fc8d59"></rect><rect width="2%" height="100%" x="44%" fill="#fc8d59"></rect><rect width="2%" height="100%" x="44%" fill="#fc8d59"></rect><rect width="2%" height="100%" x="45%" fill="#fc8d59"></rect><rect width="2%" height="100%" x="46%" fill="#fc8d59"></rect><rect width="2%" height="100%" x="47%" fill="#fc8d59"></rect><rect width="2%" height="100%" x="48%" fill="#fc8d59"></rect><rect width="2%" height="100%" x="48%" fill="#fc8d59"></rect><rect width="2%" height="100%" x="49%" fill="#fc8d59"></rect><rect width="2%" height="100%" x="50%" fill="#fc8d59"></rect><rect width="2%" height="100%" x="51%" fill="#fc8d59"></rect><rect width="2%" height="100%" x="51%" fill="#fc8d59"></rect><rect width="2%" height="100%" x="52%" fill="#fc8d59"></rect><rect width="2%" height="100%" x="53%" fill="#fc8d59"></rect><rect width="2%" height="100%" x="54%" fill="#fc8d59"></rect><rect width="2%" height="100%" x="55%" fill="#fc8d59"></rect><rect width="2%" height="100%" x="55%" fill="#fc8d59"></rect><rect width="2%" height="100%" x="56%" fill="#fc8d59"></rect><rect width="2%" height="100%" x="57%" fill="#fc8d59"></rect><rect width="2%" height="100%" x="58%" fill="#fc8d59"></rect><rect width="2%" height="100%" x="59%" fill="#fc8d59"></rect><rect width="2%" height="100%" x="59%" fill="#fc8d59"></rect><rect width="2%" height="100%" x="60%" fill="#d7301f"></rect><rect width="2%" height="100%" x="61%" fill="#d7301f"></rect><rect width="2%" height="100%" x="62%" fill="#d7301f"></rect><rect width="2%" height="100%" x="62%" fill="#d7301f"></rect><rect width="2%" height="100%" x="63%" fill="#d7301f"></rect><rect width="2%" height="100%" x="64%" fill="#d7301f"></rect><rect width="2%" height="100%" x="65%" fill="#d7301f"></rect><rect width="2%" height="100%" x="66%" fill="#d7301f"></rect><rect width="2%" height="100%" x="66%" fill="#d7301f"></rect><rect width="2%" height="100%" x="67%" fill="#d7301f"></rect><rect width="2%" height="100%" x="68%" fill="#d7301f"></rect><rect width="2%" height="100%" x="69%" fill="#d7301f"></rect><rect width="2%" height="100%" x="70%" fill="#d7301f"></rect><rect width="2%" height="100%" x="70%" fill="#d7301f"></rect><rect width="2%" height="100%" x="71%" fill="#d7301f"></rect><rect width="2%" height="100%" x="72%" fill="#d7301f"></rect><rect width="2%" height="100%" x="73%" fill="#d7301f"></rect><rect width="2%" height="100%" x="74%" fill="#d7301f"></rect><rect width="2%" height="100%" x="74%" fill="#d7301f"></rect><rect width="2%" height="100%" x="75%" fill="#d7301f"></rect><rect width="2%" height="100%" x="76%" fill="#d7301f"></rect><rect width="2%" height="100%" x="77%" fill="#d7301f"></rect><rect width="2%" height="100%" x="77%" fill="#d7301f"></rect><rect width="2%" height="100%" x="78%" fill="#d7301f"></rect><rect width="2%" height="100%" x="79%" fill="#d7301f"></rect><rect width="2%" height="100%" x="80%" fill="#7f0000"></rect><rect width="2%" height="100%" x="81%" fill="#7f0000"></rect><rect width="2%" height="100%" x="81%" fill="#7f0000"></rect><rect width="2%" height="100%" x="82%" fill="#7f0000"></rect><rect width="2%" height="100%" x="83%" fill="#7f0000"></rect><rect width="2%" height="100%" x="84%" fill="#7f0000"></rect><rect width="2%" height="100%" x="85%" fill="#7f0000"></rect><rect width="2%" height="100%" x="85%" fill="#7f0000"></rect><rect width="2%" height="100%" x="86%" fill="#7f0000"></rect><rect width="2%" height="100%" x="87%" fill="#7f0000"></rect><rect width="2%" height="100%" x="88%" fill="#7f0000"></rect><rect width="2%" height="100%" x="88%" fill="#7f0000"></rect><rect width="2%" height="100%" x="89%" fill="#7f0000"></rect><rect width="2%" height="100%" x="90%" fill="#7f0000"></rect><rect width="2%" height="100%" x="91%" fill="#7f0000"></rect><rect width="2%" height="100%" x="92%" fill="#7f0000"></rect><rect width="2%" height="100%" x="92%" fill="#7f0000"></rect><rect width="2%" height="100%" x="93%" fill="#7f0000"></rect><rect width="2%" height="100%" x="94%" fill="#7f0000"></rect><rect width="2%" height="100%" x="95%" fill="#7f0000"></rect><rect width="2%" height="100%" x="96%" fill="#7f0000"></rect><rect width="2%" height="100%" x="96%" fill="#7f0000"></rect><rect width="2%" height="100%" x="97%" fill="#7f0000"></rect><rect width="2%" height="100%" x="98%" fill="#7f0000"></rect><rect width="2%" height="100%" x="99%" fill="#7f0000"></rect><rect width="2%" height="100%" x="100%" fill="#7f0000"></rect><text x="0%" y="95%" fill="rgb(0,0,0)" text-anchor="start" style="font-family:monospace;font-size:smaller">0</text><text x="12%" y="95%" fill="rgb(0,0,0)" text-anchor="middle" style="font-family:monospace;font-size:smaller">0.13</text><text x="25%" y="95%" fill="rgb(0,0,0)" text-anchor="middle" style="font-family:monospace;font-size:smaller">0.25</text><text x="37%" y="95%" fill="rgb(0,0,0)" text-anchor="middle" style="font-family:monospace;font-size:smaller">0.38</text><text x="50%" y="95%" fill="rgb(255,255,255)" text-anchor="middle" style="font-family:monospace;font-size:smaller">0.5</text><text x="62%" y="95%" fill="rgb(255,255,255)" text-anchor="middle" style="font-family:monospace;font-size:smaller">0.63</text><text x="75%" y="95%" fill="rgb(255,255,255)" text-anchor="middle" style="font-family:monospace;font-size:smaller">0.75</text><text x="87%" y="95%" fill="rgb(255,255,255)" text-anchor="middle" style="font-family:monospace;font-size:smaller">0.88</text><text x="100%" y="95%" fill="rgb(255,255,255)" text-anchor="end" style="font-family:monospace;font-size:smaller">1</text></svg>