<svg xmlns="http://www.w3.org/2000/svg" width="256px" height="22px"><rect width="2%" height="100%" x="0%" fill="#000000"></rect><rect width="2%" height="100%" x="0%" fill="#080201"></rect><rect width="2%" height="100%" x="1%" fill="#0e0401"></rect><rect width="2%" height="100%" x="2%" fill="#140602"></rect><rect width="2%" height="100%" x="3%" fill="#180802"></rect><rect width="2%" height="100%" x="3%" fill="#1b0a03"></rect><rect width="2%" height="100%" x="4%" fill="#1f0c03"></rect><rect width="2%" height="100%" x="5%" fill="#210e04"></rect><rect width="2%" height="100%" x="6%" fill="#240f04"></rect><rect width="2%" height="100%" x="7%" fill="#271005"></rect><rect width="2%" height="100%" x="7%" fill="#2a1106"></rect><rect width="2%" height="100%" x="8%" fill="#2d1206"></rect><rect width="2%" height="100%" x="9%" fill="#301307"></rect><rect width="2%" height="100%" x="10%" fill="#331407"></rect><rect width="2%" height="100%" x="11%" fill="#361508"></rect><rect width="2%" height="100%" x="11%" fill="#391609"></rect><rect width="2%" height="100%" x="12%" fill="#3c1609"></rect><rect width="2%" height="100%" x="13%" fill="#3f170a"></rect><rect width="2%" height="100%" x="14%" fill="#42180a"></rect><rect width="2%" height="100%" x="14%" fill="#45190b"></rect><rect width="2%" height="100%" x="15%" fill="#481a0b"></rect><rect width="2%" height="100%" x="16%" fill="#4b1b0b"></rect><rect width="2%" height="100%" x="17%" fill="#4f1c0c"></rect><rect width="2%" height="100%" x="18%" fill="#521d0c"></rect><rect width="2%" height="100%" x="18%" fill="#551e0c"></rect><rect width="2%" height="100%" x="19%" fill="#581f0d"></rect><rect width="2%" height="100%" x="20%" fill="#5b200d"></rect><rect width="2%" height="100%" x="21%" fill="#5e210d"></rect><rect width="2%" height="100%" x="22%" fill="#60220d"></rect><rect width="2%" height="100%" x="22%" fill="#63230d"></rect><rect width="2%" height="100%" x="23%" fill="#66240d"></rect><rect width="2%" height="100%" x="24%" fill="#69250e"></rect><rect width="2%" height="100%" x="25%" fill="#6c260e"></rect><rect width="2%" height="100%" x="25%" fill="#6f270e"></rect><rect width="2%" height="100%" x="26%" fill="#72280e"></rect><rect width="2%" height="100%" x="27%" fill="#75290e"></rect><rect width="2%" height="100%" x="28%" fill="#782a0e"></rect><rect width="2%" height="100%" x="29%" fill="#7b2c0e"></rect><rect width="2%" height="100%" x="29%" fill="#7d2d0e"></rect><rect width="2%" height="100%" x="30%" fill="#802e0e"></rect><rect width="2%" height="100%" x="31%" fill="#832f0e"></rect><rect width="2%" height="100%" x="32%" fill="#86310e"></rect><rect width="2%" height="100%" x="33%" fill="#88320e"></rect><rect width="2%" height="100%" x="33%" fill="#8b330e"></rect><rect width="2%" height="100%" x="34%" fill="#8e350e"></rect><rect width="2%" height="100%" x="35%" fill="#90360e"></rect><rect width="2%" height="100%" x="36%" fill="#93370e"></rect><rect width="2%" height="100%" x="37%" fill="#96390e"></rect><rect width="2%" height="100%" x="37%" fill="#983a0d"></rect><rect width="2%" height="100%" x="38%" fill="#9b3c0d"></rect><rect width="2%" height="100%" x="39%" fill="#9d3d0d"></rect><rect width="2%" height="100%" x="40%" fill="#a03f0d"></rect><rect width="2%" height="100%" x="40%" fill="#a2400d"></rect><rect width="2%" height="100%" x="41%" fill="#a5420d"></rect><rect width="2%" height="100%" x="42%" fill="#a7430d"></rect><rect width="2%" height="100%" x="43%" fill="#aa450d"></rect><rect width="2%" height="100%" x="44%" fill="#ac460c"></rect><rect width="2%" height="100%" x="44%" fill="#af480c"></rect><rect width="2%" height="100%" x="45%" fill="#b14a0c"></rect><rect width="2%" height="100%" x="46%" fill="#b34b0c"></rect><rect width="2%" height="100%" x="47%" fill="#b54d0c"></rect><rect width="2%" height="100%" x="48%" fill="#b84f0c"></rect><rect width="2%" height="100%" x="48%" fill="#ba500b"></rect><rect width="2%" height="100%" x="49%" fill="#bc520b"></rect><rect width="2%" height="100%" x="50%" fill="#be540b"></rect><rect width="2%" height="100%" x="51%" fill="#c0560b"></rect><rect width="2%" height="100%" x="51%" fill="#c3570a"></rect><rect width="2%" height="100%" x="52%" fill="#c5590a"></rect><rect width="2%" height="100%" x="53%" fill="#c75b0a"></rect><rect width="2%" height="100%" x="54%" fill="#c95d09"></rect><rect width="2%" height="100%" x="55%" fill="#cb5f09"></rect><rect width="2%" height="100%" x="55%" fill="#cd6109"></rect><rect width="2%" height="100%" x="56%" fill="#cf6208"></rect><rect width="2%" height="100%" x="57%" fill="#d16408"></rect><rect width="2%" height="100%" x="58%" fill="#d26608"></rect><rect width="2%" height="100%" x="59%" fill="#d46807"></rect><rect width="2%" height="100%" x="59%" fill="#d66a07"></rect><rect width="2%" height="100%" x="60%" fill="#d86c07"></rect><rect width="2%" height="100%" x="61%" fill="#da6e06"></rect><rect width="2%" height="100%" x="62%" fill="#db7006"></rect><rect width="2%" height="100%" x="62%" fill="#dd7206"></rect><rect width="2%" height="100%" x="63%" fill="#df7405"></rect><rect width="2%" height="100%" x="64%" fill="#e07605"></rect><rect width="2%" height="100%" x="65%" fill="#e27805"></rect><rect width="2%" height="100%" x="66%" fill="#e37a04"></rect><rect width="2%" height="100%" x="66%" fill="#e57c04"></rect><rect width="2%" height="100%" x="67%" fill="#e67e03"></rect><rect width="2%" height="100%" x="68%" fill="#e88003"></rect><rect width="2%" height="100%" x="69%" fill="#e98203"></rect><rect width="2%" height="100%" x="70%" fill="#ea8402"></rect><rect width="2%" height="100%" x="70%" fill="#ec8602"></rect><rect width="2%" height="100%" x="71%" fill="#ed8802"></rect><rect width="2%" height="100%" x="72%" fill="#ee8a01"></rect><rect width="2%" height="100%" x="73%" fill="#ef8c01"></rect><rect width="2%" height="100%" x="74%" fill="#f18e01"></rect><rect width="2%" height="100%" x="74%" fill="#f29100"></rect><rect width="2%" height="100%" x="75%" fill="#f39300"></rect><rect width="2%" height="100%" x="76%" fill="#f49500"></rect><rect width="2%" height="100%" x="77%" fill="#f59700"></rect><rect width="2%" height="100%" x="77%" fill="#f69900"></rect><rect width="2%" height="100%" x="78%" fill="#f79b00"></rect><rect width="2%" height="100%" x="79%" fill="#f89d00"></rect><rect width="2%" height="100%" x="80%" fill="#f9a000"></rect><rect width="2%" height="100%" x="81%" fill="#f9a200"></rect><rect width="2%" height="100%" x="81%" fill="#faa400"></rect><rect width="2%" height="100%" x="82%" fill="#fba600"></rect><rect width="2%" height="100%" x="83%" fill="#fca800"></rect><rect width="2%" height="100%" x="84%" fill="#fcaa00"></rect><rect width="2%" height="100%" x="85%" fill="#fdad00"></rect><rect width="2%" height="100%" x="85%" fill="#fdaf00"></rect><rect width="2%" height="100%" x="86%" fill="#feb100"></rect><rect width="2%" height="100%" x="87%" fill="#feb300"></rect><rect width="2%" height="100%" x="88%" fill="#ffb500"></rect><rect width="2%" height="100%" x="88%" fill="#ffb800"></rect><rect width="2%" height="100%" x="89%" fill="#ffba00"></rect><rect width="2%" height="100%" x="90%" fill="#ffbc00"></rect><rect width="2%" height="100%" x="91%" fill="#ffbe00"></rect><rect width="2%" height="100%" x="92%" fill="#ffc100"></rect><rect width="2%" height="100%" x="92%" fill="#ffc300"></rect><rect width="2%" height="100%" x="93%" fill="#ffc500"></rect><rect width="2%" height="100%" x="94%" fill="#ffc700"></rect><rect width="2%" height="100%" x="95%" fill="#ffca00"></rect><rect width="2%" height="100%" x="96%" fill="#ffcc00"></rect><rect width="2%" height="100%" x="96%" fill="#ffce00"></rect><rect width="2%" height="100%" x="97%" fill="#ffd000"></rect><rect width="2%" height="100%" x="98%" fill="#ffd200"></rect><rect width="2%" height="100%" x="99%" fill="#ffd500"></rect><rect width="2%" height="100%" x="100%" fill="#ffd700"></rect><text x="0%" y="95%" fill="rgb(255,255,255)" text-anchor="start" style="font-family:monospace;font-size:smaller">0</text><text x="100%" y="95%" fill="rgb(0,0,0)" text-anchor="end" style="font-family:monospace;font-size:smaller">1</text></svg>