<svg xmlns="http://www.w3.org/2000/svg" width="256px" height="22px"><rect width="2%" height="100%" x="0%" fill="#ffffe5"></rect><rect width="2%" height="100%" x="0%" fill="#f9fdc6"></rect><rect width="2%" height="100%" x="1%" fill="#f7fcb9"></rect><rect width="2%" height="100%" x="2%" fill="#f0f9b4"></rect><rect width="2%" height="100%" x="3%" fill="#eaf7b0"></rect><rect width="2%" height="100%" x="3%" fill="#e5f5ac"></rect><rect width="2%" height="100%" x="4%" fill="#e1f3a9"></rect><rect width="2%" height="100%" x="5%" fill="#ddf1a6"></rect><rect width="2%" height="100%" x="6%" fill="#d9f0a3"></rect><rect width="2%" height="100%" x="7%" fill="#d3eea0"></rect><rect width="2%" height="100%" x="7%" fill="#ceeb9e"></rect><rect width="2%" height="100%" x="8%" fill="#c9e99c"></rect><rect width="2%" height="100%" x="9%" fill="#c5e799"></rect><rect width="2%" height="100%" x="10%" fill="#c0e597"></rect><rect width="2%" height="100%" x="11%" fill="#bce495"></rect><rect width="2%" height="100%" x="11%" fill="#b8e293"></rect><rect width="2%" height="100%" x="12%" fill="#b4e091"></rect><rect width="2%" height="100%" x="13%" fill="#b0de90"></rect><rect width="2%" height="100%" x="14%" fill="#acdd8e"></rect><rect width="2%" height="100%" x="14%" fill="#a8db8c"></rect><rect width="2%" height="100%" x="15%" fill="#a4d98a"></rect><rect width="2%" height="100%" x="16%" fill="#a0d789"></rect><rect width="2%" height="100%" x="17%" fill="#9cd587"></rect><rect width="2%" height="100%" x="18%" fill="#98d486"></rect><rect width="2%" height="100%" x="18%" fill="#94d284"></rect><rect width="2%" height="100%" x="19%" fill="#90d082"></rect><rect width="2%" height="100%" x="20%" fill="#8ccf81"></rect><rect width="2%" height="100%" x="21%" fill="#89cd80"></rect><rect width="2%" height="100%" x="22%" fill="#85cc7e"></rect><rect width="2%" height="100%" x="22%" fill="#81ca7d"></rect><rect width="2%" height="100%" x="23%" fill="#7ec97b"></rect><rect width="2%" height="100%" x="24%" fill="#7bc77a"></rect><rect width="2%" height="100%" x="25%" fill="#77c679"></rect><rect width="2%" height="100%" x="25%" fill="#74c477"></rect><rect width="2%" height="100%" x="26%" fill="#70c275"></rect><rect width="2%" height="100%" x="27%" fill="#6dc173"></rect><rect width="2%" height="100%" x="28%" fill="#6abf72"></rect><rect width="2%" height="100%" x="29%" fill="#67bd70"></rect><rect width="2%" height="100%" x="29%" fill="#63bc6e"></rect><rect width="2%" height="100%" x="30%" fill="#60ba6d"></rect><rect width="2%" height="100%" x="31%" fill="#5db96b"></rect><rect width="2%" height="100%" x="32%" fill="#5ab76a"></rect><rect width="2%" height="100%" x="33%" fill="#57b668"></rect><rect width="2%" height="100%" x="33%" fill="#54b467"></rect><rect width="2%" height="100%" x="34%" fill="#51b365"></rect><rect width="2%" height="100%" x="35%" fill="#4eb164"></rect><rect width="2%" height="100%" x="36%" fill="#4bb062"></rect><rect width="2%" height="100%" x="37%" fill="#48af61"></rect><rect width="2%" height="100%" x="37%" fill="#45ad5f"></rect><rect width="2%" height="100%" x="38%" fill="#43ac5e"></rect><rect width="2%" height="100%" x="39%" fill="#40aa5c"></rect><rect width="2%" height="100%" x="40%" fill="#3fa85b"></rect><rect width="2%" height="100%" x="40%" fill="#3da65a"></rect><rect width="2%" height="100%" x="41%" fill="#3ca459"></rect><rect width="2%" height="100%" x="42%" fill="#3ba357"></rect><rect width="2%" height="100%" x="43%" fill="#39a156"></rect><rect width="2%" height="100%" x="44%" fill="#389f55"></rect><rect width="2%" height="100%" x="44%" fill="#369d54"></rect><rect width="2%" height="100%" x="45%" fill="#359b52"></rect><rect width="2%" height="100%" x="46%" fill="#339951"></rect><rect width="2%" height="100%" x="47%" fill="#329850"></rect><rect width="2%" height="100%" x="48%" fill="#31964f"></rect><rect width="2%" height="100%" x="48%" fill="#2f944e"></rect><rect width="2%" height="100%" x="49%" fill="#2e924d"></rect><rect width="2%" height="100%" x="50%" fill="#2d914b"></rect><rect width="2%" height="100%" x="51%" fill="#2b8f4a"></rect><rect width="2%" height="100%" x="51%" fill="#2a8d49"></rect><rect width="2%" height="100%" x="52%" fill="#298b48"></rect><rect width="2%" height="100%" x="53%" fill="#278a47"></rect><rect width="2%" height="100%" x="54%" fill="#268846"></rect><rect width="2%" height="100%" x="55%" fill="#258645"></rect><rect width="2%" height="100%" x="55%" fill="#248543"></rect><rect width="2%" height="100%" x="56%" fill="#228343"></rect><rect width="2%" height="100%" x="57%" fill="#218242"></rect><rect width="2%" height="100%" x="58%" fill="#1f8142"></rect><rect width="2%" height="100%" x="59%" fill="#1e8041"></rect><rect width="2%" height="100%" x="59%" fill="#1c7f41"></rect><rect width="2%" height="100%" x="60%" fill="#1b7e40"></rect><rect width="2%" height="100%" x="61%" fill="#1a7c40"></rect><rect width="2%" height="100%" x="62%" fill="#187b3f"></rect><rect width="2%" height="100%" x="62%" fill="#177a3f"></rect><rect width="2%" height="100%" x="63%" fill="#15793e"></rect><rect width="2%" height="100%" x="64%" fill="#14783e"></rect><rect width="2%" height="100%" x="65%" fill="#13773d"></rect><rect width="2%" height="100%" x="66%" fill="#11763d"></rect><rect width="2%" height="100%" x="66%" fill="#10753c"></rect><rect width="2%" height="100%" x="67%" fill="#0f743c"></rect><rect width="2%" height="100%" x="68%" fill="#0d733c"></rect><rect width="2%" height="100%" x="69%" fill="#0c723b"></rect><rect width="2%" height="100%" x="70%" fill="#0b703b"></rect><rect width="2%" height="100%" x="70%" fill="#096f3a"></rect><rect width="2%" height="100%" x="71%" fill="#086e3a"></rect><rect width="2%" height="100%" x="72%" fill="#076d39"></rect><rect width="2%" height="100%" x="73%" fill="#056c39"></rect><rect width="2%" height="100%" x="74%" fill="#046b38"></rect><rect width="2%" height="100%" x="74%" fill="#036a38"></rect><rect width="2%" height="100%" x="75%" fill="#026938"></rect><rect width="2%" height="100%" x="76%" fill="#006837"></rect><rect width="2%" height="100%" x="77%" fill="#006737"></rect><rect width="2%" height="100%" x="77%" fill="#006636"></rect><rect width="2%" height="100%" x="78%" fill="#006536"></rect><rect width="2%" height="100%" x="79%" fill="#006335"></rect><rect width="2%" height="100%" x="80%" fill="#006235"></rect><rect width="2%" height="100%" x="81%" fill="#006134"></rect><rect width="2%" height="100%" x="81%" fill="#006034"></rect><rect width="2%" height="100%" x="82%" fill="#005e33"></rect><rect width="2%" height="100%" x="83%" fill="#005d33"></rect><rect width="2%" height="100%" x="84%" fill="#005c32"></rect><rect width="2%" height="100%" x="85%" fill="#005b32"></rect><rect width="2%" height="100%" x="85%" fill="#005a31"></rect><rect width="2%" height="100%" x="86%" fill="#005831"></rect><rect width="2%" height="100%" x="87%" fill="#005730"></rect><rect width="2%" height="100%" x="88%" fill="#005630"></rect><rect width="2%" height="100%" x="88%" fill="#00552f"></rect><rect width="2%" height="100%" x="89%" fill="#00542f"></rect><rect width="2%" height="100%" x="90%" fill="#00532e"></rect><rect width="2%" height="100%" x="91%" fill="#00512e"></rect><rect width="2%" height="100%" x="92%" fill="#00502d"></rect><rect width="2%" height="100%" x="92%" fill="#004f2d"></rect><rect width="2%" height="100%" x="93%" fill="#004e2d"></rect><rect width="2%" height="100%" x="94%" fill="#004d2c"></rect><rect width="2%" height="100%" x="95%" fill="#004c2c"></rect><rect width="2%" height="100%" x="96%" fill="#004b2b"></rect><rect width="2%" height="100%" x="96%" fill="#00492b"></rect><rect width="2%" height="100%" x="97%" fill="#00482a"></rect><rect width="2%" height="100%" x="98%" fill="#00472a"></rect><rect width="2%" height="100%" x="99%" fill="#004629"></rect><rect width="2%" height="100%" x="100%" fill="#004529"></rect><text x="0%" y="95%" fill="rgb(0,0,0)" text-anchor="start" style="font-family:monospace;font-size:smaller">0</text><text x="12%" y="95%" fill="rgb(0,0,0)" text-anchor="middle" style="font-family:monospace;font-size:smaller">0.13</text><text x="25%" y="95%" fill="rgb(255,255,255)" text-anchor="middle" style="font-family:monospace;font-size:smaller">0.25</text><text x="37%" y="95%" fill="rgb(255,255,255)" text-anchor="middle" style="font-family:monospace;font-size:smaller">0.38</text><text x="50%" y="95%" fill="rgb(255,255,255)" text-anchor="middle" style="font-family:monospace;font-size:smaller">0.5</text><text x="62%" y="95%" fill="rgb(255,255,255)" text-anchor="middle" style="font-family:monospace;font-size:smaller">0.63</text><text x="75%" y="95%" fill="rgb(255,255,255)" text-anchor="middle" style="font-family:monospace;font-size:smaller">0.75</text><text x="87%" y="95%" fill="rgb(255,255,255)" text-anchor="middle" style="font-family:monospace;font-size:smaller">0.88</text><text x="100%" y="95%" fill="rgb(255,255,255)" text-anchor="end" style="font-family:monospace;font-size:smaller">1</text></svg>