<svg xmlns="http://www.w3.org/2000/svg" width="256px" height="22px"><rect width="2%" height="100%" x="0%" fill="#010000"></rect><rect width="2%" height="100%" x="0%" fill="#0d0000"></rect><rect width="2%" height="100%" x="1%" fill="#160000"></rect><rect width="2%" height="100%" x="2%" fill="#1c0000"></rect><rect width="2%" height="100%" x="3%" fill="#220000"></rect><rect width="2%" height="100%" x="3%" fill="#280000"></rect><rect width="2%" height="100%" x="4%" fill="#2b0000"></rect><rect width="2%" height="100%" x="5%" fill="#2e0000"></rect><rect width="2%" height="100%" x="6%" fill="#310000"></rect><rect width="2%" height="100%" x="7%" fill="#370000"></rect><rect width="2%" height="100%" x="7%" fill="#3a0000"></rect><rect width="2%" height="100%" x="8%" fill="#3d0000"></rect><rect width="2%" height="100%" x="9%" fill="#400000"></rect><rect width="2%" height="100%" x="10%" fill="#430000"></rect><rect width="2%" height="100%" x="11%" fill="#460000"></rect><rect width="2%" height="100%" x="11%" fill="#490000"></rect><rect width="2%" height="100%" x="12%" fill="#4c0000"></rect><rect width="2%" height="100%" x="13%" fill="#4f0000"></rect><rect width="2%" height="100%" x="14%" fill="#520000"></rect><rect width="2%" height="100%" x="14%" fill="#550000"></rect><rect width="2%" height="100%" x="15%" fill="#580000"></rect><rect width="2%" height="100%" x="16%" fill="#5b0000"></rect><rect width="2%" height="100%" x="17%" fill="#5e0000"></rect><rect width="2%" height="100%" x="18%" fill="#610000"></rect><rect width="2%" height="100%" x="18%" fill="#640000"></rect><rect width="2%" height="100%" x="19%" fill="#670000"></rect><rect width="2%" height="100%" x="20%" fill="#6a0000"></rect><rect width="2%" height="100%" x="21%" fill="#6d0000"></rect><rect width="2%" height="100%" x="22%" fill="#700000"></rect><rect width="2%" height="100%" x="22%" fill="#760000"></rect><rect width="2%" height="100%" x="23%" fill="#790000"></rect><rect width="2%" height="100%" x="24%" fill="#7c0000"></rect><rect width="2%" height="100%" x="25%" fill="#7f0000"></rect><rect width="2%" height="100%" x="25%" fill="#820000"></rect><rect width="2%" height="100%" x="26%" fill="#850000"></rect><rect width="2%" height="100%" x="27%" fill="#880000"></rect><rect width="2%" height="100%" x="28%" fill="#8b0000"></rect><rect width="2%" height="100%" x="29%" fill="#910000"></rect><rect width="2%" height="100%" x="29%" fill="#940000"></rect><rect width="2%" height="100%" x="30%" fill="#970000"></rect><rect width="2%" height="100%" x="31%" fill="#9a0000"></rect><rect width="2%" height="100%" x="32%" fill="#9d0000"></rect><rect width="2%" height="100%" x="33%" fill="#a00000"></rect><rect width="2%" height="100%" x="33%" fill="#a60000"></rect><rect width="2%" height="100%" x="34%" fill="#a90000"></rect><rect width="2%" height="100%" x="35%" fill="#ac0000"></rect><rect width="2%" height="100%" x="36%" fill="#af0000"></rect><rect width="2%" height="100%" x="37%" fill="#b20000"></rect><rect width="2%" height="100%" x="37%" fill="#b50000"></rect><rect width="2%" height="100%" x="38%" fill="#bb0000"></rect><rect width="2%" height="100%" x="39%" fill="#be0000"></rect><rect width="2%" height="100%" x="40%" fill="#c10000"></rect><rect width="2%" height="100%" x="40%" fill="#c40000"></rect><rect width="2%" height="100%" x="41%" fill="#ca0000"></rect><rect width="2%" height="100%" x="42%" fill="#cd0000"></rect><rect width="2%" height="100%" x="43%" fill="#d00000"></rect><rect width="2%" height="100%" x="44%" fill="#d30000"></rect><rect width="2%" height="100%" x="44%" fill="#d60000"></rect><rect width="2%" height="100%" x="45%" fill="#dc0000"></rect><rect width="2%" height="100%" x="46%" fill="#df0000"></rect><rect width="2%" height="100%" x="47%" fill="#e20000"></rect><rect width="2%" height="100%" x="48%" fill="#e50000"></rect><rect width="2%" height="100%" x="48%" fill="#eb0000"></rect><rect width="2%" height="100%" x="49%" fill="#ee0000"></rect><rect width="2%" height="100%" x="50%" fill="#f10000"></rect><rect width="2%" height="100%" x="51%" fill="#f40000"></rect><rect width="2%" height="100%" x="51%" fill="#fa0000"></rect><rect width="2%" height="100%" x="52%" fill="#fd0000"></rect><rect width="2%" height="100%" x="53%" fill="#ff0c00"></rect><rect width="2%" height="100%" x="54%" fill="#ff1e00"></rect><rect width="2%" height="100%" x="55%" fill="#ff2a00"></rect><rect width="2%" height="100%" x="55%" fill="#ff3600"></rect><rect width="2%" height="100%" x="56%" fill="#ff3c00"></rect><rect width="2%" height="100%" x="57%" fill="#ff4500"></rect><rect width="2%" height="100%" x="58%" fill="#ff4b00"></rect><rect width="2%" height="100%" x="59%" fill="#ff5100"></rect><rect width="2%" height="100%" x="59%" fill="#ff5700"></rect><rect width="2%" height="100%" x="60%" fill="#ff5a00"></rect><rect width="2%" height="100%" x="61%" fill="#ff6000"></rect><rect width="2%" height="100%" x="62%" fill="#ff6600"></rect><rect width="2%" height="100%" x="62%" fill="#ff6900"></rect><rect width="2%" height="100%" x="63%" fill="#ff6f00"></rect><rect width="2%" height="100%" x="64%" fill="#ff7200"></rect><rect width="2%" height="100%" x="65%" fill="#ff7800"></rect><rect width="2%" height="100%" x="66%" fill="#ff7b00"></rect><rect width="2%" height="100%" x="66%" fill="#ff7e00"></rect><rect width="2%" height="100%" x="67%" fill="#ff8400"></rect><rect width="2%" height="100%" x="68%" fill="#ff8700"></rect><rect width="2%" height="100%" x="69%" fill="#ff8a00"></rect><rect width="2%" height="100%" x="70%" fill="#ff9000"></rect><rect width="2%" height="100%" x="70%" fill="#ff9300"></rect><rect width="2%" height="100%" x="71%" fill="#ff9600"></rect><rect width="2%" height="100%" x="72%" fill="#ff9900"></rect><rect width="2%" height="100%" x="73%" fill="#ff9f00"></rect><rect width="2%" height="100%" x="74%" fill="#ffa200"></rect><rect width="2%" height="100%" x="74%" fill="#ffa500"></rect><rect width="2%" height="100%" x="75%" fill="#ffa800"></rect><rect width="2%" height="100%" x="76%" fill="#ffab00"></rect><rect width="2%" height="100%" x="77%" fill="#ffae00"></rect><rect width="2%" height="100%" x="77%" fill="#ffb100"></rect><rect width="2%" height="100%" x="78%" fill="#ffb700"></rect><rect width="2%" height="100%" x="79%" fill="#ffba00"></rect><rect width="2%" height="100%" x="80%" fill="#ffbd00"></rect><rect width="2%" height="100%" x="81%" fill="#ffc000"></rect><rect width="2%" height="100%" x="81%" fill="#ffc300"></rect><rect width="2%" height="100%" x="82%" fill="#ffc600"></rect><rect width="2%" height="100%" x="83%" fill="#ffc900"></rect><rect width="2%" height="100%" x="84%" fill="#ffcc00"></rect><rect width="2%" height="100%" x="85%" fill="#ffcf00"></rect><rect width="2%" height="100%" x="85%" fill="#ffd200"></rect><rect width="2%" height="100%" x="86%" fill="#ffd500"></rect><rect width="2%" height="100%" x="87%" fill="#ffd800"></rect><rect width="2%" height="100%" x="88%" fill="#ffdb00"></rect><rect width="2%" height="100%" x="88%" fill="#ffe100"></rect><rect width="2%" height="100%" x="89%" fill="#ffe400"></rect><rect width="2%" height="100%" x="90%" fill="#ffe700"></rect><rect width="2%" height="100%" x="91%" fill="#ffea00"></rect><rect width="2%" height="100%" x="92%" fill="#ffed00"></rect><rect width="2%" height="100%" x="92%" fill="#fff000"></rect><rect width="2%" height="100%" x="93%" fill="#fff300"></rect><rect width="2%" height="100%" x="94%" fill="#fff600"></rect><rect width="2%" height="100%" x="95%" fill="#fff900"></rect><rect width="2%" height="100%" x="96%" fill="#fffc00"></rect><rect width="2%" height="100%" x="96%" fill="#ffff00"></rect><rect width="2%" height="100%" x="97%" fill="#ffff74"></rect><rect width="2%" height="100%" x="98%" fill="#ffffb3"></rect><rect width="2%" height="100%" x="99%" fill="#ffffdd"></rect><rect width="2%" height="100%" x="100%" fill="#fffffe"></rect><text x="0%" y="95%" fill="rgb(255,255,255)" text-anchor="start" style="font-family:monospace;font-size:smaller">0</text><text x="33%" y="95%" fill="rgb(255,255,255)" text-anchor="middle" style="font-family:monospace;font-size:smaller">0.33</text><text x="66%" y="95%" fill="rgb(255,255,255)" text-anchor="middle" style="font-family:monospace;font-size:smaller">0.67</text><text x="100%" y="95%" fill="rgb(0,0,0)" text-anchor="end" style="font-family:monospace;font-size:smaller">1</text></svg>