<svg xmlns="http://www.w3.org/2000/svg" width="256px" height="22px"><rect width="2%" height="100%" x="0%" fill="#ff2424"></rect><rect width="2%" height="100%" x="0%" fill="#ff2626"></rect><rect width="2%" height="100%" x="1%" fill="#ff2727"></rect><rect width="2%" height="100%" x="2%" fill="#ff2929"></rect><rect width="2%" height="100%" x="3%" fill="#ff2a2a"></rect><rect width="2%" height="100%" x="3%" fill="#ff2c2c"></rect><rect width="2%" height="100%" x="4%" fill="#ff2d2d"></rect><rect width="2%" height="100%" x="5%" fill="#ff2e2e"></rect><rect width="2%" height="100%" x="6%" fill="#ff3030"></rect><rect width="2%" height="100%" x="7%" fill="#ff3131"></rect><rect width="2%" height="100%" x="7%" fill="#ff3333"></rect><rect width="2%" height="100%" x="8%" fill="#ff3434"></rect><rect width="2%" height="100%" x="9%" fill="#ff3636"></rect><rect width="2%" height="100%" x="10%" fill="#ff3737"></rect><rect width="2%" height="100%" x="11%" fill="#ff3939"></rect><rect width="2%" height="100%" x="11%" fill="#ff3a3a"></rect><rect width="2%" height="100%" x="12%" fill="#ff3b3b"></rect><rect width="2%" height="100%" x="13%" fill="#ff3d3d"></rect><rect width="2%" height="100%" x="14%" fill="#ff3e3e"></rect><rect width="2%" height="100%" x="14%" fill="#ff4040"></rect><rect width="2%" height="100%" x="15%" fill="#ff4141"></rect><rect width="2%" height="100%" x="16%" fill="#ff4343"></rect><rect width="2%" height="100%" x="17%" fill="#ff4444"></rect><rect width="2%" height="100%" x="18%" fill="#ff4545"></rect><rect width="2%" height="100%" x="18%" fill="#ff4747"></rect><rect width="2%" height="100%" x="19%" fill="#ff4848"></rect><rect width="2%" height="100%" x="20%" fill="#ff4a4a"></rect><rect width="2%" height="100%" x="21%" fill="#ff4b4b"></rect><rect width="2%" height="100%" x="22%" fill="#ff4d4d"></rect><rect width="2%" height="100%" x="22%" fill="#ff4e4e"></rect><rect width="2%" height="100%" x="23%" fill="#ff4f4f"></rect><rect width="2%" height="100%" x="24%" fill="#ff5151"></rect><rect width="2%" height="100%" x="25%" fill="#ff5252"></rect><rect width="2%" height="100%" x="25%" fill="#ff5454"></rect><rect width="2%" height="100%" x="26%" fill="#ff5555"></rect><rect width="2%" height="100%" x="27%" fill="#ff5757"></rect><rect width="2%" height="100%" x="28%" fill="#ff5858"></rect><rect width="2%" height="100%" x="29%" fill="#ff5959"></rect><rect width="2%" height="100%" x="29%" fill="#ff5b5b"></rect><rect width="2%" height="100%" x="30%" fill="#ff5c5c"></rect><rect width="2%" height="100%" x="31%" fill="#ff5e5e"></rect><rect width="2%" height="100%" x="32%" fill="#ff5f5f"></rect><rect width="2%" height="100%" x="33%" fill="#ff6161"></rect><rect width="2%" height="100%" x="33%" fill="#ff6262"></rect><rect width="2%" height="100%" x="34%" fill="#ff6464"></rect><rect width="2%" height="100%" x="35%" fill="#ff6565"></rect><rect width="2%" height="100%" x="36%" fill="#ff6666"></rect><rect width="2%" height="100%" x="37%" fill="#ff6868"></rect><rect width="2%" height="100%" x="37%" fill="#ff6969"></rect><rect width="2%" height="100%" x="38%" fill="#ff6b6b"></rect><rect width="2%" height="100%" x="39%" fill="#ff6c6c"></rect><rect width="2%" height="100%" x="40%" fill="#ff6e6e"></rect><rect width="2%" height="100%" x="40%" fill="#ff6f6f"></rect><rect width="2%" height="100%" x="41%" fill="#ff7070"></rect><rect width="2%" height="100%" x="42%" fill="#ff7272"></rect><rect width="2%" height="100%" x="43%" fill="#ff7373"></rect><rect width="2%" height="100%" x="44%" fill="#ff7575"></rect><rect width="2%" height="100%" x="44%" fill="#ff7676"></rect><rect width="2%" height="100%" x="45%" fill="#ff7878"></rect><rect width="2%" height="100%" x="46%" fill="#ff7979"></rect><rect width="2%" height="100%" x="47%" fill="#ff7a7a"></rect><rect width="2%" height="100%" x="48%" fill="#ff7c7c"></rect><rect width="2%" height="100%" x="48%" fill="#ff7d7d"></rect><rect width="2%" height="100%" x="49%" fill="#ff7f7f"></rect><rect width="2%" height="100%" x="50%" fill="#ff8080"></rect><rect width="2%" height="100%" x="51%" fill="#ff8282"></rect><rect width="2%" height="100%" x="51%" fill="#ff8383"></rect><rect width="2%" height="100%" x="52%" fill="#ff8585"></rect><rect width="2%" height="100%" x="53%" fill="#ff8686"></rect><rect width="2%" height="100%" x="54%" fill="#ff8787"></rect><rect width="2%" height="100%" x="55%" fill="#ff8989"></rect><rect width="2%" height="100%" x="55%" fill="#ff8a8a"></rect><rect width="2%" height="100%" x="56%" fill="#ff8c8c"></rect><rect width="2%" height="100%" x="57%" fill="#ff8d8d"></rect><rect width="2%" height="100%" x="58%" fill="#ff8f8f"></rect><rect width="2%" height="100%" x="59%" fill="#ff9090"></rect><rect width="2%" height="100%" x="59%" fill="#ff9191"></rect><rect width="2%" height="100%" x="60%" fill="#ff9393"></rect><rect width="2%" height="100%" x="61%" fill="#ff9494"></rect><rect width="2%" height="100%" x="62%" fill="#ff9696"></rect><rect width="2%" height="100%" x="62%" fill="#ff9797"></rect><rect width="2%" height="100%" x="63%" fill="#ff9999"></rect><rect width="2%" height="100%" x="64%" fill="#ff9a9a"></rect><rect width="2%" height="100%" x="65%" fill="#ff9b9b"></rect><rect width="2%" height="100%" x="66%" fill="#ff9d9d"></rect><rect width="2%" height="100%" x="66%" fill="#ff9e9e"></rect><rect width="2%" height="100%" x="67%" fill="#ffa0a0"></rect><rect width="2%" height="100%" x="68%" fill="#ffa1a1"></rect><rect width="2%" height="100%" x="69%" fill="#ffa3a3"></rect><rect width="2%" height="100%" x="70%" fill="#ffa4a4"></rect><rect width="2%" height="100%" x="70%" fill="#ffa6a6"></rect><rect width="2%" height="100%" x="71%" fill="#ffa7a7"></rect><rect width="2%" height="100%" x="72%" fill="#ffa8a8"></rect><rect width="2%" height="100%" x="73%" fill="#ffaaaa"></rect><rect width="2%" height="100%" x="74%" fill="#ffabab"></rect><rect width="2%" height="100%" x="74%" fill="#ffadad"></rect><rect width="2%" height="100%" x="75%" fill="#ffaeae"></rect><rect width="2%" height="100%" x="76%" fill="#ffb0b0"></rect><rect width="2%" height="100%" x="77%" fill="#ffb1b1"></rect><rect width="2%" height="100%" x="77%" fill="#ffb2b2"></rect><rect width="2%" height="100%" x="78%" fill="#ffb4b4"></rect><rect width="2%" height="100%" x="79%" fill="#ffb5b5"></rect><rect width="2%" height="100%" x="80%" fill="#ffb7b7"></rect><rect width="2%" height="100%" x="81%" fill="#ffb8b8"></rect><rect width="2%" height="100%" x="81%" fill="#ffbaba"></rect><rect width="2%" height="100%" x="82%" fill="#ffbbbb"></rect><rect width="2%" height="100%" x="83%" fill="#ffbcbc"></rect><rect width="2%" height="100%" x="84%" fill="#ffbebe"></rect><rect width="2%" height="100%" x="85%" fill="#ffbfbf"></rect><rect width="2%" height="100%" x="85%" fill="#ffc1c1"></rect><rect width="2%" height="100%" x="86%" fill="#ffc2c2"></rect><rect width="2%" height="100%" x="87%" fill="#ffc4c4"></rect><rect width="2%" height="100%" x="88%" fill="#ffc5c5"></rect><rect width="2%" height="100%" x="88%" fill="#ffc6c6"></rect><rect width="2%" height="100%" x="89%" fill="#ffc8c8"></rect><rect width="2%" height="100%" x="90%" fill="#ffc9c9"></rect><rect width="2%" height="100%" x="91%" fill="#ffcbcb"></rect><rect width="2%" height="100%" x="92%" fill="#ffcccc"></rect><rect width="2%" height="100%" x="92%" fill="#ffcece"></rect><rect width="2%" height="100%" x="93%" fill="#ffcfcf"></rect><rect width="2%" height="100%" x="94%" fill="#ffd1d1"></rect><rect width="2%" height="100%" x="95%" fill="#ffd2d2"></rect><rect width="2%" height="100%" x="96%" fill="#ffd3d3"></rect><rect width="2%" height="100%" x="96%" fill="#ffd5d5"></rect><rect width="2%" height="100%" x="97%" fill="#ffd6d6"></rect><rect width="2%" height="100%" x="98%" fill="#ffd8d8"></rect><rect width="2%" height="100%" x="99%" fill="#ffd9d9"></rect><rect width="2%" height="100%" x="100%" fill="#ffdbdb"></rect><text x="0%" y="95%" fill="rgb(255,255,255)" text-anchor="start" style="font-family:monospace;font-size:smaller">0</text><text x="100%" y="95%" fill="rgb(0,0,0)" text-anchor="end" style="font-family:monospace;font-size:smaller">1</text></svg>