<svg xmlns="http://www.w3.org/2000/svg" width="256px" height="22px"><rect width="2%" height="100%" x="0%" fill="#ffffe5"></rect><rect width="2%" height="100%" x="0%" fill="#feffe2"></rect><rect width="2%" height="100%" x="1%" fill="#feffdf"></rect><rect width="2%" height="100%" x="2%" fill="#fdfedd"></rect><rect width="2%" height="100%" x="3%" fill="#fdfeda"></rect><rect width="2%" height="100%" x="3%" fill="#fcfed7"></rect><rect width="2%" height="100%" x="4%" fill="#fcfed4"></rect><rect width="2%" height="100%" x="5%" fill="#fbfed2"></rect><rect width="2%" height="100%" x="6%" fill="#fbfdcf"></rect><rect width="2%" height="100%" x="7%" fill="#fafdcc"></rect><rect width="2%" height="100%" x="7%" fill="#fafdc9"></rect><rect width="2%" height="100%" x="8%" fill="#f9fdc7"></rect><rect width="2%" height="100%" x="9%" fill="#f9fdc4"></rect><rect width="2%" height="100%" x="10%" fill="#f8fdc1"></rect><rect width="2%" height="100%" x="11%" fill="#f8fcbe"></rect><rect width="2%" height="100%" x="11%" fill="#f7fcbb"></rect><rect width="2%" height="100%" x="12%" fill="#f7fcb9"></rect><rect width="2%" height="100%" x="13%" fill="#f5fbb7"></rect><rect width="2%" height="100%" x="14%" fill="#f3fab6"></rect><rect width="2%" height="100%" x="14%" fill="#f1fab5"></rect><rect width="2%" height="100%" x="15%" fill="#eff9b3"></rect><rect width="2%" height="100%" x="16%" fill="#edf8b2"></rect><rect width="2%" height="100%" x="17%" fill="#ebf7b1"></rect><rect width="2%" height="100%" x="18%" fill="#eaf7af"></rect><rect width="2%" height="100%" x="18%" fill="#e8f6ae"></rect><rect width="2%" height="100%" x="19%" fill="#e6f5ac"></rect><rect width="2%" height="100%" x="20%" fill="#e4f4ab"></rect><rect width="2%" height="100%" x="21%" fill="#e2f4aa"></rect><rect width="2%" height="100%" x="22%" fill="#e0f3a8"></rect><rect width="2%" height="100%" x="22%" fill="#def2a7"></rect><rect width="2%" height="100%" x="23%" fill="#dcf1a5"></rect><rect width="2%" height="100%" x="24%" fill="#daf1a4"></rect><rect width="2%" height="100%" x="25%" fill="#d8f0a3"></rect><rect width="2%" height="100%" x="25%" fill="#d6efa1"></rect><rect width="2%" height="100%" x="26%" fill="#d3eda0"></rect><rect width="2%" height="100%" x="27%" fill="#d0ec9f"></rect><rect width="2%" height="100%" x="28%" fill="#cdeb9d"></rect><rect width="2%" height="100%" x="29%" fill="#caea9c"></rect><rect width="2%" height="100%" x="29%" fill="#c8e99b"></rect><rect width="2%" height="100%" x="30%" fill="#c5e799"></rect><rect width="2%" height="100%" x="31%" fill="#c2e698"></rect><rect width="2%" height="100%" x="32%" fill="#bfe597"></rect><rect width="2%" height="100%" x="33%" fill="#bde495"></rect><rect width="2%" height="100%" x="33%" fill="#bae394"></rect><rect width="2%" height="100%" x="34%" fill="#b7e193"></rect><rect width="2%" height="100%" x="35%" fill="#b4e091"></rect><rect width="2%" height="100%" x="36%" fill="#b2df90"></rect><rect width="2%" height="100%" x="37%" fill="#afde8f"></rect><rect width="2%" height="100%" x="37%" fill="#acdc8e"></rect><rect width="2%" height="100%" x="38%" fill="#a8db8c"></rect><rect width="2%" height="100%" x="39%" fill="#a5da8b"></rect><rect width="2%" height="100%" x="40%" fill="#a2d88a"></rect><rect width="2%" height="100%" x="40%" fill="#9ed788"></rect><rect width="2%" height="100%" x="41%" fill="#9bd587"></rect><rect width="2%" height="100%" x="42%" fill="#98d486"></rect><rect width="2%" height="100%" x="43%" fill="#94d284"></rect><rect width="2%" height="100%" x="44%" fill="#91d183"></rect><rect width="2%" height="100%" x="44%" fill="#8ecf82"></rect><rect width="2%" height="100%" x="45%" fill="#8ace80"></rect><rect width="2%" height="100%" x="46%" fill="#87cd7f"></rect><rect width="2%" height="100%" x="47%" fill="#84cb7e"></rect><rect width="2%" height="100%" x="48%" fill="#80ca7c"></rect><rect width="2%" height="100%" x="48%" fill="#7dc87b"></rect><rect width="2%" height="100%" x="49%" fill="#7ac77a"></rect><rect width="2%" height="100%" x="50%" fill="#76c578"></rect><rect width="2%" height="100%" x="51%" fill="#73c376"></rect><rect width="2%" height="100%" x="51%" fill="#6fc275"></rect><rect width="2%" height="100%" x="52%" fill="#6cc073"></rect><rect width="2%" height="100%" x="53%" fill="#68be71"></rect><rect width="2%" height="100%" x="54%" fill="#65bd6f"></rect><rect width="2%" height="100%" x="55%" fill="#61bb6e"></rect><rect width="2%" height="100%" x="55%" fill="#5eb96c"></rect><rect width="2%" height="100%" x="56%" fill="#5bb86a"></rect><rect width="2%" height="100%" x="57%" fill="#57b668"></rect><rect width="2%" height="100%" x="58%" fill="#54b466"></rect><rect width="2%" height="100%" x="59%" fill="#50b265"></rect><rect width="2%" height="100%" x="59%" fill="#4db163"></rect><rect width="2%" height="100%" x="60%" fill="#49af61"></rect><rect width="2%" height="100%" x="61%" fill="#46ad5f"></rect><rect width="2%" height="100%" x="62%" fill="#42ac5e"></rect><rect width="2%" height="100%" x="62%" fill="#40a95c"></rect><rect width="2%" height="100%" x="63%" fill="#3ea75a"></rect><rect width="2%" height="100%" x="64%" fill="#3ca559"></rect><rect width="2%" height="100%" x="65%" fill="#3aa257"></rect><rect width="2%" height="100%" x="66%" fill="#38a055"></rect><rect width="2%" height="100%" x="66%" fill="#369d54"></rect><rect width="2%" height="100%" x="67%" fill="#349b52"></rect><rect width="2%" height="100%" x="68%" fill="#339851"></rect><rect width="2%" height="100%" x="69%" fill="#31964f"></rect><rect width="2%" height="100%" x="70%" fill="#2f934d"></rect><rect width="2%" height="100%" x="70%" fill="#2d914c"></rect><rect width="2%" height="100%" x="71%" fill="#2b8e4a"></rect><rect width="2%" height="100%" x="72%" fill="#298c48"></rect><rect width="2%" height="100%" x="73%" fill="#278a47"></rect><rect width="2%" height="100%" x="74%" fill="#258745"></rect><rect width="2%" height="100%" x="74%" fill="#238543"></rect><rect width="2%" height="100%" x="75%" fill="#218342"></rect><rect width="2%" height="100%" x="76%" fill="#1f8142"></rect><rect width="2%" height="100%" x="77%" fill="#1d7f41"></rect><rect width="2%" height="100%" x="77%" fill="#1b7d40"></rect><rect width="2%" height="100%" x="78%" fill="#197c3f"></rect><rect width="2%" height="100%" x="79%" fill="#167a3f"></rect><rect width="2%" height="100%" x="80%" fill="#14783e"></rect><rect width="2%" height="100%" x="81%" fill="#12763d"></rect><rect width="2%" height="100%" x="81%" fill="#10753c"></rect><rect width="2%" height="100%" x="82%" fill="#0e733c"></rect><rect width="2%" height="100%" x="83%" fill="#0b713b"></rect><rect width="2%" height="100%" x="84%" fill="#096f3a"></rect><rect width="2%" height="100%" x="85%" fill="#076e39"></rect><rect width="2%" height="100%" x="85%" fill="#056c39"></rect><rect width="2%" height="100%" x="86%" fill="#026a38"></rect><rect width="2%" height="100%" x="87%" fill="#006837"></rect><rect width="2%" height="100%" x="88%" fill="#006636"></rect><rect width="2%" height="100%" x="88%" fill="#006435"></rect><rect width="2%" height="100%" x="89%" fill="#006234"></rect><rect width="2%" height="100%" x="90%" fill="#005f34"></rect><rect width="2%" height="100%" x="91%" fill="#005d33"></rect><rect width="2%" height="100%" x="92%" fill="#005b32"></rect><rect width="2%" height="100%" x="92%" fill="#005931"></rect><rect width="2%" height="100%" x="93%" fill="#005730"></rect><rect width="2%" height="100%" x="94%" fill="#00542f"></rect><rect width="2%" height="100%" x="95%" fill="#00522e"></rect><rect width="2%" height="100%" x="96%" fill="#00502d"></rect><rect width="2%" height="100%" x="96%" fill="#004e2d"></rect><rect width="2%" height="100%" x="97%" fill="#004c2c"></rect><rect width="2%" height="100%" x="98%" fill="#00492b"></rect><rect width="2%" height="100%" x="99%" fill="#00472a"></rect><rect width="2%" height="100%" x="100%" fill="#004529"></rect><text x="0%" y="95%" fill="rgb(0,0,0)" text-anchor="start" style="font-family:monospace;font-size:smaller">0</text><text x="12%" y="95%" fill="rgb(0,0,0)" text-anchor="middle" style="font-family:monospace;font-size:smaller">0.13</text><text x="25%" y="95%" fill="rgb(0,0,0)" text-anchor="middle" style="font-family:monospace;font-size:smaller">0.25</text><text x="37%" y="95%" fill="rgb(0,0,0)" text-anchor="middle" style="font-family:monospace;font-size:smaller">0.38</text><text x="50%" y="95%" fill="rgb(255,255,255)" text-anchor="middle" style="font-family:monospace;font-size:smaller">0.5</text><text x="62%" y="95%" fill="rgb(255,255,255)" text-anchor="middle" style="font-family:monospace;font-size:smaller">0.63</text><text x="75%" y="95%" fill="rgb(255,255,255)" text-anchor="middle" style="font-family:monospace;font-size:smaller">0.75</text><text x="87%" y="95%" fill="rgb(255,255,255)" text-anchor="middle" style="font-family:monospace;font-size:smaller">0.88</text><text x="100%" y="95%" fill="rgb(255,255,255)" text-anchor="end" style="font-family:monospace;font-size:smaller">1</text></svg>