<svg xmlns="http://www.w3.org/2000/svg" width="256px" height="22px"><rect width="2%" height="100%" x="0%" fill="#ccffff"></rect><rect width="2%" height="100%" x="0%" fill="#cbfdfe"></rect><rect width="2%" height="100%" x="1%" fill="#cafbfe"></rect><rect width="2%" height="100%" x="2%" fill="#c8fafd"></rect><rect width="2%" height="100%" x="3%" fill="#c7f8fc"></rect><rect width="2%" height="100%" x="3%" fill="#c6f6fc"></rect><rect width="2%" height="100%" x="4%" fill="#c5f4fb"></rect><rect width="2%" height="100%" x="5%" fill="#c4f3fa"></rect><rect width="2%" height="100%" x="6%" fill="#c3f1fa"></rect><rect width="2%" height="100%" x="7%" fill="#c1eff9"></rect><rect width="2%" height="100%" x="7%" fill="#c0edf9"></rect><rect width="2%" height="100%" x="8%" fill="#bfecf8"></rect><rect width="2%" height="100%" x="9%" fill="#beeaf7"></rect><rect width="2%" height="100%" x="10%" fill="#bde8f7"></rect><rect width="2%" height="100%" x="11%" fill="#bbe6f6"></rect><rect width="2%" height="100%" x="11%" fill="#bae5f5"></rect><rect width="2%" height="100%" x="12%" fill="#b9e3f5"></rect><rect width="2%" height="100%" x="13%" fill="#b8e1f4"></rect><rect width="2%" height="100%" x="14%" fill="#b7dff3"></rect><rect width="2%" height="100%" x="14%" fill="#b6ddf3"></rect><rect width="2%" height="100%" x="15%" fill="#b4dcf2"></rect><rect width="2%" height="100%" x="16%" fill="#b3daf1"></rect><rect width="2%" height="100%" x="17%" fill="#b2d8f1"></rect><rect width="2%" height="100%" x="18%" fill="#b1d6f0"></rect><rect width="2%" height="100%" x="18%" fill="#b0d5f0"></rect><rect width="2%" height="100%" x="19%" fill="#aed3ef"></rect><rect width="2%" height="100%" x="20%" fill="#add1ee"></rect><rect width="2%" height="100%" x="21%" fill="#accfee"></rect><rect width="2%" height="100%" x="22%" fill="#abceed"></rect><rect width="2%" height="100%" x="22%" fill="#aaccec"></rect><rect width="2%" height="100%" x="23%" fill="#a9caec"></rect><rect width="2%" height="100%" x="24%" fill="#a7c8eb"></rect><rect width="2%" height="100%" x="25%" fill="#a6c7ea"></rect><rect width="2%" height="100%" x="25%" fill="#a5c5ea"></rect><rect width="2%" height="100%" x="26%" fill="#a4c3e9"></rect><rect width="2%" height="100%" x="27%" fill="#a3c1e8"></rect><rect width="2%" height="100%" x="28%" fill="#a1c0e8"></rect><rect width="2%" height="100%" x="29%" fill="#a0bee7"></rect><rect width="2%" height="100%" x="29%" fill="#9fbce6"></rect><rect width="2%" height="100%" x="30%" fill="#9ebae6"></rect><rect width="2%" height="100%" x="31%" fill="#9db8e5"></rect><rect width="2%" height="100%" x="32%" fill="#9cb7e5"></rect><rect width="2%" height="100%" x="33%" fill="#9ab5e4"></rect><rect width="2%" height="100%" x="33%" fill="#99b3e3"></rect><rect width="2%" height="100%" x="34%" fill="#98b1e3"></rect><rect width="2%" height="100%" x="35%" fill="#97b0e2"></rect><rect width="2%" height="100%" x="36%" fill="#96aee1"></rect><rect width="2%" height="100%" x="37%" fill="#94ace1"></rect><rect width="2%" height="100%" x="37%" fill="#93aae0"></rect><rect width="2%" height="100%" x="38%" fill="#92a9df"></rect><rect width="2%" height="100%" x="39%" fill="#91a7df"></rect><rect width="2%" height="100%" x="40%" fill="#90a5de"></rect><rect width="2%" height="100%" x="40%" fill="#8fa3dd"></rect><rect width="2%" height="100%" x="41%" fill="#8da2dd"></rect><rect width="2%" height="100%" x="42%" fill="#8ca0dc"></rect><rect width="2%" height="100%" x="43%" fill="#8b9edb"></rect><rect width="2%" height="100%" x="44%" fill="#8a9cdb"></rect><rect width="2%" height="100%" x="44%" fill="#899ada"></rect><rect width="2%" height="100%" x="45%" fill="#8799da"></rect><rect width="2%" height="100%" x="46%" fill="#8697d9"></rect><rect width="2%" height="100%" x="47%" fill="#8595d8"></rect><rect width="2%" height="100%" x="48%" fill="#8493d8"></rect><rect width="2%" height="100%" x="48%" fill="#8392d7"></rect><rect width="2%" height="100%" x="49%" fill="#8290d6"></rect><rect width="2%" height="100%" x="50%" fill="#808ed6"></rect><rect width="2%" height="100%" x="51%" fill="#7f8cd5"></rect><rect width="2%" height="100%" x="51%" fill="#7e8bd4"></rect><rect width="2%" height="100%" x="52%" fill="#7d89d4"></rect><rect width="2%" height="100%" x="53%" fill="#7c87d3"></rect><rect width="2%" height="100%" x="54%" fill="#7b85d2"></rect><rect width="2%" height="100%" x="55%" fill="#7984d2"></rect><rect width="2%" height="100%" x="55%" fill="#7882d1"></rect><rect width="2%" height="100%" x="56%" fill="#7780d1"></rect><rect width="2%" height="100%" x="57%" fill="#767ed0"></rect><rect width="2%" height="100%" x="58%" fill="#757ccf"></rect><rect width="2%" height="100%" x="59%" fill="#737bcf"></rect><rect width="2%" height="100%" x="59%" fill="#7279ce"></rect><rect width="2%" height="100%" x="60%" fill="#7177cd"></rect><rect width="2%" height="100%" x="61%" fill="#7075cd"></rect><rect width="2%" height="100%" x="62%" fill="#6f74cc"></rect><rect width="2%" height="100%" x="62%" fill="#6e72cb"></rect><rect width="2%" height="100%" x="63%" fill="#6c70cb"></rect><rect width="2%" height="100%" x="64%" fill="#6b6eca"></rect><rect width="2%" height="100%" x="65%" fill="#6a6dc9"></rect><rect width="2%" height="100%" x="66%" fill="#696bc9"></rect><rect width="2%" height="100%" x="66%" fill="#6869c8"></rect><rect width="2%" height="100%" x="67%" fill="#6667c7"></rect><rect width="2%" height="100%" x="68%" fill="#6566c7"></rect><rect width="2%" height="100%" x="69%" fill="#6464c6"></rect><rect width="2%" height="100%" x="70%" fill="#6362c6"></rect><rect width="2%" height="100%" x="70%" fill="#6260c5"></rect><rect width="2%" height="100%" x="71%" fill="#615ec4"></rect><rect width="2%" height="100%" x="72%" fill="#5f5dc4"></rect><rect width="2%" height="100%" x="73%" fill="#5e5bc3"></rect><rect width="2%" height="100%" x="74%" fill="#5d59c2"></rect><rect width="2%" height="100%" x="74%" fill="#5c57c2"></rect><rect width="2%" height="100%" x="75%" fill="#5b56c1"></rect><rect width="2%" height="100%" x="76%" fill="#5954c0"></rect><rect width="2%" height="100%" x="77%" fill="#5852c0"></rect><rect width="2%" height="100%" x="77%" fill="#5750bf"></rect><rect width="2%" height="100%" x="78%" fill="#564fbe"></rect><rect width="2%" height="100%" x="79%" fill="#554dbe"></rect><rect width="2%" height="100%" x="80%" fill="#544bbd"></rect><rect width="2%" height="100%" x="81%" fill="#5249bc"></rect><rect width="2%" height="100%" x="81%" fill="#5148bc"></rect><rect width="2%" height="100%" x="82%" fill="#5046bb"></rect><rect width="2%" height="100%" x="83%" fill="#4f44bb"></rect><rect width="2%" height="100%" x="84%" fill="#4e42ba"></rect><rect width="2%" height="100%" x="85%" fill="#4c41b9"></rect><rect width="2%" height="100%" x="85%" fill="#4b3fb9"></rect><rect width="2%" height="100%" x="86%" fill="#4a3db8"></rect><rect width="2%" height="100%" x="87%" fill="#493bb7"></rect><rect width="2%" height="100%" x="88%" fill="#4839b7"></rect><rect width="2%" height="100%" x="88%" fill="#4738b6"></rect><rect width="2%" height="100%" x="89%" fill="#4536b5"></rect><rect width="2%" height="100%" x="90%" fill="#4434b5"></rect><rect width="2%" height="100%" x="91%" fill="#4332b4"></rect><rect width="2%" height="100%" x="92%" fill="#4231b3"></rect><rect width="2%" height="100%" x="92%" fill="#412fb3"></rect><rect width="2%" height="100%" x="93%" fill="#3f2db2"></rect><rect width="2%" height="100%" x="94%" fill="#3e2bb2"></rect><rect width="2%" height="100%" x="95%" fill="#3d2ab1"></rect><rect width="2%" height="100%" x="96%" fill="#3c28b0"></rect><rect width="2%" height="100%" x="96%" fill="#3b26b0"></rect><rect width="2%" height="100%" x="97%" fill="#3a24af"></rect><rect width="2%" height="100%" x="98%" fill="#3823ae"></rect><rect width="2%" height="100%" x="99%" fill="#3721ae"></rect><rect width="2%" height="100%" x="100%" fill="#361fad"></rect><text x="0%" y="95%" fill="rgb(0,0,0)" text-anchor="start" style="font-family:monospace;font-size:smaller">0</text><text x="100%" y="95%" fill="rgb(255,255,255)" text-anchor="end" style="font-family:monospace;font-size:smaller">1</text></svg>