<svg xmlns="http://www.w3.org/2000/svg" width="256px" height="22px"><rect width="2%" height="100%" x="0%" fill="#ffff00"></rect><rect width="2%" height="100%" x="0%" fill="#fdfe02"></rect><rect width="2%" height="100%" x="1%" fill="#fbfd04"></rect><rect width="2%" height="100%" x="2%" fill="#f9fc05"></rect><rect width="2%" height="100%" x="3%" fill="#f7fb07"></rect><rect width="2%" height="100%" x="3%" fill="#f5fa09"></rect><rect width="2%" height="100%" x="4%" fill="#f3f90b"></rect><rect width="2%" height="100%" x="5%" fill="#f1f90d"></rect><rect width="2%" height="100%" x="6%" fill="#eff80e"></rect><rect width="2%" height="100%" x="7%" fill="#edf710"></rect><rect width="2%" height="100%" x="7%" fill="#ebf612"></rect><rect width="2%" height="100%" x="8%" fill="#e9f514"></rect><rect width="2%" height="100%" x="9%" fill="#e7f416"></rect><rect width="2%" height="100%" x="10%" fill="#e5f317"></rect><rect width="2%" height="100%" x="11%" fill="#e3f219"></rect><rect width="2%" height="100%" x="11%" fill="#e1f11b"></rect><rect width="2%" height="100%" x="12%" fill="#dff01d"></rect><rect width="2%" height="100%" x="13%" fill="#ddef1f"></rect><rect width="2%" height="100%" x="14%" fill="#dbee20"></rect><rect width="2%" height="100%" x="14%" fill="#d9ed22"></rect><rect width="2%" height="100%" x="15%" fill="#d7ed24"></rect><rect width="2%" height="100%" x="16%" fill="#d5ec26"></rect><rect width="2%" height="100%" x="17%" fill="#d3eb28"></rect><rect width="2%" height="100%" x="18%" fill="#d1ea29"></rect><rect width="2%" height="100%" x="18%" fill="#cfe92b"></rect><rect width="2%" height="100%" x="19%" fill="#cde82d"></rect><rect width="2%" height="100%" x="20%" fill="#cbe72f"></rect><rect width="2%" height="100%" x="21%" fill="#c9e631"></rect><rect width="2%" height="100%" x="22%" fill="#c7e532"></rect><rect width="2%" height="100%" x="22%" fill="#c5e434"></rect><rect width="2%" height="100%" x="23%" fill="#c3e336"></rect><rect width="2%" height="100%" x="24%" fill="#c1e238"></rect><rect width="2%" height="100%" x="25%" fill="#bfe23a"></rect><rect width="2%" height="100%" x="25%" fill="#bde13c"></rect><rect width="2%" height="100%" x="26%" fill="#bbe03d"></rect><rect width="2%" height="100%" x="27%" fill="#b9df3f"></rect><rect width="2%" height="100%" x="28%" fill="#b7de41"></rect><rect width="2%" height="100%" x="29%" fill="#b5dd43"></rect><rect width="2%" height="100%" x="29%" fill="#b3dc45"></rect><rect width="2%" height="100%" x="30%" fill="#b1db46"></rect><rect width="2%" height="100%" x="31%" fill="#afda48"></rect><rect width="2%" height="100%" x="32%" fill="#add94a"></rect><rect width="2%" height="100%" x="33%" fill="#abd84c"></rect><rect width="2%" height="100%" x="33%" fill="#a9d74e"></rect><rect width="2%" height="100%" x="34%" fill="#a7d64f"></rect><rect width="2%" height="100%" x="35%" fill="#a5d651"></rect><rect width="2%" height="100%" x="36%" fill="#a3d553"></rect><rect width="2%" height="100%" x="37%" fill="#a1d455"></rect><rect width="2%" height="100%" x="37%" fill="#9fd357"></rect><rect width="2%" height="100%" x="38%" fill="#9dd258"></rect><rect width="2%" height="100%" x="39%" fill="#9bd15a"></rect><rect width="2%" height="100%" x="40%" fill="#99d05c"></rect><rect width="2%" height="100%" x="40%" fill="#97cf5e"></rect><rect width="2%" height="100%" x="41%" fill="#95ce60"></rect><rect width="2%" height="100%" x="42%" fill="#93cd61"></rect><rect width="2%" height="100%" x="43%" fill="#91cc63"></rect><rect width="2%" height="100%" x="44%" fill="#8fcb65"></rect><rect width="2%" height="100%" x="44%" fill="#8dca67"></rect><rect width="2%" height="100%" x="45%" fill="#8bca69"></rect><rect width="2%" height="100%" x="46%" fill="#89c96a"></rect><rect width="2%" height="100%" x="47%" fill="#87c86c"></rect><rect width="2%" height="100%" x="48%" fill="#85c76e"></rect><rect width="2%" height="100%" x="48%" fill="#83c670"></rect><rect width="2%" height="100%" x="49%" fill="#81c572"></rect><rect width="2%" height="100%" x="50%" fill="#7ec473"></rect><rect width="2%" height="100%" x="51%" fill="#7cc375"></rect><rect width="2%" height="100%" x="51%" fill="#7ac277"></rect><rect width="2%" height="100%" x="52%" fill="#78c179"></rect><rect width="2%" height="100%" x="53%" fill="#76c07b"></rect><rect width="2%" height="100%" x="54%" fill="#74bf7c"></rect><rect width="2%" height="100%" x="55%" fill="#72bf7e"></rect><rect width="2%" height="100%" x="55%" fill="#70be80"></rect><rect width="2%" height="100%" x="56%" fill="#6ebd82"></rect><rect width="2%" height="100%" x="57%" fill="#6cbc84"></rect><rect width="2%" height="100%" x="58%" fill="#6abb85"></rect><rect width="2%" height="100%" x="59%" fill="#68ba87"></rect><rect width="2%" height="100%" x="59%" fill="#66b989"></rect><rect width="2%" height="100%" x="60%" fill="#64b88b"></rect><rect width="2%" height="100%" x="61%" fill="#62b78d"></rect><rect width="2%" height="100%" x="62%" fill="#60b68e"></rect><rect width="2%" height="100%" x="62%" fill="#5eb590"></rect><rect width="2%" height="100%" x="63%" fill="#5cb492"></rect><rect width="2%" height="100%" x="64%" fill="#5ab394"></rect><rect width="2%" height="100%" x="65%" fill="#58b396"></rect><rect width="2%" height="100%" x="66%" fill="#56b297"></rect><rect width="2%" height="100%" x="66%" fill="#54b199"></rect><rect width="2%" height="100%" x="67%" fill="#52b09b"></rect><rect width="2%" height="100%" x="68%" fill="#50af9d"></rect><rect width="2%" height="100%" x="69%" fill="#4eae9f"></rect><rect width="2%" height="100%" x="70%" fill="#4cada0"></rect><rect width="2%" height="100%" x="70%" fill="#4aaca2"></rect><rect width="2%" height="100%" x="71%" fill="#48aba4"></rect><rect width="2%" height="100%" x="72%" fill="#46aaa6"></rect><rect width="2%" height="100%" x="73%" fill="#44a9a8"></rect><rect width="2%" height="100%" x="74%" fill="#42a8a9"></rect><rect width="2%" height="100%" x="74%" fill="#40a7ab"></rect><rect width="2%" height="100%" x="75%" fill="#3ea7ad"></rect><rect width="2%" height="100%" x="76%" fill="#3ca6af"></rect><rect width="2%" height="100%" x="77%" fill="#3aa5b1"></rect><rect width="2%" height="100%" x="77%" fill="#38a4b3"></rect><rect width="2%" height="100%" x="78%" fill="#36a3b4"></rect><rect width="2%" height="100%" x="79%" fill="#34a2b6"></rect><rect width="2%" height="100%" x="80%" fill="#32a1b8"></rect><rect width="2%" height="100%" x="81%" fill="#30a0ba"></rect><rect width="2%" height="100%" x="81%" fill="#2e9fbc"></rect><rect width="2%" height="100%" x="82%" fill="#2c9ebd"></rect><rect width="2%" height="100%" x="83%" fill="#2a9dbf"></rect><rect width="2%" height="100%" x="84%" fill="#289cc1"></rect><rect width="2%" height="100%" x="85%" fill="#269cc3"></rect><rect width="2%" height="100%" x="85%" fill="#249bc5"></rect><rect width="2%" height="100%" x="86%" fill="#229ac6"></rect><rect width="2%" height="100%" x="87%" fill="#2099c8"></rect><rect width="2%" height="100%" x="88%" fill="#1e98ca"></rect><rect width="2%" height="100%" x="88%" fill="#1c97cc"></rect><rect width="2%" height="100%" x="89%" fill="#1a96ce"></rect><rect width="2%" height="100%" x="90%" fill="#1895cf"></rect><rect width="2%" height="100%" x="91%" fill="#1694d1"></rect><rect width="2%" height="100%" x="92%" fill="#1493d3"></rect><rect width="2%" height="100%" x="92%" fill="#1292d5"></rect><rect width="2%" height="100%" x="93%" fill="#1091d7"></rect><rect width="2%" height="100%" x="94%" fill="#0e90d8"></rect><rect width="2%" height="100%" x="95%" fill="#0c90da"></rect><rect width="2%" height="100%" x="96%" fill="#0a8fdc"></rect><rect width="2%" height="100%" x="96%" fill="#088ede"></rect><rect width="2%" height="100%" x="97%" fill="#068de0"></rect><rect width="2%" height="100%" x="98%" fill="#048ce1"></rect><rect width="2%" height="100%" x="99%" fill="#028be3"></rect><rect width="2%" height="100%" x="100%" fill="#008ae5"></rect><text x="0%" y="95%" fill="rgb(0,0,0)" text-anchor="start" style="font-family:monospace;font-size:smaller">0</text><text x="100%" y="95%" fill="rgb(255,255,255)" text-anchor="end" style="font-family:monospace;font-size:smaller">1</text></svg>