<svg xmlns="http://www.w3.org/2000/svg" width="256px" height="22px"><rect width="2%" height="100%" x="0%" fill="#fcfbfd"></rect><rect width="2%" height="100%" x="0%" fill="#fbfafc"></rect><rect width="2%" height="100%" x="1%" fill="#faf9fc"></rect><rect width="2%" height="100%" x="2%" fill="#faf8fb"></rect><rect width="2%" height="100%" x="3%" fill="#f9f7fb"></rect><rect width="2%" height="100%" x="3%" fill="#f8f7fa"></rect><rect width="2%" height="100%" x="4%" fill="#f7f6fa"></rect><rect width="2%" height="100%" x="5%" fill="#f6f5f9"></rect><rect width="2%" height="100%" x="6%" fill="#f5f4f9"></rect><rect width="2%" height="100%" x="7%" fill="#f5f3f8"></rect><rect width="2%" height="100%" x="7%" fill="#f4f2f8"></rect><rect width="2%" height="100%" x="8%" fill="#f3f1f7"></rect><rect width="2%" height="100%" x="9%" fill="#f2f0f7"></rect><rect width="2%" height="100%" x="10%" fill="#f1f0f6"></rect><rect width="2%" height="100%" x="11%" fill="#f1eff6"></rect><rect width="2%" height="100%" x="11%" fill="#f0eef5"></rect><rect width="2%" height="100%" x="12%" fill="#efedf5"></rect><rect width="2%" height="100%" x="13%" fill="#eeecf4"></rect><rect width="2%" height="100%" x="14%" fill="#eceaf4"></rect><rect width="2%" height="100%" x="14%" fill="#ebe9f3"></rect><rect width="2%" height="100%" x="15%" fill="#eae8f2"></rect><rect width="2%" height="100%" x="16%" fill="#e8e7f2"></rect><rect width="2%" height="100%" x="17%" fill="#e7e6f1"></rect><rect width="2%" height="100%" x="18%" fill="#e6e4f1"></rect><rect width="2%" height="100%" x="18%" fill="#e4e3f0"></rect><rect width="2%" height="100%" x="19%" fill="#e3e2ef"></rect><rect width="2%" height="100%" x="20%" fill="#e2e1ef"></rect><rect width="2%" height="100%" x="21%" fill="#e0e0ee"></rect><rect width="2%" height="100%" x="22%" fill="#dfdeed"></rect><rect width="2%" height="100%" x="22%" fill="#dedded"></rect><rect width="2%" height="100%" x="23%" fill="#dcdcec"></rect><rect width="2%" height="100%" x="24%" fill="#dbdbeb"></rect><rect width="2%" height="100%" x="25%" fill="#dadaeb"></rect><rect width="2%" height="100%" x="25%" fill="#d8d8ea"></rect><rect width="2%" height="100%" x="26%" fill="#d6d6e9"></rect><rect width="2%" height="100%" x="27%" fill="#d4d4e8"></rect><rect width="2%" height="100%" x="28%" fill="#d2d2e7"></rect><rect width="2%" height="100%" x="29%" fill="#d0d0e6"></rect><rect width="2%" height="100%" x="29%" fill="#cecfe5"></rect><rect width="2%" height="100%" x="30%" fill="#cccde4"></rect><rect width="2%" height="100%" x="31%" fill="#cacbe3"></rect><rect width="2%" height="100%" x="32%" fill="#c9c9e2"></rect><rect width="2%" height="100%" x="33%" fill="#c7c7e1"></rect><rect width="2%" height="100%" x="33%" fill="#c5c5e0"></rect><rect width="2%" height="100%" x="34%" fill="#c3c4df"></rect><rect width="2%" height="100%" x="35%" fill="#c1c2de"></rect><rect width="2%" height="100%" x="36%" fill="#bfc0de"></rect><rect width="2%" height="100%" x="37%" fill="#bdbedd"></rect><rect width="2%" height="100%" x="37%" fill="#bbbcdc"></rect><rect width="2%" height="100%" x="38%" fill="#b9bada"></rect><rect width="2%" height="100%" x="39%" fill="#b8b8d9"></rect><rect width="2%" height="100%" x="40%" fill="#b6b6d8"></rect><rect width="2%" height="100%" x="40%" fill="#b4b3d6"></rect><rect width="2%" height="100%" x="41%" fill="#b2b1d5"></rect><rect width="2%" height="100%" x="42%" fill="#b0afd4"></rect><rect width="2%" height="100%" x="43%" fill="#aeadd3"></rect><rect width="2%" height="100%" x="44%" fill="#acabd1"></rect><rect width="2%" height="100%" x="44%" fill="#aaa8d0"></rect><rect width="2%" height="100%" x="45%" fill="#a8a6cf"></rect><rect width="2%" height="100%" x="46%" fill="#a7a4ce"></rect><rect width="2%" height="100%" x="47%" fill="#a5a2cc"></rect><rect width="2%" height="100%" x="48%" fill="#a3a0cb"></rect><rect width="2%" height="100%" x="48%" fill="#a19dca"></rect><rect width="2%" height="100%" x="49%" fill="#9f9bc9"></rect><rect width="2%" height="100%" x="50%" fill="#9d99c8"></rect><rect width="2%" height="100%" x="51%" fill="#9b97c7"></rect><rect width="2%" height="100%" x="51%" fill="#9995c6"></rect><rect width="2%" height="100%" x="52%" fill="#9794c5"></rect><rect width="2%" height="100%" x="53%" fill="#9592c4"></rect><rect width="2%" height="100%" x="54%" fill="#9490c3"></rect><rect width="2%" height="100%" x="55%" fill="#928ec2"></rect><rect width="2%" height="100%" x="55%" fill="#908cc1"></rect><rect width="2%" height="100%" x="56%" fill="#8e8ac1"></rect><rect width="2%" height="100%" x="57%" fill="#8c89c0"></rect><rect width="2%" height="100%" x="58%" fill="#8a87bf"></rect><rect width="2%" height="100%" x="59%" fill="#8885be"></rect><rect width="2%" height="100%" x="59%" fill="#8683bd"></rect><rect width="2%" height="100%" x="60%" fill="#8481bc"></rect><rect width="2%" height="100%" x="61%" fill="#8380bb"></rect><rect width="2%" height="100%" x="62%" fill="#817eba"></rect><rect width="2%" height="100%" x="62%" fill="#7f7bb9"></rect><rect width="2%" height="100%" x="63%" fill="#7e78b8"></rect><rect width="2%" height="100%" x="64%" fill="#7c76b6"></rect><rect width="2%" height="100%" x="65%" fill="#7b73b5"></rect><rect width="2%" height="100%" x="66%" fill="#7a70b3"></rect><rect width="2%" height="100%" x="66%" fill="#786db2"></rect><rect width="2%" height="100%" x="67%" fill="#776bb0"></rect><rect width="2%" height="100%" x="68%" fill="#7568af"></rect><rect width="2%" height="100%" x="69%" fill="#7465ae"></rect><rect width="2%" height="100%" x="70%" fill="#7362ac"></rect><rect width="2%" height="100%" x="70%" fill="#7160ab"></rect><rect width="2%" height="100%" x="71%" fill="#705da9"></rect><rect width="2%" height="100%" x="72%" fill="#6f5aa8"></rect><rect width="2%" height="100%" x="73%" fill="#6d57a6"></rect><rect width="2%" height="100%" x="74%" fill="#6c54a5"></rect><rect width="2%" height="100%" x="74%" fill="#6a52a3"></rect><rect width="2%" height="100%" x="75%" fill="#694fa2"></rect><rect width="2%" height="100%" x="76%" fill="#684ca1"></rect><rect width="2%" height="100%" x="77%" fill="#664aa0"></rect><rect width="2%" height="100%" x="77%" fill="#65479e"></rect><rect width="2%" height="100%" x="78%" fill="#63449d"></rect><rect width="2%" height="100%" x="79%" fill="#62429c"></rect><rect width="2%" height="100%" x="80%" fill="#613f9a"></rect><rect width="2%" height="100%" x="81%" fill="#5f3c99"></rect><rect width="2%" height="100%" x="81%" fill="#5e3a98"></rect><rect width="2%" height="100%" x="82%" fill="#5c3797"></rect><rect width="2%" height="100%" x="83%" fill="#5b3595"></rect><rect width="2%" height="100%" x="84%" fill="#5a3294"></rect><rect width="2%" height="100%" x="85%" fill="#582f93"></rect><rect width="2%" height="100%" x="85%" fill="#572d92"></rect><rect width="2%" height="100%" x="86%" fill="#562a90"></rect><rect width="2%" height="100%" x="87%" fill="#54278f"></rect><rect width="2%" height="100%" x="88%" fill="#53258e"></rect><rect width="2%" height="100%" x="88%" fill="#52228d"></rect><rect width="2%" height="100%" x="89%" fill="#50208c"></rect><rect width="2%" height="100%" x="90%" fill="#4f1d8b"></rect><rect width="2%" height="100%" x="91%" fill="#4e1b89"></rect><rect width="2%" height="100%" x="92%" fill="#4c1988"></rect><rect width="2%" height="100%" x="92%" fill="#4b1687"></rect><rect width="2%" height="100%" x="93%" fill="#4a1486"></rect><rect width="2%" height="100%" x="94%" fill="#481185"></rect><rect width="2%" height="100%" x="95%" fill="#470f84"></rect><rect width="2%" height="100%" x="96%" fill="#460c83"></rect><rect width="2%" height="100%" x="96%" fill="#440a82"></rect><rect width="2%" height="100%" x="97%" fill="#430780"></rect><rect width="2%" height="100%" x="98%" fill="#42057f"></rect><rect width="2%" height="100%" x="99%" fill="#40027e"></rect><rect width="2%" height="100%" x="100%" fill="#3f007d"></rect><text x="0%" y="95%" fill="rgb(0,0,0)" text-anchor="start" style="font-family:monospace;font-size:smaller">0</text><text x="12%" y="95%" fill="rgb(0,0,0)" text-anchor="middle" style="font-family:monospace;font-size:smaller">0.13</text><text x="25%" y="95%" fill="rgb(0,0,0)" text-anchor="middle" style="font-family:monospace;font-size:smaller">0.25</text><text x="37%" y="95%" fill="rgb(0,0,0)" text-anchor="middle" style="font-family:monospace;font-size:smaller">0.38</text><text x="50%" y="95%" fill="rgb(255,255,255)" text-anchor="middle" style="font-family:monospace;font-size:smaller">0.5</text><text x="62%" y="95%" fill="rgb(255,255,255)" text-anchor="middle" style="font-family:monospace;font-size:smaller">0.63</text><text x="75%" y="95%" fill="rgb(255,255,255)" text-anchor="middle" style="font-family:monospace;font-size:smaller">0.75</text><text x="87%" y="95%" fill="rgb(255,255,255)" text-anchor="middle" style="font-family:monospace;font-size:smaller">0.88</text><text x="100%" y="95%" fill="rgb(255,255,255)" text-anchor="end" style="font-family:monospace;font-size:smaller">1</text></svg>