<svg xmlns="http://www.w3.org/2000/svg" width="256px" height="22px"><rect width="2%" height="100%" x="0%" fill="#ff0000"></rect><rect width="2%" height="100%" x="0%" fill="#fe0b00"></rect><rect width="2%" height="100%" x="1%" fill="#fd1000"></rect><rect width="2%" height="100%" x="2%" fill="#fc1400"></rect><rect width="2%" height="100%" x="3%" fill="#fb1700"></rect><rect width="2%" height="100%" x="3%" fill="#fa1900"></rect><rect width="2%" height="100%" x="4%" fill="#f91c00"></rect><rect width="2%" height="100%" x="5%" fill="#f81e00"></rect><rect width="2%" height="100%" x="6%" fill="#f72000"></rect><rect width="2%" height="100%" x="7%" fill="#f62200"></rect><rect width="2%" height="100%" x="7%" fill="#f52400"></rect><rect width="2%" height="100%" x="8%" fill="#f42600"></rect><rect width="2%" height="100%" x="9%" fill="#f32700"></rect><rect width="2%" height="100%" x="10%" fill="#f22900"></rect><rect width="2%" height="100%" x="11%" fill="#f12a00"></rect><rect width="2%" height="100%" x="11%" fill="#ef2c00"></rect><rect width="2%" height="100%" x="12%" fill="#ee2d00"></rect><rect width="2%" height="100%" x="13%" fill="#ed2f00"></rect><rect width="2%" height="100%" x="14%" fill="#ec3000"></rect><rect width="2%" height="100%" x="14%" fill="#eb3200"></rect><rect width="2%" height="100%" x="15%" fill="#ea3300"></rect><rect width="2%" height="100%" x="16%" fill="#e93400"></rect><rect width="2%" height="100%" x="17%" fill="#e83500"></rect><rect width="2%" height="100%" x="18%" fill="#e73600"></rect><rect width="2%" height="100%" x="18%" fill="#e63800"></rect><rect width="2%" height="100%" x="19%" fill="#e53900"></rect><rect width="2%" height="100%" x="20%" fill="#e33a00"></rect><rect width="2%" height="100%" x="21%" fill="#e23b00"></rect><rect width="2%" height="100%" x="22%" fill="#e13c00"></rect><rect width="2%" height="100%" x="22%" fill="#e03d00"></rect><rect width="2%" height="100%" x="23%" fill="#df3e00"></rect><rect width="2%" height="100%" x="24%" fill="#de3f00"></rect><rect width="2%" height="100%" x="25%" fill="#dd4000"></rect><rect width="2%" height="100%" x="25%" fill="#db4100"></rect><rect width="2%" height="100%" x="26%" fill="#da4200"></rect><rect width="2%" height="100%" x="27%" fill="#d94300"></rect><rect width="2%" height="100%" x="28%" fill="#d84400"></rect><rect width="2%" height="100%" x="29%" fill="#d74500"></rect><rect width="2%" height="100%" x="29%" fill="#d54600"></rect><rect width="2%" height="100%" x="30%" fill="#d44700"></rect><rect width="2%" height="100%" x="31%" fill="#d34800"></rect><rect width="2%" height="100%" x="32%" fill="#d24900"></rect><rect width="2%" height="100%" x="33%" fill="#d14a00"></rect><rect width="2%" height="100%" x="33%" fill="#cf4a00"></rect><rect width="2%" height="100%" x="34%" fill="#ce4b00"></rect><rect width="2%" height="100%" x="35%" fill="#cd4c00"></rect><rect width="2%" height="100%" x="36%" fill="#cc4d00"></rect><rect width="2%" height="100%" x="37%" fill="#ca4e00"></rect><rect width="2%" height="100%" x="37%" fill="#c94f00"></rect><rect width="2%" height="100%" x="38%" fill="#c85000"></rect><rect width="2%" height="100%" x="39%" fill="#c75000"></rect><rect width="2%" height="100%" x="40%" fill="#c55100"></rect><rect width="2%" height="100%" x="40%" fill="#c45200"></rect><rect width="2%" height="100%" x="41%" fill="#c35300"></rect><rect width="2%" height="100%" x="42%" fill="#c15300"></rect><rect width="2%" height="100%" x="43%" fill="#c05400"></rect><rect width="2%" height="100%" x="44%" fill="#bf5500"></rect><rect width="2%" height="100%" x="44%" fill="#bd5600"></rect><rect width="2%" height="100%" x="45%" fill="#bc5700"></rect><rect width="2%" height="100%" x="46%" fill="#bb5700"></rect><rect width="2%" height="100%" x="47%" fill="#b95800"></rect><rect width="2%" height="100%" x="48%" fill="#b85900"></rect><rect width="2%" height="100%" x="48%" fill="#b65900"></rect><rect width="2%" height="100%" x="49%" fill="#b55a00"></rect><rect width="2%" height="100%" x="50%" fill="#b45b00"></rect><rect width="2%" height="100%" x="51%" fill="#b25c00"></rect><rect width="2%" height="100%" x="51%" fill="#b15c00"></rect><rect width="2%" height="100%" x="52%" fill="#af5d00"></rect><rect width="2%" height="100%" x="53%" fill="#ae5e00"></rect><rect width="2%" height="100%" x="54%" fill="#ac5e00"></rect><rect width="2%" height="100%" x="55%" fill="#ab5f00"></rect><rect width="2%" height="100%" x="55%" fill="#a96000"></rect><rect width="2%" height="100%" x="56%" fill="#a86000"></rect><rect width="2%" height="100%" x="57%" fill="#a66100"></rect><rect width="2%" height="100%" x="58%" fill="#a56200"></rect><rect width="2%" height="100%" x="59%" fill="#a36200"></rect><rect width="2%" height="100%" x="59%" fill="#a26300"></rect><rect width="2%" height="100%" x="60%" fill="#a06400"></rect><rect width="2%" height="100%" x="61%" fill="#9e6400"></rect><rect width="2%" height="100%" x="62%" fill="#9d6500"></rect><rect width="2%" height="100%" x="62%" fill="#9b6600"></rect><rect width="2%" height="100%" x="63%" fill="#996600"></rect><rect width="2%" height="100%" x="64%" fill="#986700"></rect><rect width="2%" height="100%" x="65%" fill="#966700"></rect><rect width="2%" height="100%" x="66%" fill="#946800"></rect><rect width="2%" height="100%" x="66%" fill="#936900"></rect><rect width="2%" height="100%" x="67%" fill="#916900"></rect><rect width="2%" height="100%" x="68%" fill="#8f6a00"></rect><rect width="2%" height="100%" x="69%" fill="#8d6b00"></rect><rect width="2%" height="100%" x="70%" fill="#8b6b00"></rect><rect width="2%" height="100%" x="70%" fill="#8a6c00"></rect><rect width="2%" height="100%" x="71%" fill="#886c00"></rect><rect width="2%" height="100%" x="72%" fill="#866d00"></rect><rect width="2%" height="100%" x="73%" fill="#846e00"></rect><rect width="2%" height="100%" x="74%" fill="#826e00"></rect><rect width="2%" height="100%" x="74%" fill="#806f00"></rect><rect width="2%" height="100%" x="75%" fill="#7e6f00"></rect><rect width="2%" height="100%" x="76%" fill="#7c7000"></rect><rect width="2%" height="100%" x="77%" fill="#7a7000"></rect><rect width="2%" height="100%" x="77%" fill="#787100"></rect><rect width="2%" height="100%" x="78%" fill="#767200"></rect><rect width="2%" height="100%" x="79%" fill="#737200"></rect><rect width="2%" height="100%" x="80%" fill="#717300"></rect><rect width="2%" height="100%" x="81%" fill="#6f7300"></rect><rect width="2%" height="100%" x="81%" fill="#6d7400"></rect><rect width="2%" height="100%" x="82%" fill="#6a7400"></rect><rect width="2%" height="100%" x="83%" fill="#687500"></rect><rect width="2%" height="100%" x="84%" fill="#657500"></rect><rect width="2%" height="100%" x="85%" fill="#637600"></rect><rect width="2%" height="100%" x="85%" fill="#607700"></rect><rect width="2%" height="100%" x="86%" fill="#5d7700"></rect><rect width="2%" height="100%" x="87%" fill="#5b7800"></rect><rect width="2%" height="100%" x="88%" fill="#587800"></rect><rect width="2%" height="100%" x="88%" fill="#557900"></rect><rect width="2%" height="100%" x="89%" fill="#527900"></rect><rect width="2%" height="100%" x="90%" fill="#4e7a00"></rect><rect width="2%" height="100%" x="91%" fill="#4b7a00"></rect><rect width="2%" height="100%" x="92%" fill="#487b00"></rect><rect width="2%" height="100%" x="92%" fill="#447b00"></rect><rect width="2%" height="100%" x="93%" fill="#407c00"></rect><rect width="2%" height="100%" x="94%" fill="#3c7c00"></rect><rect width="2%" height="100%" x="95%" fill="#377d00"></rect><rect width="2%" height="100%" x="96%" fill="#337d00"></rect><rect width="2%" height="100%" x="96%" fill="#2d7e00"></rect><rect width="2%" height="100%" x="97%" fill="#277e00"></rect><rect width="2%" height="100%" x="98%" fill="#207f00"></rect><rect width="2%" height="100%" x="99%" fill="#177f00"></rect><rect width="2%" height="100%" x="100%" fill="#008000"></rect><text x="0%" y="95%" fill="rgb(255,255,255)" text-anchor="start" style="font-family:monospace;font-size:smaller">0</text><text x="100%" y="95%" fill="rgb(255,255,255)" text-anchor="end" style="font-family:monospace;font-size:smaller">1</text></svg>