<svg xmlns="http://www.w3.org/2000/svg" width="256px" height="22px"><rect width="2%" height="100%" x="0%" fill="#000000"></rect><rect width="2%" height="100%" x="0%" fill="#060000"></rect><rect width="2%" height="100%" x="1%" fill="#0c0000"></rect><rect width="2%" height="100%" x="2%" fill="#120000"></rect><rect width="2%" height="100%" x="3%" fill="#180000"></rect><rect width="2%" height="100%" x="3%" fill="#1e0000"></rect><rect width="2%" height="100%" x="4%" fill="#240000"></rect><rect width="2%" height="100%" x="5%" fill="#2a0000"></rect><rect width="2%" height="100%" x="6%" fill="#300000"></rect><rect width="2%" height="100%" x="7%" fill="#360000"></rect><rect width="2%" height="100%" x="7%" fill="#3c0000"></rect><rect width="2%" height="100%" x="8%" fill="#420000"></rect><rect width="2%" height="100%" x="9%" fill="#480000"></rect><rect width="2%" height="100%" x="10%" fill="#4e0000"></rect><rect width="2%" height="100%" x="11%" fill="#540000"></rect><rect width="2%" height="100%" x="11%" fill="#5a0000"></rect><rect width="2%" height="100%" x="12%" fill="#600000"></rect><rect width="2%" height="100%" x="13%" fill="#660000"></rect><rect width="2%" height="100%" x="14%" fill="#6c0000"></rect><rect width="2%" height="100%" x="14%" fill="#720000"></rect><rect width="2%" height="100%" x="15%" fill="#780000"></rect><rect width="2%" height="100%" x="16%" fill="#7e0000"></rect><rect width="2%" height="100%" x="17%" fill="#850000"></rect><rect width="2%" height="100%" x="18%" fill="#8b0000"></rect><rect width="2%" height="100%" x="18%" fill="#910000"></rect><rect width="2%" height="100%" x="19%" fill="#970000"></rect><rect width="2%" height="100%" x="20%" fill="#9d0000"></rect><rect width="2%" height="100%" x="21%" fill="#a30000"></rect><rect width="2%" height="100%" x="22%" fill="#a90000"></rect><rect width="2%" height="100%" x="22%" fill="#af0000"></rect><rect width="2%" height="100%" x="23%" fill="#b50000"></rect><rect width="2%" height="100%" x="24%" fill="#bb0000"></rect><rect width="2%" height="100%" x="25%" fill="#c10000"></rect><rect width="2%" height="100%" x="25%" fill="#c70000"></rect><rect width="2%" height="100%" x="26%" fill="#cd0000"></rect><rect width="2%" height="100%" x="27%" fill="#d30000"></rect><rect width="2%" height="100%" x="28%" fill="#d90000"></rect><rect width="2%" height="100%" x="29%" fill="#df0000"></rect><rect width="2%" height="100%" x="29%" fill="#e50000"></rect><rect width="2%" height="100%" x="30%" fill="#eb0000"></rect><rect width="2%" height="100%" x="31%" fill="#f10000"></rect><rect width="2%" height="100%" x="32%" fill="#f70000"></rect><rect width="2%" height="100%" x="33%" fill="#fd0000"></rect><rect width="2%" height="100%" x="33%" fill="#ff0400"></rect><rect width="2%" height="100%" x="34%" fill="#ff0a00"></rect><rect width="2%" height="100%" x="35%" fill="#ff1000"></rect><rect width="2%" height="100%" x="36%" fill="#ff1600"></rect><rect width="2%" height="100%" x="37%" fill="#ff1c00"></rect><rect width="2%" height="100%" x="37%" fill="#ff2200"></rect><rect width="2%" height="100%" x="38%" fill="#ff2800"></rect><rect width="2%" height="100%" x="39%" fill="#ff2e00"></rect><rect width="2%" height="100%" x="40%" fill="#ff3400"></rect><rect width="2%" height="100%" x="40%" fill="#ff3a00"></rect><rect width="2%" height="100%" x="41%" fill="#ff4000"></rect><rect width="2%" height="100%" x="42%" fill="#ff4600"></rect><rect width="2%" height="100%" x="43%" fill="#ff4c00"></rect><rect width="2%" height="100%" x="44%" fill="#ff5200"></rect><rect width="2%" height="100%" x="44%" fill="#ff5800"></rect><rect width="2%" height="100%" x="45%" fill="#ff5e00"></rect><rect width="2%" height="100%" x="46%" fill="#ff6400"></rect><rect width="2%" height="100%" x="47%" fill="#ff6a00"></rect><rect width="2%" height="100%" x="48%" fill="#ff7000"></rect><rect width="2%" height="100%" x="48%" fill="#ff7600"></rect><rect width="2%" height="100%" x="49%" fill="#ff7c00"></rect><rect width="2%" height="100%" x="50%" fill="#ff8300"></rect><rect width="2%" height="100%" x="51%" fill="#ff8900"></rect><rect width="2%" height="100%" x="51%" fill="#ff8f00"></rect><rect width="2%" height="100%" x="52%" fill="#ff9500"></rect><rect width="2%" height="100%" x="53%" fill="#ff9b00"></rect><rect width="2%" height="100%" x="54%" fill="#ffa100"></rect><rect width="2%" height="100%" x="55%" fill="#ffa700"></rect><rect width="2%" height="100%" x="55%" fill="#ffad00"></rect><rect width="2%" height="100%" x="56%" fill="#ffb300"></rect><rect width="2%" height="100%" x="57%" fill="#ffb900"></rect><rect width="2%" height="100%" x="58%" fill="#ffbf00"></rect><rect width="2%" height="100%" x="59%" fill="#ffc500"></rect><rect width="2%" height="100%" x="59%" fill="#ffcb00"></rect><rect width="2%" height="100%" x="60%" fill="#ffd100"></rect><rect width="2%" height="100%" x="61%" fill="#ffd700"></rect><rect width="2%" height="100%" x="62%" fill="#ffdd00"></rect><rect width="2%" height="100%" x="62%" fill="#ffe300"></rect><rect width="2%" height="100%" x="63%" fill="#ffe900"></rect><rect width="2%" height="100%" x="64%" fill="#ffef00"></rect><rect width="2%" height="100%" x="65%" fill="#fff500"></rect><rect width="2%" height="100%" x="66%" fill="#fffb00"></rect><rect width="2%" height="100%" x="66%" fill="#ffff02"></rect><rect width="2%" height="100%" x="67%" fill="#ffff08"></rect><rect width="2%" height="100%" x="68%" fill="#ffff0e"></rect><rect width="2%" height="100%" x="69%" fill="#ffff14"></rect><rect width="2%" height="100%" x="70%" fill="#ffff1a"></rect><rect width="2%" height="100%" x="70%" fill="#ffff20"></rect><rect width="2%" height="100%" x="71%" fill="#ffff26"></rect><rect width="2%" height="100%" x="72%" fill="#ffff2c"></rect><rect width="2%" height="100%" x="73%" fill="#ffff32"></rect><rect width="2%" height="100%" x="74%" fill="#ffff38"></rect><rect width="2%" height="100%" x="74%" fill="#ffff3e"></rect><rect width="2%" height="100%" x="75%" fill="#ffff44"></rect><rect width="2%" height="100%" x="76%" fill="#ffff4a"></rect><rect width="2%" height="100%" x="77%" fill="#ffff50"></rect><rect width="2%" height="100%" x="77%" fill="#ffff56"></rect><rect width="2%" height="100%" x="78%" fill="#ffff5c"></rect><rect width="2%" height="100%" x="79%" fill="#ffff62"></rect><rect width="2%" height="100%" x="80%" fill="#ffff68"></rect><rect width="2%" height="100%" x="81%" fill="#ffff6e"></rect><rect width="2%" height="100%" x="81%" fill="#ffff74"></rect><rect width="2%" height="100%" x="82%" fill="#ffff7a"></rect><rect width="2%" height="100%" x="83%" fill="#ffff81"></rect><rect width="2%" height="100%" x="84%" fill="#ffff87"></rect><rect width="2%" height="100%" x="85%" fill="#ffff8d"></rect><rect width="2%" height="100%" x="85%" fill="#ffff93"></rect><rect width="2%" height="100%" x="86%" fill="#ffff99"></rect><rect width="2%" height="100%" x="87%" fill="#ffff9f"></rect><rect width="2%" height="100%" x="88%" fill="#ffffa5"></rect><rect width="2%" height="100%" x="88%" fill="#ffffab"></rect><rect width="2%" height="100%" x="89%" fill="#ffffb1"></rect><rect width="2%" height="100%" x="90%" fill="#ffffb7"></rect><rect width="2%" height="100%" x="91%" fill="#ffffbd"></rect><rect width="2%" height="100%" x="92%" fill="#ffffc3"></rect><rect width="2%" height="100%" x="92%" fill="#ffffc9"></rect><rect width="2%" height="100%" x="93%" fill="#ffffcf"></rect><rect width="2%" height="100%" x="94%" fill="#ffffd5"></rect><rect width="2%" height="100%" x="95%" fill="#ffffdb"></rect><rect width="2%" height="100%" x="96%" fill="#ffffe1"></rect><rect width="2%" height="100%" x="96%" fill="#ffffe7"></rect><rect width="2%" height="100%" x="97%" fill="#ffffed"></rect><rect width="2%" height="100%" x="98%" fill="#fffff3"></rect><rect width="2%" height="100%" x="99%" fill="#fffff9"></rect><rect width="2%" height="100%" x="100%" fill="#ffffff"></rect><text x="0%" y="95%" fill="rgb(255,255,255)" text-anchor="start" style="font-family:monospace;font-size:smaller">0</text><text x="33%" y="95%" fill="rgb(255,255,255)" text-anchor="middle" style="font-family:monospace;font-size:smaller">0.33</text><text x="66%" y="95%" fill="rgb(0,0,0)" text-anchor="middle" style="font-family:monospace;font-size:smaller">0.67</text><text x="100%" y="95%" fill="rgb(0,0,0)" text-anchor="end" style="font-family:monospace;font-size:smaller">1</text></svg>