<svg xmlns="http://www.w3.org/2000/svg" width="256px" height="22px"><rect width="2%" height="100%" x="0%" fill="#000000"></rect><rect width="2%" height="100%" x="0%" fill="#030103"></rect><rect width="2%" height="100%" x="1%" fill="#070206"></rect><rect width="2%" height="100%" x="2%" fill="#0a030a"></rect><rect width="2%" height="100%" x="3%" fill="#0c050e"></rect><rect width="2%" height="100%" x="3%" fill="#0f0611"></rect><rect width="2%" height="100%" x="4%" fill="#110815"></rect><rect width="2%" height="100%" x="5%" fill="#130919"></rect><rect width="2%" height="100%" x="6%" fill="#150b1d"></rect><rect width="2%" height="100%" x="7%" fill="#160d21"></rect><rect width="2%" height="100%" x="7%" fill="#180f25"></rect><rect width="2%" height="100%" x="8%" fill="#191129"></rect><rect width="2%" height="100%" x="9%" fill="#1a132d"></rect><rect width="2%" height="100%" x="10%" fill="#1a1631"></rect><rect width="2%" height="100%" x="11%" fill="#1a1835"></rect><rect width="2%" height="100%" x="11%" fill="#1b1b38"></rect><rect width="2%" height="100%" x="12%" fill="#1b1e3c"></rect><rect width="2%" height="100%" x="13%" fill="#1a213f"></rect><rect width="2%" height="100%" x="14%" fill="#1a2441"></rect><rect width="2%" height="100%" x="14%" fill="#1a2744"></rect><rect width="2%" height="100%" x="15%" fill="#192a46"></rect><rect width="2%" height="100%" x="16%" fill="#192d48"></rect><rect width="2%" height="100%" x="17%" fill="#18314a"></rect><rect width="2%" height="100%" x="18%" fill="#17344c"></rect><rect width="2%" height="100%" x="18%" fill="#17384d"></rect><rect width="2%" height="100%" x="19%" fill="#163b4e"></rect><rect width="2%" height="100%" x="20%" fill="#163f4e"></rect><rect width="2%" height="100%" x="21%" fill="#15424e"></rect><rect width="2%" height="100%" x="22%" fill="#15464e"></rect><rect width="2%" height="100%" x="22%" fill="#15494e"></rect><rect width="2%" height="100%" x="23%" fill="#154d4e"></rect><rect width="2%" height="100%" x="24%" fill="#15504d"></rect><rect width="2%" height="100%" x="25%" fill="#16544c"></rect><rect width="2%" height="100%" x="25%" fill="#17574a"></rect><rect width="2%" height="100%" x="26%" fill="#185a49"></rect><rect width="2%" height="100%" x="27%" fill="#195d47"></rect><rect width="2%" height="100%" x="28%" fill="#1a6046"></rect><rect width="2%" height="100%" x="29%" fill="#1c6344"></rect><rect width="2%" height="100%" x="29%" fill="#1e6642"></rect><rect width="2%" height="100%" x="30%" fill="#216840"></rect><rect width="2%" height="100%" x="31%" fill="#246a3e"></rect><rect width="2%" height="100%" x="32%" fill="#276d3c"></rect><rect width="2%" height="100%" x="33%" fill="#2a6f3a"></rect><rect width="2%" height="100%" x="33%" fill="#2e7138"></rect><rect width="2%" height="100%" x="34%" fill="#327236"></rect><rect width="2%" height="100%" x="35%" fill="#367434"></rect><rect width="2%" height="100%" x="36%" fill="#3b7533"></rect><rect width="2%" height="100%" x="37%" fill="#407632"></rect><rect width="2%" height="100%" x="37%" fill="#457730"></rect><rect width="2%" height="100%" x="38%" fill="#4a7830"></rect><rect width="2%" height="100%" x="39%" fill="#4f792f"></rect><rect width="2%" height="100%" x="40%" fill="#557a2f"></rect><rect width="2%" height="100%" x="40%" fill="#5b7a2f"></rect><rect width="2%" height="100%" x="41%" fill="#617a2f"></rect><rect width="2%" height="100%" x="42%" fill="#677a30"></rect><rect width="2%" height="100%" x="43%" fill="#6d7b31"></rect><rect width="2%" height="100%" x="44%" fill="#737b32"></rect><rect width="2%" height="100%" x="44%" fill="#797a34"></rect><rect width="2%" height="100%" x="45%" fill="#807a36"></rect><rect width="2%" height="100%" x="46%" fill="#867a39"></rect><rect width="2%" height="100%" x="47%" fill="#8c7a3c"></rect><rect width="2%" height="100%" x="48%" fill="#927a3f"></rect><rect width="2%" height="100%" x="48%" fill="#987943"></rect><rect width="2%" height="100%" x="49%" fill="#9d7947"></rect><rect width="2%" height="100%" x="50%" fill="#a3794b"></rect><rect width="2%" height="100%" x="51%" fill="#a87950"></rect><rect width="2%" height="100%" x="51%" fill="#ad7955"></rect><rect width="2%" height="100%" x="52%" fill="#b2795a"></rect><rect width="2%" height="100%" x="53%" fill="#b67960"></rect><rect width="2%" height="100%" x="54%" fill="#bb7965"></rect><rect width="2%" height="100%" x="55%" fill="#bf796b"></rect><rect width="2%" height="100%" x="55%" fill="#c27a71"></rect><rect width="2%" height="100%" x="56%" fill="#c57a78"></rect><rect width="2%" height="100%" x="57%" fill="#c87b7e"></rect><rect width="2%" height="100%" x="58%" fill="#cb7c84"></rect><rect width="2%" height="100%" x="59%" fill="#cd7d8b"></rect><rect width="2%" height="100%" x="59%" fill="#cf7e91"></rect><rect width="2%" height="100%" x="60%" fill="#d17f98"></rect><rect width="2%" height="100%" x="61%" fill="#d2819e"></rect><rect width="2%" height="100%" x="62%" fill="#d383a5"></rect><rect width="2%" height="100%" x="62%" fill="#d485ab"></rect><rect width="2%" height="100%" x="63%" fill="#d487b1"></rect><rect width="2%" height="100%" x="64%" fill="#d589b7"></rect><rect width="2%" height="100%" x="65%" fill="#d48bbd"></rect><rect width="2%" height="100%" x="66%" fill="#d48ec2"></rect><rect width="2%" height="100%" x="66%" fill="#d391c8"></rect><rect width="2%" height="100%" x="67%" fill="#d393cd"></rect><rect width="2%" height="100%" x="68%" fill="#d296d2"></rect><rect width="2%" height="100%" x="69%" fill="#d19ad6"></rect><rect width="2%" height="100%" x="70%" fill="#cf9dda"></rect><rect width="2%" height="100%" x="70%" fill="#cea0de"></rect><rect width="2%" height="100%" x="71%" fill="#cda4e2"></rect><rect width="2%" height="100%" x="72%" fill="#cba7e5"></rect><rect width="2%" height="100%" x="73%" fill="#caabe8"></rect><rect width="2%" height="100%" x="74%" fill="#c9aeea"></rect><rect width="2%" height="100%" x="74%" fill="#c7b2ec"></rect><rect width="2%" height="100%" x="75%" fill="#c6b6ee"></rect><rect width="2%" height="100%" x="76%" fill="#c5b9f0"></rect><rect width="2%" height="100%" x="77%" fill="#c4bdf1"></rect><rect width="2%" height="100%" x="77%" fill="#c3c1f2"></rect><rect width="2%" height="100%" x="78%" fill="#c2c4f3"></rect><rect width="2%" height="100%" x="79%" fill="#c2c8f3"></rect><rect width="2%" height="100%" x="80%" fill="#c1cbf3"></rect><rect width="2%" height="100%" x="81%" fill="#c1cff3"></rect><rect width="2%" height="100%" x="81%" fill="#c1d2f3"></rect><rect width="2%" height="100%" x="82%" fill="#c2d5f3"></rect><rect width="2%" height="100%" x="83%" fill="#c3d9f3"></rect><rect width="2%" height="100%" x="84%" fill="#c4dcf2"></rect><rect width="2%" height="100%" x="85%" fill="#c5def2"></rect><rect width="2%" height="100%" x="85%" fill="#c6e1f1"></rect><rect width="2%" height="100%" x="86%" fill="#c8e4f0"></rect><rect width="2%" height="100%" x="87%" fill="#cae6f0"></rect><rect width="2%" height="100%" x="88%" fill="#cce9ef"></rect><rect width="2%" height="100%" x="88%" fill="#cfebef"></rect><rect width="2%" height="100%" x="89%" fill="#d1edef"></rect><rect width="2%" height="100%" x="90%" fill="#d4efef"></rect><rect width="2%" height="100%" x="91%" fill="#d7f1ef"></rect><rect width="2%" height="100%" x="92%" fill="#dbf3ef"></rect><rect width="2%" height="100%" x="92%" fill="#def4ef"></rect><rect width="2%" height="100%" x="93%" fill="#e1f6f0"></rect><rect width="2%" height="100%" x="94%" fill="#e5f7f1"></rect><rect width="2%" height="100%" x="95%" fill="#e9f8f2"></rect><rect width="2%" height="100%" x="96%" fill="#edf9f4"></rect><rect width="2%" height="100%" x="96%" fill="#f0fbf5"></rect><rect width="2%" height="100%" x="97%" fill="#f4fcf7"></rect><rect width="2%" height="100%" x="98%" fill="#f8fdfa"></rect><rect width="2%" height="100%" x="99%" fill="#fbfefc"></rect><rect width="2%" height="100%" x="100%" fill="#ffffff"></rect><text x="0%" y="95%" fill="rgb(255,255,255)" text-anchor="start" style="font-family:monospace;font-size:smaller">0</text><text x="100%" y="95%" fill="rgb(0,0,0)" text-anchor="end" style="font-family:monospace;font-size:smaller">1</text></svg>