<svg xmlns="http://www.w3.org/2000/svg" width="256px" height="22px"><rect width="2%" height="100%" x="0%" fill="#ff0000"></rect><rect width="2%" height="100%" x="0%" fill="#fe0a00"></rect><rect width="2%" height="100%" x="1%" fill="#fc1200"></rect><rect width="2%" height="100%" x="2%" fill="#fb1800"></rect><rect width="2%" height="100%" x="3%" fill="#f91d00"></rect><rect width="2%" height="100%" x="3%" fill="#f82100"></rect><rect width="2%" height="100%" x="4%" fill="#f62500"></rect><rect width="2%" height="100%" x="5%" fill="#f52800"></rect><rect width="2%" height="100%" x="6%" fill="#f42b00"></rect><rect width="2%" height="100%" x="7%" fill="#f22d00"></rect><rect width="2%" height="100%" x="7%" fill="#f13000"></rect><rect width="2%" height="100%" x="8%" fill="#ef3200"></rect><rect width="2%" height="100%" x="9%" fill="#ee3500"></rect><rect width="2%" height="100%" x="10%" fill="#ec3700"></rect><rect width="2%" height="100%" x="11%" fill="#eb3900"></rect><rect width="2%" height="100%" x="11%" fill="#e93b00"></rect><rect width="2%" height="100%" x="12%" fill="#e83d00"></rect><rect width="2%" height="100%" x="13%" fill="#e73e00"></rect><rect width="2%" height="100%" x="14%" fill="#e54000"></rect><rect width="2%" height="100%" x="14%" fill="#e44200"></rect><rect width="2%" height="100%" x="15%" fill="#e24300"></rect><rect width="2%" height="100%" x="16%" fill="#e14500"></rect><rect width="2%" height="100%" x="17%" fill="#df4600"></rect><rect width="2%" height="100%" x="18%" fill="#de4800"></rect><rect width="2%" height="100%" x="18%" fill="#dc4900"></rect><rect width="2%" height="100%" x="19%" fill="#db4b00"></rect><rect width="2%" height="100%" x="20%" fill="#da4c00"></rect><rect width="2%" height="100%" x="21%" fill="#d84d00"></rect><rect width="2%" height="100%" x="22%" fill="#d74e00"></rect><rect width="2%" height="100%" x="22%" fill="#d54f00"></rect><rect width="2%" height="100%" x="23%" fill="#d45100"></rect><rect width="2%" height="100%" x="24%" fill="#d25200"></rect><rect width="2%" height="100%" x="25%" fill="#d15300"></rect><rect width="2%" height="100%" x="25%" fill="#cf5400"></rect><rect width="2%" height="100%" x="26%" fill="#ce5500"></rect><rect width="2%" height="100%" x="27%" fill="#cc5600"></rect><rect width="2%" height="100%" x="28%" fill="#cb5700"></rect><rect width="2%" height="100%" x="29%" fill="#c95800"></rect><rect width="2%" height="100%" x="29%" fill="#c85900"></rect><rect width="2%" height="100%" x="30%" fill="#c65a00"></rect><rect width="2%" height="100%" x="31%" fill="#c55b00"></rect><rect width="2%" height="100%" x="32%" fill="#c45c00"></rect><rect width="2%" height="100%" x="33%" fill="#c25c00"></rect><rect width="2%" height="100%" x="33%" fill="#c15d00"></rect><rect width="2%" height="100%" x="34%" fill="#bf5e00"></rect><rect width="2%" height="100%" x="35%" fill="#be5f00"></rect><rect width="2%" height="100%" x="36%" fill="#bc6000"></rect><rect width="2%" height="100%" x="37%" fill="#bb6100"></rect><rect width="2%" height="100%" x="37%" fill="#b96100"></rect><rect width="2%" height="100%" x="38%" fill="#b86200"></rect><rect width="2%" height="100%" x="39%" fill="#b66300"></rect><rect width="2%" height="100%" x="40%" fill="#b56400"></rect><rect width="2%" height="100%" x="40%" fill="#b36400"></rect><rect width="2%" height="100%" x="41%" fill="#b26500"></rect><rect width="2%" height="100%" x="42%" fill="#b06600"></rect><rect width="2%" height="100%" x="43%" fill="#ae6600"></rect><rect width="2%" height="100%" x="44%" fill="#ad6700"></rect><rect width="2%" height="100%" x="44%" fill="#ab6800"></rect><rect width="2%" height="100%" x="45%" fill="#aa6800"></rect><rect width="2%" height="100%" x="46%" fill="#a86900"></rect><rect width="2%" height="100%" x="47%" fill="#a76900"></rect><rect width="2%" height="100%" x="48%" fill="#a56a00"></rect><rect width="2%" height="100%" x="48%" fill="#a46b00"></rect><rect width="2%" height="100%" x="49%" fill="#a26b00"></rect><rect width="2%" height="100%" x="50%" fill="#a16c00"></rect><rect width="2%" height="100%" x="51%" fill="#9f6c00"></rect><rect width="2%" height="100%" x="51%" fill="#9d6d00"></rect><rect width="2%" height="100%" x="52%" fill="#9c6d00"></rect><rect width="2%" height="100%" x="53%" fill="#9a6e00"></rect><rect width="2%" height="100%" x="54%" fill="#996e00"></rect><rect width="2%" height="100%" x="55%" fill="#976f00"></rect><rect width="2%" height="100%" x="55%" fill="#956f00"></rect><rect width="2%" height="100%" x="56%" fill="#947000"></rect><rect width="2%" height="100%" x="57%" fill="#927000"></rect><rect width="2%" height="100%" x="58%" fill="#917100"></rect><rect width="2%" height="100%" x="59%" fill="#8f7100"></rect><rect width="2%" height="100%" x="59%" fill="#8d7200"></rect><rect width="2%" height="100%" x="60%" fill="#8c7200"></rect><rect width="2%" height="100%" x="61%" fill="#8a7300"></rect><rect width="2%" height="100%" x="62%" fill="#887300"></rect><rect width="2%" height="100%" x="62%" fill="#877300"></rect><rect width="2%" height="100%" x="63%" fill="#857400"></rect><rect width="2%" height="100%" x="64%" fill="#837400"></rect><rect width="2%" height="100%" x="65%" fill="#827500"></rect><rect width="2%" height="100%" x="66%" fill="#807500"></rect><rect width="2%" height="100%" x="66%" fill="#7e7500"></rect><rect width="2%" height="100%" x="67%" fill="#7c7600"></rect><rect width="2%" height="100%" x="68%" fill="#7b7600"></rect><rect width="2%" height="100%" x="69%" fill="#797600"></rect><rect width="2%" height="100%" x="70%" fill="#777700"></rect><rect width="2%" height="100%" x="70%" fill="#757700"></rect><rect width="2%" height="100%" x="71%" fill="#737700"></rect><rect width="2%" height="100%" x="72%" fill="#727800"></rect><rect width="2%" height="100%" x="73%" fill="#707800"></rect><rect width="2%" height="100%" x="74%" fill="#6e7800"></rect><rect width="2%" height="100%" x="74%" fill="#6c7900"></rect><rect width="2%" height="100%" x="75%" fill="#6a7900"></rect><rect width="2%" height="100%" x="76%" fill="#687900"></rect><rect width="2%" height="100%" x="77%" fill="#667a00"></rect><rect width="2%" height="100%" x="77%" fill="#647a00"></rect><rect width="2%" height="100%" x="78%" fill="#627a00"></rect><rect width="2%" height="100%" x="79%" fill="#607b00"></rect><rect width="2%" height="100%" x="80%" fill="#5e7b00"></rect><rect width="2%" height="100%" x="81%" fill="#5c7b00"></rect><rect width="2%" height="100%" x="81%" fill="#5a7b00"></rect><rect width="2%" height="100%" x="82%" fill="#587c00"></rect><rect width="2%" height="100%" x="83%" fill="#557c00"></rect><rect width="2%" height="100%" x="84%" fill="#537c00"></rect><rect width="2%" height="100%" x="85%" fill="#517c00"></rect><rect width="2%" height="100%" x="85%" fill="#4f7d00"></rect><rect width="2%" height="100%" x="86%" fill="#4c7d00"></rect><rect width="2%" height="100%" x="87%" fill="#4a7d00"></rect><rect width="2%" height="100%" x="88%" fill="#477d00"></rect><rect width="2%" height="100%" x="88%" fill="#447d00"></rect><rect width="2%" height="100%" x="89%" fill="#427e00"></rect><rect width="2%" height="100%" x="90%" fill="#3f7e00"></rect><rect width="2%" height="100%" x="91%" fill="#3c7e00"></rect><rect width="2%" height="100%" x="92%" fill="#397e00"></rect><rect width="2%" height="100%" x="92%" fill="#367e00"></rect><rect width="2%" height="100%" x="93%" fill="#327f00"></rect><rect width="2%" height="100%" x="94%" fill="#2f7f00"></rect><rect width="2%" height="100%" x="95%" fill="#2b7f00"></rect><rect width="2%" height="100%" x="96%" fill="#267f00"></rect><rect width="2%" height="100%" x="96%" fill="#227f00"></rect><rect width="2%" height="100%" x="97%" fill="#1c8000"></rect><rect width="2%" height="100%" x="98%" fill="#158000"></rect><rect width="2%" height="100%" x="99%" fill="#0c8000"></rect><rect width="2%" height="100%" x="100%" fill="#008000"></rect><text x="0%" y="95%" fill="rgb(255,255,255)" text-anchor="start" style="font-family:monospace;font-size:smaller">0</text><text x="100%" y="95%" fill="rgb(255,255,255)" text-anchor="end" style="font-family:monospace;font-size:smaller">1</text></svg>