<svg xmlns="http://www.w3.org/2000/svg" width="256px" height="22px"><rect width="2%" height="100%" x="0%" fill="#010001"></rect><rect width="2%" height="100%" x="0%" fill="#060206"></rect><rect width="2%" height="100%" x="1%" fill="#0a040b"></rect><rect width="2%" height="100%" x="2%" fill="#0e0610"></rect><rect width="2%" height="100%" x="3%" fill="#120816"></rect><rect width="2%" height="100%" x="3%" fill="#140a1a"></rect><rect width="2%" height="100%" x="4%" fill="#150b1e"></rect><rect width="2%" height="100%" x="5%" fill="#170d22"></rect><rect width="2%" height="100%" x="6%" fill="#180f26"></rect><rect width="2%" height="100%" x="7%" fill="#19112a"></rect><rect width="2%" height="100%" x="7%" fill="#19132c"></rect><rect width="2%" height="100%" x="8%" fill="#1a1530"></rect><rect width="2%" height="100%" x="9%" fill="#1a1632"></rect><rect width="2%" height="100%" x="10%" fill="#1a1935"></rect><rect width="2%" height="100%" x="11%" fill="#1b1a37"></rect><rect width="2%" height="100%" x="11%" fill="#1b1d3a"></rect><rect width="2%" height="100%" x="12%" fill="#1b1e3c"></rect><rect width="2%" height="100%" x="13%" fill="#1a203d"></rect><rect width="2%" height="100%" x="14%" fill="#1a2340"></rect><rect width="2%" height="100%" x="14%" fill="#1a2442"></rect><rect width="2%" height="100%" x="15%" fill="#1a2744"></rect><rect width="2%" height="100%" x="16%" fill="#192945"></rect><rect width="2%" height="100%" x="17%" fill="#192a47"></rect><rect width="2%" height="100%" x="18%" fill="#192c48"></rect><rect width="2%" height="100%" x="18%" fill="#182f49"></rect><rect width="2%" height="100%" x="19%" fill="#18314a"></rect><rect width="2%" height="100%" x="20%" fill="#18334b"></rect><rect width="2%" height="100%" x="21%" fill="#17364c"></rect><rect width="2%" height="100%" x="22%" fill="#17384d"></rect><rect width="2%" height="100%" x="22%" fill="#163a4d"></rect><rect width="2%" height="100%" x="23%" fill="#163c4e"></rect><rect width="2%" height="100%" x="24%" fill="#163f4e"></rect><rect width="2%" height="100%" x="25%" fill="#15414e"></rect><rect width="2%" height="100%" x="25%" fill="#15434e"></rect><rect width="2%" height="100%" x="26%" fill="#15464e"></rect><rect width="2%" height="100%" x="27%" fill="#15484e"></rect><rect width="2%" height="100%" x="28%" fill="#154a4e"></rect><rect width="2%" height="100%" x="29%" fill="#154b4e"></rect><rect width="2%" height="100%" x="29%" fill="#154f4d"></rect><rect width="2%" height="100%" x="30%" fill="#15504d"></rect><rect width="2%" height="100%" x="31%" fill="#16544c"></rect><rect width="2%" height="100%" x="32%" fill="#16554b"></rect><rect width="2%" height="100%" x="33%" fill="#17574a"></rect><rect width="2%" height="100%" x="33%" fill="#185a49"></rect><rect width="2%" height="100%" x="34%" fill="#185c48"></rect><rect width="2%" height="100%" x="35%" fill="#1a5f46"></rect><rect width="2%" height="100%" x="36%" fill="#1a6046"></rect><rect width="2%" height="100%" x="37%" fill="#1c6344"></rect><rect width="2%" height="100%" x="37%" fill="#1e6542"></rect><rect width="2%" height="100%" x="38%" fill="#1f6741"></rect><rect width="2%" height="100%" x="39%" fill="#22693f"></rect><rect width="2%" height="100%" x="40%" fill="#256b3d"></rect><rect width="2%" height="100%" x="40%" fill="#286e3b"></rect><rect width="2%" height="100%" x="41%" fill="#2c7039"></rect><rect width="2%" height="100%" x="42%" fill="#2f7137"></rect><rect width="2%" height="100%" x="43%" fill="#367435"></rect><rect width="2%" height="100%" x="44%" fill="#3a7533"></rect><rect width="2%" height="100%" x="44%" fill="#417731"></rect><rect width="2%" height="100%" x="45%" fill="#497830"></rect><rect width="2%" height="100%" x="46%" fill="#51792f"></rect><rect width="2%" height="100%" x="47%" fill="#5a7a2f"></rect><rect width="2%" height="100%" x="48%" fill="#637a2f"></rect><rect width="2%" height="100%" x="48%" fill="#6c7b31"></rect><rect width="2%" height="100%" x="49%" fill="#757b33"></rect><rect width="2%" height="100%" x="50%" fill="#7e7a36"></rect><rect width="2%" height="100%" x="51%" fill="#877a3a"></rect><rect width="2%" height="100%" x="51%" fill="#907a3e"></rect><rect width="2%" height="100%" x="52%" fill="#967a42"></rect><rect width="2%" height="100%" x="53%" fill="#9f7948"></rect><rect width="2%" height="100%" x="54%" fill="#a7794f"></rect><rect width="2%" height="100%" x="55%" fill="#ac7954"></rect><rect width="2%" height="100%" x="55%" fill="#b3795b"></rect><rect width="2%" height="100%" x="56%" fill="#b77961"></rect><rect width="2%" height="100%" x="57%" fill="#bb7967"></rect><rect width="2%" height="100%" x="58%" fill="#c17a6f"></rect><rect width="2%" height="100%" x="59%" fill="#c47a76"></rect><rect width="2%" height="100%" x="59%" fill="#c87b7c"></rect><rect width="2%" height="100%" x="60%" fill="#cc7c85"></rect><rect width="2%" height="100%" x="61%" fill="#ce7d8c"></rect><rect width="2%" height="100%" x="62%" fill="#d07f96"></rect><rect width="2%" height="100%" x="62%" fill="#d2809c"></rect><rect width="2%" height="100%" x="63%" fill="#d382a2"></rect><rect width="2%" height="100%" x="64%" fill="#d485ac"></rect><rect width="2%" height="100%" x="65%" fill="#d487b2"></rect><rect width="2%" height="100%" x="66%" fill="#d589b8"></rect><rect width="2%" height="100%" x="66%" fill="#d48cbd"></rect><rect width="2%" height="100%" x="67%" fill="#d48fc6"></rect><rect width="2%" height="100%" x="68%" fill="#d392cb"></rect><rect width="2%" height="100%" x="69%" fill="#d295cf"></rect><rect width="2%" height="100%" x="70%" fill="#d198d4"></rect><rect width="2%" height="100%" x="70%" fill="#d09bd8"></rect><rect width="2%" height="100%" x="71%" fill="#cf9fdc"></rect><rect width="2%" height="100%" x="72%" fill="#cda2e0"></rect><rect width="2%" height="100%" x="73%" fill="#cca5e3"></rect><rect width="2%" height="100%" x="74%" fill="#cba9e6"></rect><rect width="2%" height="100%" x="74%" fill="#c9ade9"></rect><rect width="2%" height="100%" x="75%" fill="#c8b0eb"></rect><rect width="2%" height="100%" x="76%" fill="#c7b4ed"></rect><rect width="2%" height="100%" x="77%" fill="#c6b6ee"></rect><rect width="2%" height="100%" x="77%" fill="#c5b9f0"></rect><rect width="2%" height="100%" x="78%" fill="#c4bdf1"></rect><rect width="2%" height="100%" x="79%" fill="#c3c1f2"></rect><rect width="2%" height="100%" x="80%" fill="#c2c4f3"></rect><rect width="2%" height="100%" x="81%" fill="#c2c6f3"></rect><rect width="2%" height="100%" x="81%" fill="#c2c9f3"></rect><rect width="2%" height="100%" x="82%" fill="#c1cdf3"></rect><rect width="2%" height="100%" x="83%" fill="#c1d0f3"></rect><rect width="2%" height="100%" x="84%" fill="#c2d4f3"></rect><rect width="2%" height="100%" x="85%" fill="#c2d7f3"></rect><rect width="2%" height="100%" x="85%" fill="#c2d8f3"></rect><rect width="2%" height="100%" x="86%" fill="#c3dbf2"></rect><rect width="2%" height="100%" x="87%" fill="#c5def2"></rect><rect width="2%" height="100%" x="88%" fill="#c6e1f1"></rect><rect width="2%" height="100%" x="88%" fill="#c8e4f1"></rect><rect width="2%" height="100%" x="89%" fill="#cae6f0"></rect><rect width="2%" height="100%" x="90%" fill="#cdeaef"></rect><rect width="2%" height="100%" x="91%" fill="#d0ecef"></rect><rect width="2%" height="100%" x="92%" fill="#d2eeef"></rect><rect width="2%" height="100%" x="92%" fill="#d5f0ef"></rect><rect width="2%" height="100%" x="93%" fill="#daf2ef"></rect><rect width="2%" height="100%" x="94%" fill="#ddf4ef"></rect><rect width="2%" height="100%" x="95%" fill="#e3f6f0"></rect><rect width="2%" height="100%" x="96%" fill="#e6f7f1"></rect><rect width="2%" height="100%" x="96%" fill="#ecf9f3"></rect><rect width="2%" height="100%" x="97%" fill="#f0faf5"></rect><rect width="2%" height="100%" x="98%" fill="#f5fcf8"></rect><rect width="2%" height="100%" x="99%" fill="#fbfefb"></rect><rect width="2%" height="100%" x="100%" fill="#fefffe"></rect><text x="0%" y="95%" fill="rgb(255,255,255)" text-anchor="start" style="font-family:monospace;font-size:smaller">2</text><text x="100%" y="95%" fill="rgb(0,0,0)" text-anchor="end" style="font-family:monospace;font-size:smaller">22</text></svg>