<svg xmlns="http://www.w3.org/2000/svg" width="256px" height="22px"><rect width="2%" height="100%" x="0%" fill="#ff0000"></rect><rect width="2%" height="100%" x="0%" fill="#ff0000"></rect><rect width="2%" height="100%" x="1%" fill="#ff0000"></rect><rect width="2%" height="100%" x="2%" fill="#ff0c00"></rect><rect width="2%" height="100%" x="3%" fill="#ff3300"></rect><rect width="2%" height="100%" x="3%" fill="#ff4f00"></rect><rect width="2%" height="100%" x="4%" fill="#ff6400"></rect><rect width="2%" height="100%" x="5%" fill="#ff7600"></rect><rect width="2%" height="100%" x="6%" fill="#ff8500"></rect><rect width="2%" height="100%" x="7%" fill="#ff9123"></rect><rect width="2%" height="100%" x="7%" fill="#ff9c3b"></rect><rect width="2%" height="100%" x="8%" fill="#ffa64f"></rect><rect width="2%" height="100%" x="9%" fill="#ffaf61"></rect><rect width="2%" height="100%" x="10%" fill="#ffb771"></rect><rect width="2%" height="100%" x="11%" fill="#ffbe7f"></rect><rect width="2%" height="100%" x="11%" fill="#ffc58d"></rect><rect width="2%" height="100%" x="12%" fill="#ffcb99"></rect><rect width="2%" height="100%" x="13%" fill="#ffd0a4"></rect><rect width="2%" height="100%" x="14%" fill="#ffd5af"></rect><rect width="2%" height="100%" x="14%" fill="#ffdab9"></rect><rect width="2%" height="100%" x="15%" fill="#ffdfc3"></rect><rect width="2%" height="100%" x="16%" fill="#ffe3cc"></rect><rect width="2%" height="100%" x="17%" fill="#ffe7d4"></rect><rect width="2%" height="100%" x="18%" fill="#ffebdd"></rect><rect width="2%" height="100%" x="18%" fill="#ffefe4"></rect><rect width="2%" height="100%" x="19%" fill="#fff2ec"></rect><rect width="2%" height="100%" x="20%" fill="#fff5f4"></rect><rect width="2%" height="100%" x="21%" fill="#fff8fb"></rect><rect width="2%" height="100%" x="22%" fill="#fff9ff"></rect><rect width="2%" height="100%" x="22%" fill="#f9f5ff"></rect><rect width="2%" height="100%" x="23%" fill="#f3f2ff"></rect><rect width="2%" height="100%" x="24%" fill="#edefff"></rect><rect width="2%" height="100%" x="25%" fill="#e9ecff"></rect><rect width="2%" height="100%" x="25%" fill="#e4eaff"></rect><rect width="2%" height="100%" x="26%" fill="#e1e8ff"></rect><rect width="2%" height="100%" x="27%" fill="#dde6ff"></rect><rect width="2%" height="100%" x="28%" fill="#dae4ff"></rect><rect width="2%" height="100%" x="29%" fill="#d8e3ff"></rect><rect width="2%" height="100%" x="29%" fill="#d5e1ff"></rect><rect width="2%" height="100%" x="30%" fill="#d3e0ff"></rect><rect width="2%" height="100%" x="31%" fill="#d1deff"></rect><rect width="2%" height="100%" x="32%" fill="#ceddff"></rect><rect width="2%" height="100%" x="33%" fill="#cddcff"></rect><rect width="2%" height="100%" x="33%" fill="#cbdbff"></rect><rect width="2%" height="100%" x="34%" fill="#c9daff"></rect><rect width="2%" height="100%" x="35%" fill="#c7d9ff"></rect><rect width="2%" height="100%" x="36%" fill="#c6d8ff"></rect><rect width="2%" height="100%" x="37%" fill="#c4d7ff"></rect><rect width="2%" height="100%" x="37%" fill="#c3d6ff"></rect><rect width="2%" height="100%" x="38%" fill="#c2d5ff"></rect><rect width="2%" height="100%" x="39%" fill="#c0d4ff"></rect><rect width="2%" height="100%" x="40%" fill="#bfd4ff"></rect><rect width="2%" height="100%" x="40%" fill="#bed3ff"></rect><rect width="2%" height="100%" x="41%" fill="#bdd2ff"></rect><rect width="2%" height="100%" x="42%" fill="#bcd1ff"></rect><rect width="2%" height="100%" x="43%" fill="#bbd1ff"></rect><rect width="2%" height="100%" x="44%" fill="#bad0ff"></rect><rect width="2%" height="100%" x="44%" fill="#b9d0ff"></rect><rect width="2%" height="100%" x="45%" fill="#b8cfff"></rect><rect width="2%" height="100%" x="46%" fill="#b7ceff"></rect><rect width="2%" height="100%" x="47%" fill="#b6ceff"></rect><rect width="2%" height="100%" x="48%" fill="#b5cdff"></rect><rect width="2%" height="100%" x="48%" fill="#b5cdff"></rect><rect width="2%" height="100%" x="49%" fill="#b4ccff"></rect><rect width="2%" height="100%" x="50%" fill="#b3ccff"></rect><rect width="2%" height="100%" x="51%" fill="#b2cbff"></rect><rect width="2%" height="100%" x="51%" fill="#b2cbff"></rect><rect width="2%" height="100%" x="52%" fill="#b1caff"></rect><rect width="2%" height="100%" x="53%" fill="#b0caff"></rect><rect width="2%" height="100%" x="54%" fill="#b0caff"></rect><rect width="2%" height="100%" x="55%" fill="#afc9ff"></rect><rect width="2%" height="100%" x="55%" fill="#afc9ff"></rect><rect width="2%" height="100%" x="56%" fill="#aec9ff"></rect><rect width="2%" height="100%" x="57%" fill="#aec8ff"></rect><rect width="2%" height="100%" x="58%" fill="#adc8ff"></rect><rect width="2%" height="100%" x="59%" fill="#acc7ff"></rect><rect width="2%" height="100%" x="59%" fill="#acc7ff"></rect><rect width="2%" height="100%" x="60%" fill="#acc7ff"></rect><rect width="2%" height="100%" x="61%" fill="#abc7ff"></rect><rect width="2%" height="100%" x="62%" fill="#abc6ff"></rect><rect width="2%" height="100%" x="62%" fill="#aac6ff"></rect><rect width="2%" height="100%" x="63%" fill="#aac6ff"></rect><rect width="2%" height="100%" x="64%" fill="#a9c5ff"></rect><rect width="2%" height="100%" x="65%" fill="#a9c5ff"></rect><rect width="2%" height="100%" x="66%" fill="#a8c5ff"></rect><rect width="2%" height="100%" x="66%" fill="#a8c5ff"></rect><rect width="2%" height="100%" x="67%" fill="#a8c4ff"></rect><rect width="2%" height="100%" x="68%" fill="#a7c4ff"></rect><rect width="2%" height="100%" x="69%" fill="#a7c4ff"></rect><rect width="2%" height="100%" x="70%" fill="#a7c4ff"></rect><rect width="2%" height="100%" x="70%" fill="#a6c3ff"></rect><rect width="2%" height="100%" x="71%" fill="#a6c3ff"></rect><rect width="2%" height="100%" x="72%" fill="#a6c3ff"></rect><rect width="2%" height="100%" x="73%" fill="#a5c3ff"></rect><rect width="2%" height="100%" x="74%" fill="#a5c3ff"></rect><rect width="2%" height="100%" x="74%" fill="#a5c2ff"></rect><rect width="2%" height="100%" x="75%" fill="#a4c2ff"></rect><rect width="2%" height="100%" x="76%" fill="#a4c2ff"></rect><rect width="2%" height="100%" x="77%" fill="#a4c2ff"></rect><rect width="2%" height="100%" x="77%" fill="#a4c2ff"></rect><rect width="2%" height="100%" x="78%" fill="#a3c1ff"></rect><rect width="2%" height="100%" x="79%" fill="#a3c1ff"></rect><rect width="2%" height="100%" x="80%" fill="#a3c1ff"></rect><rect width="2%" height="100%" x="81%" fill="#a3c1ff"></rect><rect width="2%" height="100%" x="81%" fill="#a2c1ff"></rect><rect width="2%" height="100%" x="82%" fill="#a2c1ff"></rect><rect width="2%" height="100%" x="83%" fill="#a2c1ff"></rect><rect width="2%" height="100%" x="84%" fill="#a2c0ff"></rect><rect width="2%" height="100%" x="85%" fill="#a2c0ff"></rect><rect width="2%" height="100%" x="85%" fill="#a1c0ff"></rect><rect width="2%" height="100%" x="86%" fill="#a1c0ff"></rect><rect width="2%" height="100%" x="87%" fill="#a1c0ff"></rect><rect width="2%" height="100%" x="88%" fill="#a1c0ff"></rect><rect width="2%" height="100%" x="88%" fill="#a1c0ff"></rect><rect width="2%" height="100%" x="89%" fill="#a0bfff"></rect><rect width="2%" height="100%" x="90%" fill="#a0bfff"></rect><rect width="2%" height="100%" x="91%" fill="#a0bfff"></rect><rect width="2%" height="100%" x="92%" fill="#a0bfff"></rect><rect width="2%" height="100%" x="92%" fill="#a0bfff"></rect><rect width="2%" height="100%" x="93%" fill="#a0bfff"></rect><rect width="2%" height="100%" x="94%" fill="#9fbfff"></rect><rect width="2%" height="100%" x="95%" fill="#9fbfff"></rect><rect width="2%" height="100%" x="96%" fill="#9fbfff"></rect><rect width="2%" height="100%" x="96%" fill="#9fbfff"></rect><rect width="2%" height="100%" x="97%" fill="#9fbeff"></rect><rect width="2%" height="100%" x="98%" fill="#9fbeff"></rect><rect width="2%" height="100%" x="99%" fill="#9fbeff"></rect><rect width="2%" height="100%" x="100%" fill="#9fbeff"></rect><text x="0%" y="95%" fill="rgb(255,255,255)" text-anchor="start" style="font-family:monospace;font-size:smaller">0</text><text x="100%" y="95%" fill="rgb(0,0,0)" text-anchor="end" style="font-family:monospace;font-size:smaller">1</text></svg>