<svg xmlns="http://www.w3.org/2000/svg" width="256px" height="22px"><rect width="2%" height="100%" x="0%" fill="#ffffe5"></rect><rect width="2%" height="100%" x="0%" fill="#ffffe5"></rect><rect width="2%" height="100%" x="1%" fill="#ffffe5"></rect><rect width="2%" height="100%" x="2%" fill="#ffffe5"></rect><rect width="2%" height="100%" x="3%" fill="#ffffe5"></rect><rect width="2%" height="100%" x="3%" fill="#ffffe4"></rect><rect width="2%" height="100%" x="4%" fill="#ffffe4"></rect><rect width="2%" height="100%" x="5%" fill="#ffffe4"></rect><rect width="2%" height="100%" x="6%" fill="#ffffe4"></rect><rect width="2%" height="100%" x="7%" fill="#ffffe3"></rect><rect width="2%" height="100%" x="7%" fill="#ffffe3"></rect><rect width="2%" height="100%" x="8%" fill="#ffffe2"></rect><rect width="2%" height="100%" x="9%" fill="#feffe2"></rect><rect width="2%" height="100%" x="10%" fill="#feffe1"></rect><rect width="2%" height="100%" x="11%" fill="#feffe1"></rect><rect width="2%" height="100%" x="11%" fill="#feffe0"></rect><rect width="2%" height="100%" x="12%" fill="#feffdf"></rect><rect width="2%" height="100%" x="13%" fill="#feffdf"></rect><rect width="2%" height="100%" x="14%" fill="#feffde"></rect><rect width="2%" height="100%" x="14%" fill="#fefedd"></rect><rect width="2%" height="100%" x="15%" fill="#fdfedc"></rect><rect width="2%" height="100%" x="16%" fill="#fdfedb"></rect><rect width="2%" height="100%" x="17%" fill="#fdfeda"></rect><rect width="2%" height="100%" x="18%" fill="#fdfed9"></rect><rect width="2%" height="100%" x="18%" fill="#fdfed8"></rect><rect width="2%" height="100%" x="19%" fill="#fdfed7"></rect><rect width="2%" height="100%" x="20%" fill="#fcfed6"></rect><rect width="2%" height="100%" x="21%" fill="#fcfed5"></rect><rect width="2%" height="100%" x="22%" fill="#fcfed4"></rect><rect width="2%" height="100%" x="22%" fill="#fcfed3"></rect><rect width="2%" height="100%" x="23%" fill="#fbfed1"></rect><rect width="2%" height="100%" x="24%" fill="#fbfed0"></rect><rect width="2%" height="100%" x="25%" fill="#fbfdcf"></rect><rect width="2%" height="100%" x="25%" fill="#fbfdcd"></rect><rect width="2%" height="100%" x="26%" fill="#fafdcc"></rect><rect width="2%" height="100%" x="27%" fill="#fafdca"></rect><rect width="2%" height="100%" x="28%" fill="#fafdc9"></rect><rect width="2%" height="100%" x="29%" fill="#fafdc7"></rect><rect width="2%" height="100%" x="29%" fill="#f9fdc5"></rect><rect width="2%" height="100%" x="30%" fill="#f9fdc4"></rect><rect width="2%" height="100%" x="31%" fill="#f9fdc2"></rect><rect width="2%" height="100%" x="32%" fill="#f8fcc0"></rect><rect width="2%" height="100%" x="33%" fill="#f8fcbf"></rect><rect width="2%" height="100%" x="33%" fill="#f8fcbd"></rect><rect width="2%" height="100%" x="34%" fill="#f7fcbb"></rect><rect width="2%" height="100%" x="35%" fill="#f7fcb9"></rect><rect width="2%" height="100%" x="36%" fill="#f6fbb8"></rect><rect width="2%" height="100%" x="37%" fill="#f4fbb7"></rect><rect width="2%" height="100%" x="37%" fill="#f3fab6"></rect><rect width="2%" height="100%" x="38%" fill="#f1fab5"></rect><rect width="2%" height="100%" x="39%" fill="#f0f9b4"></rect><rect width="2%" height="100%" x="40%" fill="#eef9b3"></rect><rect width="2%" height="100%" x="40%" fill="#edf8b1"></rect><rect width="2%" height="100%" x="41%" fill="#ebf7b0"></rect><rect width="2%" height="100%" x="42%" fill="#eaf7af"></rect><rect width="2%" height="100%" x="43%" fill="#e8f6ae"></rect><rect width="2%" height="100%" x="44%" fill="#e6f5ad"></rect><rect width="2%" height="100%" x="44%" fill="#e5f5ac"></rect><rect width="2%" height="100%" x="45%" fill="#e3f4aa"></rect><rect width="2%" height="100%" x="46%" fill="#e1f3a9"></rect><rect width="2%" height="100%" x="47%" fill="#dff3a8"></rect><rect width="2%" height="100%" x="48%" fill="#def2a6"></rect><rect width="2%" height="100%" x="48%" fill="#dcf1a5"></rect><rect width="2%" height="100%" x="49%" fill="#daf0a4"></rect><rect width="2%" height="100%" x="50%" fill="#d8efa2"></rect><rect width="2%" height="100%" x="51%" fill="#d5eea1"></rect><rect width="2%" height="100%" x="51%" fill="#d2eda0"></rect><rect width="2%" height="100%" x="52%" fill="#cfec9e"></rect><rect width="2%" height="100%" x="53%" fill="#ccea9d"></rect><rect width="2%" height="100%" x="54%" fill="#c9e99b"></rect><rect width="2%" height="100%" x="55%" fill="#c6e89a"></rect><rect width="2%" height="100%" x="55%" fill="#c3e698"></rect><rect width="2%" height="100%" x="56%" fill="#c0e597"></rect><rect width="2%" height="100%" x="57%" fill="#bde495"></rect><rect width="2%" height="100%" x="58%" fill="#b9e294"></rect><rect width="2%" height="100%" x="59%" fill="#b6e192"></rect><rect width="2%" height="100%" x="59%" fill="#b3e091"></rect><rect width="2%" height="100%" x="60%" fill="#b0de8f"></rect><rect width="2%" height="100%" x="61%" fill="#acdd8e"></rect><rect width="2%" height="100%" x="62%" fill="#a8db8c"></rect><rect width="2%" height="100%" x="62%" fill="#a4d98a"></rect><rect width="2%" height="100%" x="63%" fill="#a0d789"></rect><rect width="2%" height="100%" x="64%" fill="#9bd587"></rect><rect width="2%" height="100%" x="65%" fill="#97d385"></rect><rect width="2%" height="100%" x="66%" fill="#93d284"></rect><rect width="2%" height="100%" x="66%" fill="#8ed082"></rect><rect width="2%" height="100%" x="67%" fill="#8ace80"></rect><rect width="2%" height="100%" x="68%" fill="#85cc7e"></rect><rect width="2%" height="100%" x="69%" fill="#80ca7c"></rect><rect width="2%" height="100%" x="70%" fill="#7cc87a"></rect><rect width="2%" height="100%" x="70%" fill="#77c679"></rect><rect width="2%" height="100%" x="71%" fill="#72c376"></rect><rect width="2%" height="100%" x="72%" fill="#6dc173"></rect><rect width="2%" height="100%" x="73%" fill="#68be71"></rect><rect width="2%" height="100%" x="74%" fill="#63bc6e"></rect><rect width="2%" height="100%" x="74%" fill="#5eb96c"></rect><rect width="2%" height="100%" x="75%" fill="#59b769"></rect><rect width="2%" height="100%" x="76%" fill="#53b466"></rect><rect width="2%" height="100%" x="77%" fill="#4eb164"></rect><rect width="2%" height="100%" x="77%" fill="#49af61"></rect><rect width="2%" height="100%" x="78%" fill="#43ac5e"></rect><rect width="2%" height="100%" x="79%" fill="#3fa95b"></rect><rect width="2%" height="100%" x="80%" fill="#3ca559"></rect><rect width="2%" height="100%" x="81%" fill="#39a156"></rect><rect width="2%" height="100%" x="81%" fill="#369d54"></rect><rect width="2%" height="100%" x="82%" fill="#339951"></rect><rect width="2%" height="100%" x="83%" fill="#30954e"></rect><rect width="2%" height="100%" x="84%" fill="#2d914b"></rect><rect width="2%" height="100%" x="85%" fill="#298c49"></rect><rect width="2%" height="100%" x="85%" fill="#268846"></rect><rect width="2%" height="100%" x="86%" fill="#238443"></rect><rect width="2%" height="100%" x="87%" fill="#1f8142"></rect><rect width="2%" height="100%" x="88%" fill="#1b7e40"></rect><rect width="2%" height="100%" x="88%" fill="#177b3f"></rect><rect width="2%" height="100%" x="89%" fill="#13783e"></rect><rect width="2%" height="100%" x="90%" fill="#0f743c"></rect><rect width="2%" height="100%" x="91%" fill="#0b713b"></rect><rect width="2%" height="100%" x="92%" fill="#076e3a"></rect><rect width="2%" height="100%" x="92%" fill="#036b38"></rect><rect width="2%" height="100%" x="93%" fill="#006737"></rect><rect width="2%" height="100%" x="94%" fill="#006335"></rect><rect width="2%" height="100%" x="95%" fill="#005f33"></rect><rect width="2%" height="100%" x="96%" fill="#005b32"></rect><rect width="2%" height="100%" x="96%" fill="#005630"></rect><rect width="2%" height="100%" x="97%" fill="#00522e"></rect><rect width="2%" height="100%" x="98%" fill="#004e2c"></rect><rect width="2%" height="100%" x="99%" fill="#00492b"></rect><rect width="2%" height="100%" x="100%" fill="#004529"></rect><text x="0%" y="95%" fill="rgb(0,0,0)" text-anchor="start" style="font-family:monospace;font-size:smaller">0</text><text x="12%" y="95%" fill="rgb(0,0,0)" text-anchor="middle" style="font-family:monospace;font-size:smaller">0.13</text><text x="25%" y="95%" fill="rgb(0,0,0)" text-anchor="middle" style="font-family:monospace;font-size:smaller">0.25</text><text x="37%" y="95%" fill="rgb(0,0,0)" text-anchor="middle" style="font-family:monospace;font-size:smaller">0.38</text><text x="50%" y="95%" fill="rgb(0,0,0)" text-anchor="middle" style="font-family:monospace;font-size:smaller">0.5</text><text x="62%" y="95%" fill="rgb(0,0,0)" text-anchor="middle" style="font-family:monospace;font-size:smaller">0.63</text><text x="75%" y="95%" fill="rgb(255,255,255)" text-anchor="middle" style="font-family:monospace;font-size:smaller">0.75</text><text x="87%" y="95%" fill="rgb(255,255,255)" text-anchor="middle" style="font-family:monospace;font-size:smaller">0.88</text><text x="100%" y="95%" fill="rgb(255,255,255)" text-anchor="end" style="font-family:monospace;font-size:smaller">1</text></svg>